<?xml version="1.0" encoding="utf-8"?>
<!-- Generator: Adobe Illustrator 27.2.0, SVG Export Plug-In . SVG Version: 6.00 Build 0)  -->
<svg version="1.1" xmlns="http://www.w3.org/2000/svg" xmlns:xlink="http://www.w3.org/1999/xlink" x="0px" y="0px"
	 viewBox="0 0 854 500" style="enable-background:new 0 0 854 500;" xml:space="preserve">
<style type="text/css">
	.st0{fill:#436BE1;}
	.st1{fill-rule:evenodd;clip-rule:evenodd;fill:#194191;}
	.st2{fill-rule:evenodd;clip-rule:evenodd;fill:#001F6B;}
	.st3{fill-rule:evenodd;clip-rule:evenodd;fill:#1E4187;}
	.st4{fill-rule:evenodd;clip-rule:evenodd;fill:#1A3168;}
	.st5{fill-rule:evenodd;clip-rule:evenodd;fill:#25428C;}
	.st6{fill-rule:evenodd;clip-rule:evenodd;fill:#030049;}
	.st7{fill-rule:evenodd;clip-rule:evenodd;fill:#436BE1;}
	.st8{fill:#FFFFFF;}
</style>
<g id="Background">
</g>
<g id="Objects">
	<g>
		<g>
			<g>
				<g>
					<path class="st0" d="M296.4,240.4c-0.6-0.3-1.4-0.2-2.1-0.2c-17.1,0-34.2,0-51.3,0c-3.3,0-6.4-0.2-9.5-1.2
						c-9.3-2.8-16.2-9-19.9-19.5c-0.7-2.1-1.1-4.3-1.2-6.5c0-7,1.9-13.4,6.2-18.7c6.2-7.6,14.2-11.3,23.7-11.3l132.2,0
						c1.5,0,2.7,1.2,2.7,2.7c0.1,8.2,0,16.3-1,24.4c-0.9,8.3-2.4,16.5-4.5,24.6c-1.8,6.9-4,13.5-6.6,20c-2.9,7.2-8.5,18.6-12.5,25.3
						c-2.7,4.4-5.5,8.8-8.5,13c-5,6.9-10.4,13.3-16.4,19.4c-4.2,4.3-8.7,8.4-13.4,12.3c-5.1,4.2-10.4,8.1-15.9,11.7
						c-5.2,3.3-10.6,6.4-16,9.2c-10.3,5.2-21.1,9.3-32.2,12.2c-8.4,2.1-16.8,3.6-25.4,4.5c-7.7,0.7-15.3,0.9-23.1,0.7
						c-6.9-0.2-13.8-0.8-20.6-1.8c-11-1.7-21.7-4.3-32.2-8.2c-8.3-3.1-16.4-6.9-24.1-11.3c-6.4-3.6-12.5-7.5-18.4-11.9
						c-8.5-6.4-16.3-13.5-23.5-21.4c-2.7-3-5.2-6-7.8-9.2c-4.3-5.4-8.3-11.1-11.8-17.1c-2.3-3.7-4.4-7.6-6.4-11.5
						c-4.1-7.8-7.5-15.9-10.3-24.3c-3.3-10-5.7-20.4-7.2-30.9c-2.6-18.1-2.3-36.2,0.2-54.4c0.7-5,1.8-9.9,3-14.8
						c1.5-5.8,3.1-11.5,5.3-17.1c3.2-8.1,6.8-16.1,11.1-23.6c1.7-3.1,3.6-6.1,5.5-9.1c4.1-6.4,8.5-12.3,13.4-18.1
						c5.2-6,10.7-11.7,16.7-16.9c7.1-6.2,14.5-11.8,22.4-16.9c8-5.1,16.4-9.4,25.1-13.2c9.7-4.1,19.6-7.4,29.8-9.6
						c10.9-2.4,21.9-3.8,33.2-3.9c7.4-0.1,14.8,0.1,22.1,1c8.1,1,16.1,2.5,24.1,4.6c11.2,3.1,22,7.2,32.4,12.4
						c7.8,3.9,15.3,8.5,22.3,13.7c8.7,6.5,16.8,13.7,24.2,21.7c4.2,4.5,8.2,9.2,12,14.1c0.5,0.7,0.9,1.5,1,2.4
						c1.4,9.6,2.9,19.1,4.4,28.7c0.6,4,1.4,7.9,2,11.8c0.1,0.5,0.2,1,0.2,1.5c0.1,0.8-0.1,1.1-0.9,1.2c-1.4,0.1-2.7,0.2-4.1,0.5
						c-6,1.4-10.7,4.8-13.7,10.5c-0.2,0.3-0.3,0.6-0.5,0.8c-0.2,0.2-0.5,0.2-0.6,0.2c-0.4-0.1-0.7-0.3-1.1-0.5
						c-7.5-4-15-7.9-22.5-11.9c-7.7-4.1-15.4-8.2-23.2-12.3c-0.8-0.7-1.6-1.3-2.5-1.9c-6.1-6.7-13-12.6-20.4-17.7
						c-2.9-2-5.9-3.7-9.1-5.2c-4.6-2.2-9.2-4.1-13.9-5.7c-4.9-1.7-9.7-2.8-14.7-3.6c-8.2-1.4-16.5-1.6-24.9-0.8
						c-9,0.9-17.8,3-26.2,6.4c-14.4,5.9-26.9,14.6-37.5,26.1c-5.9,6.5-11,13.5-15.2,21.3c-3.7,6.9-6.8,14-9,21.5
						c-2.6,9-4,18.2-4.3,27.7c-0.2,7.6,0.1,15.2,1.3,22.7c1.5,9.4,4.3,18.5,8.3,27.2c3.3,7.1,7.2,13.8,11.8,20
						c7.6,10,16.5,18.4,27,25c9.9,6.3,20.5,10.9,32,13.4c11.9,2.6,24,3.2,36.1,1.3c12.4-2,24.1-6.3,35-12.8
						c7.2-4.3,13.6-9.4,19.5-15.4c6-6,11.1-12.7,15.6-20c1.3-2.1,2.4-4.1,3.7-6.2C296.3,241.4,296.6,241,296.4,240.4z M319.6,79.4
						c-1-1.2-1.9-2-2.7-2.9c-2.2-2-4.4-4-6.7-6c-5.6-4.9-11.5-9.2-17.7-13.2c-6.9-4.4-14-8.3-21.5-11.5c-7.3-3.2-14.8-5.8-22.4-7.9
						c-5.3-1.5-10.8-2.5-16.2-3.4c-4.2-0.7-8.5-1.2-12.7-1.5c-8.8-0.5-17.6-0.6-26.4,0.3c-7,0.7-14,1.8-20.9,3.4
						c-7.6,1.8-15,4.1-22.2,7c-11.5,4.6-22.4,10.5-32.6,17.7c-5.9,4.2-11.5,8.7-16.8,13.7c-5.8,5.4-11.2,11.2-16.2,17.4
						c-5.4,6.8-10.3,14.1-14.5,21.7c-3.9,7-7.3,14.2-10.1,21.8c-2.7,7.2-4.9,14.5-6.5,21.9c-1.1,5.1-2,10.4-2.7,15.5
						c-0.6,4.7-0.9,9.3-1.1,14.1c-0.5,12.6,0.5,25,3,37.4c2,10.1,4.9,19.9,8.8,29.4c2.8,7,6.1,13.7,9.9,20.3
						c4.3,7.5,9.3,14.5,14.7,21.3c6.3,7.7,13.2,14.7,20.7,21.1c8.3,7,17.3,13.2,26.8,18.3c10.7,5.8,21.7,10.2,33.4,13.4
						c7.6,2,15.3,3.4,23.1,4.4c4,0.5,8,0.8,12.1,0.9c6.1,0.2,12.2,0.2,18.3-0.4c3.6-0.3,7.3-0.7,10.8-1.1c8.5-1.3,16.8-3.2,25-5.9
						c11.1-3.6,21.8-8.4,31.9-14.4c10.7-6.4,20.6-13.9,29.6-22.6c7.5-7.4,14.4-15.4,20.3-24.1c3.2-4.7,6.3-9.6,8.9-14.5
						c4.1-7.6,7.6-15.5,10.5-23.8c1.3-3.8,2.4-7.7,3.5-11.5c1.2-3.9,2-7.9,2.7-12c0.9-5.3,1.7-10.5,2.1-15.9c0.3-3.5,0.7-7,0.7-10.6
						c0-3.8,0.5-3.4-3.1-5.7h-74.3h-1.6c-0.4,2.4-0.8,2.2-1.1,2.8c0.5,0.8,1.3,1.6,1.7,2.5c0.6,1.3,1.6,1.7,2.9,1.6
						c0.6-0.1,1.3,0,1.9,1.2h66.6c2.5-1.2,2.5-1.4,2.4,1.3c-0.2,5.2-0.9,10.4-1.6,15.4c-1.2,8.6-3.1,17-5.8,25.2
						c-2.6,8-5.7,15.7-9.5,23.1c-2.7,5.3-5.7,10.5-8.9,15.4c-4.8,7.4-10.1,14.1-16,20.5c-5.4,5.8-11.2,11.2-17.3,16.1
						c-8.3,6.6-17.3,12.3-26.7,17c-7.2,3.6-14.7,6.6-22.3,9.1c-8,2.5-16.2,4.4-24.6,5.6c-18.8,2.5-37.4,1.7-56-2.6
						c-17.7-4.2-34.1-11.4-49.4-21.6c-8.8-5.8-16.9-12.6-24.3-20.1c-7.3-7.4-13.8-15.4-19.5-24.2c-4.9-7.4-9.1-15.3-12.6-23.5
						c-0.4-0.9-0.7-1.8-1.1-2.7c-2.7-6.1-4.6-12.6-6.5-19.1c-1.8-6.4-2.9-12.8-3.9-19.4c-0.9-5.7-1.3-11.4-1.4-17.2
						c-0.2-10.9,0.4-21.6,2.4-32.2c1.3-6.9,2.9-13.8,5.1-20.6c2.3-7,4.9-13.9,8.2-20.5c4.6-9.4,10-18.1,16.2-26.4
						c4.6-6,9.5-11.7,14.9-16.9c5.6-5.5,11.5-10.5,17.9-15.1c11.7-8.4,24.3-15.1,37.8-19.9c10.4-3.8,21.1-6.4,32.1-7.8
						c11.4-1.4,22.8-1.5,34.1-0.4c11,1,21.7,3.4,32.3,6.8c9.2,3,18,6.9,26.5,11.6c7.8,4.3,15.1,9.2,22.1,15c3.1,2.5,6,5.1,8.9,7.8
						c0.6,0.6,1.3,0.9,2.1,0.8C316.3,79.5,317.7,79.5,319.6,79.4z M297.8,84.7c-0.4-0.3-0.6-0.7-0.9-0.9
						c-5.5-4.7-11.3-8.7-17.3-12.5c-7-4.3-14.3-7.8-21.9-10.8c-8.4-3.3-17-5.6-25.9-7.2c-6.6-1.1-13.2-1.9-19.9-2
						c-7.7-0.2-15.4,0.2-23,1.3c-10.5,1.4-20.7,3.9-30.6,7.8c-16.5,6.3-31.3,15.4-44.4,27.5c-9.3,8.5-17.4,18.2-24.3,29
						c-4.7,7.4-8.6,15.3-11.9,23.5c-3.5,8.8-6,17.9-7.8,27.2c-0.7,3.5-1,7.2-1.5,10.8c-1,8.3-1,16.6-0.5,24.9
						c0.5,7.1,1.5,14.1,3.1,21c2.3,10.3,5.7,20.3,10,29.8c4.2,9.1,9.3,17.6,15.3,25.5c2.6,3.4,5.3,6.8,8.2,10
						c5.2,5.7,10.8,11,16.8,15.7c5.7,4.6,11.8,8.7,18.1,12.3c8.5,4.7,17.3,8.6,26.5,11.5c7.5,2.4,15,4,22.7,5.1
						c6.4,0.9,12.8,1.3,19.2,1.3c6.4,0,12.6-0.4,18.9-1.3c5.3-0.7,10.6-1.8,15.9-3.2c11.5-2.9,22.3-7.4,32.7-13.2
						c7.5-4.2,14.5-9.1,21.2-14.5c8.6-7.1,16.2-15.2,23-24.2c5.3-7.2,10-14.8,14-23c1-2,1.9-4.2,2.8-6.3c2.5-5.6,4.4-11.3,6.1-17.2
						c1.7-6,3-12.1,3.8-18.3c0.1-0.8,0.7-1.7,0.2-2.4c-0.5-0.8-1.6-0.3-2.4-4.4h-47.7h-1.6c-0.9,4.2-1.1,4.3-3.1,5.2v0.7
						c1.9,3.1,1.6,2.9,4.5,2.2h41.8h2.1c0.9,0.6,1.1,0.9,1,1.9c0,0.3-0.1,0.7-0.2,1c-1.3,6.2-2.6,12.3-4.6,18.4
						c-2.7,8.2-6.2,16-10.3,23.6c-4.2,7.7-9.1,14.9-14.7,21.5c-4.7,5.6-9.7,10.8-15.2,15.6c-5.6,4.9-11.5,9.3-17.8,13.2
						c-10.4,6.4-21.3,11.3-32.8,14.7c-9.7,2.9-19.5,4.6-29.4,5.1c-10.4,0.6-20.9,0.2-31.2-1.7c-6.4-1.1-12.7-2.7-18.9-4.7
						c-10.6-3.5-20.6-8.3-30.1-14.4c-12.2-7.8-23-17.5-32.3-28.9c-5.1-6.2-9.6-12.9-13.6-19.9c-3.9-7-7.1-14.3-9.8-21.9
						c-2-5.5-3.5-11.1-4.6-16.8c-1.7-8.2-2.7-16.4-2.9-24.8c-0.2-11.1,0.4-22.1,2.9-32.9c1.5-6.6,3.1-13.2,5.7-19.6
						c1.6-4.1,3.2-8.3,5.2-12.2c3.1-6.4,6.6-12.3,10.6-18.1c3.8-5.6,7.9-10.7,12.5-15.5c5.1-5.6,10.7-10.5,16.6-15.1
						c7.8-6,16.1-11.1,24.9-15.3c9.7-4.6,19.8-7.8,30.2-10.1c7.6-1.6,15.3-2.4,23.1-2.7c6.4-0.2,12.6,0.2,19,0.8
						c10.4,0.9,20.5,3.4,30.4,7c13.7,5.1,26.5,12.1,38,21.5c0.7,0.6,1.4,1.1,2.1,1.6c0.2,0.2,0.5,0.3,0.9,0.1
						C295.4,86.3,296.7,85.8,297.8,84.7z M256,240.3L256,240.3c4.3,0,8.6,0,13,0c3.5,0,3.5,0.1,6.4-2c6.9-5,11.1-11.7,11.7-20.6
						c0.3-3.9-0.2-7.8-1.7-11.4c-2.6-6.2-6.8-10.8-12.5-14.1c-1.1-0.6-2.1-0.9-3.4-0.9c-5,0-9.9,0-15,0c-3.8,0-7.7,0-11.6,0
						c-4.9,0-9.4,1.3-13.6,3.8c-4.9,3-8.5,7.3-10.3,12.9c-2.3,7.1-1.6,13.9,2.3,20.3c2.2,3.6,5.2,6.4,8.7,8.4
						c4.1,2.4,8.5,3.5,13.3,3.5C247.5,240.3,251.8,240.3,256,240.3z M318.3,228.4c0,0.5,0.1,0.7,0.1,0.7c-0.2,0.7-0.5,1.4-0.7,2.1
						c-2,5.1-4.2,10.1-6.8,15c-3.7,6.9-8.1,13.4-13,19.5c-6.5,7.8-13.8,14.7-22,20.7c-7,5.1-14.4,9.3-22.2,12.7
						c-12,5.1-24.6,8.2-37.5,9.2c-12,0.9-23.9-0.2-35.6-3c-13.3-3.3-25.8-8.8-37.4-16.6c-8.9-6-17-13.3-24-21.6
						c-5.8-6.8-10.8-14.2-14.9-22.3c-4-7.8-7.1-16-9.4-24.5c-2.4-8.9-3.6-18.1-3.8-27.4c-0.3-12.4,1-24.7,4.6-36.6
						c1.5-4.9,3.1-9.6,5.1-14.4c3.1-7.2,6.8-13.9,11.2-20.4c3.6-5.3,7.7-10.3,12.1-15c5.7-6,11.9-11.3,18.8-15.9
						c6.9-4.7,14.2-8.7,21.9-11.8c6.6-2.6,13.3-4.7,20.3-6.1c5.5-1.1,10.9-1.9,16.5-2.1c9.2-0.4,18.4,0.1,27.5,1.7
						c7.1,1.3,14,3.3,20.8,5.9c11.1,4.3,21.4,10.2,30.8,17.8c0.3,0.2,0.5,0.6,1.2,0.6c0.8-0.8,1.4-1.9,2-2.9
						c0.2-0.4,0.2-0.8-0.2-1.1c-0.3-0.2-0.6-0.5-0.9-0.7c-3.8-3-7.8-5.8-12.1-8.3c-4.3-2.6-8.8-5-13.3-7c-6.6-2.9-13.3-5.2-20.3-6.9
						c-5.2-1.3-10.4-2.3-15.7-2.8c-4.9-0.5-9.8-0.7-14.7-0.7c-11.6,0.2-23,1.8-34.1,5.3c-16,5-30.5,13-43.2,24
						c-7.5,6.5-14.1,13.7-19.9,21.8c-4.7,6.5-8.7,13.6-12,21c-0.6,1.3-1.1,2.7-1.7,4.1c-2.6,5.9-4.4,12-5.9,18.3
						c-1,4.1-1.8,8.4-2.3,12.6c-1.6,14.9-1.2,29.4,2,43.7c1.8,7.8,4.2,15.5,7.5,22.9c0.9,2,1.7,4.1,2.7,6c3.5,6.7,7.4,13.1,11.9,19
						c2.4,3.2,4.9,6.2,7.6,9.2c6.8,7.3,14.2,13.6,22.4,19c5.4,3.6,11.1,6.7,17,9.4c11.9,5.4,24.4,8.7,37.4,10
						c13.1,1.3,26.1,0.5,39-2.4c8.2-1.8,16.2-4.6,23.9-8.2c9.3-4.4,18.1-9.9,26.1-16.5c7.7-6.4,14.6-13.7,20.6-21.8
						c4.6-6.1,8.5-12.8,11.9-19.6c2-3.9,3.6-8.1,5.1-12.3c0.8-2.1,1.4-4.3,2.1-6.5c0.2-0.9,0-1.2-0.9-1.2c-0.5,0-0.9,0-1.4,0
						c-9.9,0-19.8,0-29.7,0c-0.5,0-1.1,0-1.6,0.1c-0.3,0-0.6,0.2-0.8,0.5c-0.4,0.6-1.6,3-1.8,4.2
						C298.2,228.4,308.2,228.4,318.3,228.4z M299.8,91.5c-3.7,2.2-6.7,5-9.3,8.2c-0.1,0.2-0.2,0.2-0.3,0.4c-0.2,0.3-0.2,0.7,0,0.9
						c0.2,0.3,0.5,0.6,0.9,0.8c3.3,2.9,6.6,5.9,9.9,8.8c7.4,6.5,14.8,13.2,22.2,19.8c2.4,2.1,4.8,4.3,7.2,6.5c0.5,0.4,1,0.8,1.6,1.1
						c0.2,0.2,0.6,0,0.8-0.3c0.2-0.2,0.2-0.5,0.1-0.7c-0.2-0.4-0.5-0.8-0.8-1.2c-5.5-7.5-11-15-16.5-22.6
						c-4.2-5.9-8.5-11.7-12.7-17.6C301.9,94.3,300.9,93,299.8,91.5z M304.2,89.1c0.4,0.6,0.6,1,0.9,1.4c2.6,3.5,5.2,7,7.8,10.6
						c3.2,4.5,6.4,9,9.7,13.4c4.1,5.5,8,11,12,16.6c0.6,0.9,1.3,1.9,2,2.8c0.2,0.2,0.4,0.5,0.6,0.7c0.4,0.3,0.8,0,1.1-0.2
						c0.4-0.2,0.4-0.5,0.3-0.8c-0.2-0.6-0.4-1.1-0.6-1.6c-1.6-3.5-3.1-7-4.6-10.5c-2.8-6.4-5.6-12.8-8.4-19.1
						c-2.2-5-4.4-10.1-6.5-15c-0.1-0.2-0.2-0.3-0.2-0.4c-0.6-1.2-0.8-1.4-2-1.2c-2.7,0.3-5.3,0.8-7.8,1.7
						C307,87.8,305.6,88.1,304.2,89.1z M284.3,115.4c0,0.6,0.1,1.4,0.2,2.2c0.1,1.6,0.8,2.6,2.3,3.4c6,3.1,12,6.3,18,9.5
						c7.1,3.8,14.1,7.4,21.1,11.2c0.7,0.4,1.4,0.7,2.1,1.1c0.2,0.1,0.5,0.1,0.6-0.2s0.2-0.5,0-0.7c-0.5-0.5-0.9-0.9-1.3-1.4
						c-3.8-3.4-7.8-6.8-11.5-10.2c-7.3-6.5-14.7-13.1-22-19.6c-1.9-1.7-3.8-3.4-5.8-5.1c-0.6-0.6-0.9-0.5-1.3,0.2
						C285.3,108.6,284.3,111.7,284.3,115.4z M325.1,86c0.2,0.6,0.4,1.1,0.6,1.8c1.6,3.6,3.1,7.2,4.7,10.8c3.2,7.4,6.4,14.7,9.7,22.1
						c1.5,3.4,3,6.9,4.6,10.4c0.2,0.6,0.6,1.1,0.9,1.7c0.1,0.1,0.3,0.1,0.4,0.1c0.2,0,0.3-0.2,0.3-0.3c0-0.3,0-0.7,0-1
						c-0.9-6-1.7-12.1-2.7-18.1c-0.3-1.9-0.6-3.8-0.9-5.6c-0.6-4-1.1-8-1.7-12c-0.2-1.5,0-3.1-0.9-4.3c-0.9-1.2-2.4-1.8-3.8-2.5
						c-3.1-1.7-6.4-2.9-9.9-3.4C325.9,85.7,325.5,85.6,325.1,86z"/>
					<path class="st0" d="M516.5,202.9c-0.5-0.2-0.9,0.2-1.3,0.4c-10.8,5.9-22.1,8.2-34.2,7.4c-1.5-0.1-3-0.2-4.5-0.2
						c-0.5,0-0.7,0.3-0.5,0.8c0.2,0.9,0.5,1.7,0.7,2.6c1.1,4.4,1.5,8.9,1.3,13.5c-0.2,6.5-1.3,12.8-3.2,19s-4.3,12-7.5,17.6
						c-4.2,7.1-9.3,13.3-15.9,18.2c-8.3,6.2-17.6,9.6-27.9,9.7c-4.5,0.1-8.9-0.2-13.2-1.5c-8.2-2.4-14.5-7-18.8-14.7
						c-3.3-6-4.7-12.4-4.9-19.1c-0.2-8.8,1.5-17.3,4.5-25.6c1.8-5,4.1-9.6,6.8-14.1c4.2-6.9,9.4-12.8,15.8-17.6
						c0.6-0.5,1.4-0.7,1.9-1.7c-23.6-6.3-44.1-18.1-61.1-36.3c1.1,0.8,2.3,1.6,3.4,2.5c10.4,7.9,21.7,14.1,33.8,18.7
						c5.6,2.1,11.2,3.9,17,5.3c6.7,1.6,13.3,2.7,20.2,3.4c1.5,0.2,3,0,4.5-0.2c7.2-1.1,14.4-1.2,21.4,0.7c1.9,0.5,3.7,1.1,5.3,2
						c2,1.1,4.2,1.7,6.5,2.2c5.4,1.1,10.8,2.2,16.4,2.5c7.4,0.3,14.5-0.7,21.5-3.1c3.8-1.3,7.5-3.2,10.9-5.4
						c2.2-1.4,4.3-2.8,6.3-4.5c0.8-0.7,1.4-1.5,1.8-2.5c1.3-4.3,2.7-8.4,4.1-12.7c3.5-10.6,6.9-21.3,10.4-31.9
						c3.1-9.6,6.2-19.2,9.3-28.8c0.9-2.5,1.8-5.1,2.6-7.7c1.1-3.8,3.6-5.4,7.3-5.5c1.8,0,3.6,0,5.4,0.4c0.6,0.2,1.3,0.3,1.8,0.7
						c1.1,0.6,1.8,1.6,1.8,2.9c0.1,1.4-0.2,2.6-0.6,3.8c-1.4,4.3-2.8,8.6-4.2,12.8c-2.6,7.9-5.1,15.9-7.7,23.9
						c-1.6,4.7-3.1,9.5-4.6,14.3c-3.4,10.4-6.7,20.8-10.1,31.1c-1.5,4.5-2.9,9.1-4.4,13.6c-3.5,10.5-6.8,21.1-10.3,31.6
						c-1.7,5.3-3.5,10.6-5.2,15.9c-2.3,7-4.6,14.1-6.9,21.1c-0.4,1.3-0.8,2.7-1,4.1c-0.7,4.2,1.6,5.1,4.8,4c1.6-0.6,2.9-1.6,4.1-2.9
						c1.8-2,3.6-4.2,5.3-6.3c0.5-0.7,1-1.3,1.6-1.8c1.3-1.2,2.8-1.5,4.4-0.6c1.3,0.7,2.5,1.5,3.5,2.5c1.6,1.7,2,3.8,0.8,5.9
						c-3.6,6-7.8,11.4-13.9,14.9c-5.5,3.2-11.4,4-17.4,2.5c-4-1-6.7-3.6-7.9-7.8c-0.9-2.9-1-6-0.8-9.1c0.4-5.1,1.6-9.9,3.1-14.7
						c0.9-2.7,1.7-5.3,2.6-7.9c2.4-7.2,4.6-14.4,6.9-21.6c1.7-5.2,3.4-10.5,5.1-15.7c1-3.2,2.1-6.4,3.1-9.6
						C516.5,203.6,516.7,203.3,516.5,202.9z M403.3,253.1c0.1,1.4,0.1,2.8,0.2,4.2c0.4,4.7,1.9,9,4.8,12.7c0.5,0.6,0.9,1.1,1.5,1.6
						c3.3,2.9,7.1,4.6,11.5,4.8c1.8,0.1,3.6,0.2,5.4,0c4.2-0.2,8.1-1.5,11.7-3.7c5.2-3.2,9.3-7.6,12.6-12.8c3.6-5.6,6.3-11.8,8-18.4
						c1.4-5.4,2.2-10.8,2-16.3c-0.2-3.1-0.7-6.2-1.9-9.1c-2.4-5.7-6.5-9.2-12.3-10.5c-7.2-1.6-14.1-0.5-20.6,3.4
						c-4.8,2.9-8.8,6.7-12,11.4c-2.8,4.2-5.3,8.6-7,13.4C405,240.1,403.3,246.4,403.3,253.1z"/>
					<path class="st0" d="M671.2,227c0.6-0.2,0.9-0.7,1.1-1.2c3.7-5.9,7.8-11.4,12.3-16.6c3.8-4.5,8-8.7,12.7-12.2
						c3.3-2.5,6.8-4.7,10.6-6c3.9-1.5,7.9-1.6,11.9-0.1s6.9,4.3,9.2,7.8c0.5,0.8,0.7,1.6,0.9,2.5c0.1,0.5-0.1,1,0.2,1.5
						c0.6,0.2,1-0.2,1.4-0.7c1.6-1.3,3.1-2.5,4.8-3.7c7.9-5.6,16.8-8.3,26.4-8.6c4.7-0.2,9.3,0.2,13.9,1.5c5.1,1.3,9.7,3.8,13.5,7.4
						c3.1,3,5.5,6.5,7.1,10.7c2.5,6.7,3.4,13.7,2.6,20.8c-0.7,6.5-1.9,12.9-4.1,19c-2.4,6.9-5.5,13.5-9.7,19.5
						c-3.8,5.4-8.3,10.1-13.7,14c-8.1,5.7-17,8.8-26.7,9c-5.1,0.1-10.1-0.3-15-2c-8.8-3-15.2-8.8-18.9-17.8
						c-2.8-6.8-3.6-13.8-3.1-21.1c0.5-9,3-17.5,6.6-25.7c1.7-4,3.8-7.8,6.3-11.3c0.6-0.8,1.2-1.8,1.7-2.7c0.3-0.6,0.2-1-0.4-1.1
						c-1-0.2-1.7-0.7-2.5-1.3c-1.1-0.8-2.2-1.6-3.4-2.4c-2.9-1.8-6-1.9-9.1-0.7c-2.8,1.1-5.3,2.9-7.8,4.7c-4,3.1-7.6,6.7-10.9,10.6
						c-6.4,7.3-11.9,15.2-17,23.5c-3.5,5.8-6.8,11.7-9.9,17.7c-2.3,4.4-4.2,9.1-6.4,13.6c-1.3,2.9-2.2,6-3.1,9.1
						c-0.2,0.8-0.5,1.6-0.9,2.3c-1,1.9-2.7,3-4.7,3.4c-2,0.3-4.1,0.3-6.1,0.1c-1.2-0.2-2.3-0.7-3.4-1.2c-1.2-0.7-1.7-1.7-1.6-3
						c0.1-0.7,0.2-1.5,0.5-2.1c1.5-4,2.6-8.1,3.9-12.2c2.3-7.1,4.6-14.2,6.8-21.3c1.1-3.4,2.1-6.9,3.2-10.4
						c3.1-9.9,6.3-19.7,9.4-29.6c1.5-4.6,2.9-9.2,4.4-13.8c0.3-1,0.8-2,1.2-2.9c0.9-1.9,2.4-3,4.5-3.3c2.4-0.3,4.7-0.2,7.1,0.1
						c0.2,0,0.5,0.2,0.7,0.2c2.7,0.8,3.7,2.5,3.1,5.4c-0.2,0.7-0.3,1.2-0.5,1.9c-3,9.3-5.9,18.6-8.9,28
						C671.3,226.5,671.3,226.8,671.2,227z M725.1,253.5c-0.2,2.9,0.3,5.9,1.2,8.9c2,7,6.3,11.6,13.1,13.3c6.7,1.6,13.2,1,19.4-2.3
						c3.7-2,6.8-4.7,9.7-7.8c2.7-3,4.9-6.5,6.8-10.1c4.3-8.2,7-16.9,7.5-26.3c0.2-3.6,0-7.1-0.9-10.5c-2-7.2-6.6-11.6-13.7-13.2
						c-2.6-0.6-5.2-0.6-7.8-0.4c-4.6,0.2-8.9,1.6-12.8,4.1c-5.3,3.4-9.6,7.8-13,13.2c-3.4,5.5-6,11.4-7.5,17.7
						C725.9,244.5,725.1,248.7,725.1,253.5z"/>
					<path class="st0" d="M580,220.1c1.3-1.6,2.3-2.9,3.3-4.2c3.5-4.6,7.4-8.8,11.6-12.8c4.6-4.3,9.5-7.9,15.1-10.5
						c3.8-1.7,7.8-2.8,11.9-2.8c8,0,13.7,3.8,17.5,11c2.3,4.4,3.3,9.2,3.5,14.2c0.3,7.4-0.9,14.5-2.7,21.5
						c-1.8,6.8-4.5,13.2-7.8,19.4c-3.8,7.2-8.6,13.7-14.3,19.4c-5.6,5.6-11.9,10-19,12.9c-4.3,1.8-8.8,2.8-13.4,3.1
						c-8.9,0.7-17.3-1.4-25.3-5.4c-0.3-0.2-0.7-0.3-1.1-0.4c-0.1,0-0.2,0-0.4,0.1c-0.6,1.9-1.3,3.8-2,5.7
						c-2.8,8.9-5.7,17.8-8.5,26.7c-1.5,4.6-3,9.2-4.5,13.8c-3.5,10.7-6.9,21.4-10.4,32.1c-1.6,5-3.2,10-4.8,15c-0.3,1-0.7,2-1.1,3
						c-0.7,1.6-2,2.9-3.7,3.3c-3.2,0.9-6.4,1-9.6-0.3c-2.5-1.1-3.1-2.4-2.3-5.1c0.5-2,1.3-3.9,2-5.8c1-3.3,2-6.6,3.1-9.9
						c3.5-11.1,7.1-22.2,10.6-33.3c1.6-5.1,3.2-10.3,4.9-15.5c2.3-7,4.6-14.1,6.8-21.1c2.7-8.3,5.2-16.6,7.8-24.9
						c3.4-10.5,6.7-21.2,10.1-31.6c1.6-4.7,3-9.6,4.6-14.3c1.7-5.5,3.5-11,5.3-16.4c1-3.1,2-6.3,3-9.4c0.4-1.1,0.9-2.3,1.4-3.4
						c0.9-1.9,2.5-2.9,4.6-3.2c2.3-0.3,4.6-0.2,6.9,0.1c3.5,0.6,4.8,2.6,3.8,6.1c-1.3,4.6-2.8,9.1-4.3,13.7
						c-0.9,2.8-1.8,5.6-2.7,8.4C579.9,219.3,580,219.6,580,220.1z M583.1,276.5c6.4,0.2,12.6-1.6,18.3-5.7
						c4.9-3.4,8.7-7.8,12.1-12.8c2.6-3.8,4.8-7.8,6.5-12c0.6-1.6,1.2-3,1.8-4.6c1.9-4.7,3.1-9.7,3.7-14.8c0.5-3.4,0.5-6.9,0.1-10.4
						c-0.3-2.5-0.9-4.9-2.1-7c-1.6-2.8-3.9-4.4-7.3-4.3c-2.6,0.1-4.9,0.8-7.3,2c-5.1,2.5-9.3,6.3-13.2,10.4c-3.1,3.3-6,6.8-8.6,10.5
						c-3.7,5.1-7.1,10.3-10.4,15.7c-2.7,4.7-5.5,9.5-8.1,14.2c-1.6,2.8-2.8,5.7-3.7,8.8c-0.5,1.6-0.9,3.1-1.4,4.7
						c-0.2,0.7-0.1,1,0.6,1.3c0.3,0.2,0.5,0.2,0.9,0.3C570.7,275.1,576.5,276.5,583.1,276.5z"/>
					<path class="st0" d="M352.1,158.8c-0.7,0-1.2-0.3-1.6-0.6c-5-2.6-10-5.3-15-7.9c-0.4-0.2-0.9-0.5-1.3-0.7
						c-0.4-0.2-0.5-0.7-0.3-1.1c0.4-1,0.8-2,1.4-2.9c3.2-4.3,7.5-6.5,12.8-6.4c0.9,0,1.1,0.2,1.3,1.1c0.2,1.6,0.5,3.1,0.7,4.7
						c0.6,4,1.3,7.9,2,11.9C352.1,157.5,352.2,158.1,352.1,158.8z M350.1,157c0.2,0.2,0.4,0.3,0.5,0.1c0.1-0.2,0-0.4-0.1-0.7
						c-0.7-4.9-1.4-9.7-2.1-14.6c-0.2-0.9-0.3-1.1-1.3-1.1c-2.4,0-4.7,0.7-6.8,2c-2.2,1.4-3.9,3.3-4.9,5.8c-0.2,0.5,0,0.7,0.3,1.1
						c0.2,0.1,0.3,0.2,0.4,0.2c3.2,1.7,6.4,3.5,9.7,5.1C347.2,155.6,348.6,156.5,350.1,157z"/>
				</g>
			</g>
		</g>
		<g>
			<path class="st1" d="M192.5,22.6V-7h51.2l-8.2,12.7v113.6l9.8-33.7l-0.3-0.3L241,68.5l0.6-0.2l6,9.8l3.9-13.4l-7.4-9.1l-3.8-5.2
				c1.6,1.4,3.2,2.9,4.8,4.4l7.2,7.3l6.8-23.3c-3.6-7.8-5.8-16.1-8.7-24.2l-1-2.7c0.5,0.9,1,1.7,1.6,2.5L261.2,31l6.1-20.9l4-11.6
				c-0.5,4-1,8.1-1.5,12.1l-4.6,26.9l0.1,0.2l0.1,2.2l-0.7,0.7l-1,5.8l17.5-13.3l2.4-1.8c-0.7,0.7-1.3,1.5-2,2.2l-19.3,20.4
				l-2.7,15.7L288,98.3l-0.3-17.8l0.6-0.1l5.6,24l16.2,16.5V-7h43v69.9l19-44.7l-0.8-0.9L366-7h3.1l7,16l6.8-16h3.4l-10.5,36.6
				l29.8-15.6c0.2,0.3,0.4,0.6,0.6,0.8l-16.1,13.6l19.6,4.2l-0.1,0.6l-24.9-0.1L372.9,43l-1.1,0.5l-18.6,64.6v113.4l11.7-16.4
				l-0.4-0.7l0.3-17.3l0.6-0.1l3.8,12l11.8-16.6l3.9-5.2c-0.9,1.9-1.8,3.8-2.7,5.8l-28.9,58V355c0,7.1,3,13.9,8.3,18.9l18.7,17.9
				h-97l18.7-17.9c5.3-5.1,8.2-11.9,8.2-18.9V194.3l-0.1,0l-2.2-1.4L268,144.3l-4.1-5c1.7,1.4,3.3,2.8,5,4.2l25.4,21.3l-2.6-11.1
				l0.6-0.2l8.3,16.5l9.5,7.9v-41.1l-16.4-20.2l-21.2,1.3l-0.1-0.6l18-4.8L259,73.9l-23.2,136.7l-0.3,0.7v31.2l12.3-7.2l5.9-23.8
				c0.2,0,0.4,0.1,0.6,0.1l-0.6,20.3l28.7-16.9l5.8-3.2c-1.6,1.4-3.3,2.8-5,4.2L235.5,254v101c0,7.1,3,13.9,8.2,18.9
				c7.9,7.6,18.8,17.9,18.8,17.9h-97l18.7-17.9c5.3-5.1,8.2-11.9,8.2-18.9V142.2l-8.5-18.4l-17.3-5.9l0.1-0.6l14.5,0.7l-15.7-34.1
				l-2.4-5.9c1.2,1.8,2.4,3.5,3.6,5.3l25.7,41V42.3L170.2-7h3.4L192.5,22.6z M530.7-7h-0.6l-2.6,3.1l-12.4,14.5l-0.2,0.1l-0.1,0.3
				l-3.1,3.6l-2-21.5h-0.9l-2.6,27.9l-5.2,6.2V-7h-43v75l-6-4.4l-2.7-20.1h-0.6l-2.2,16.1l-14.1-10.3l-0.9,0.9L449,71.8L434.6,78
				l0.2,0.6l17.7-2.4l5.6,6.9v28.7l-6.1-2.2L444.1,91l-0.6,0.1l2,16.2l-17.1-6.2l-0.6,1.1l30.2,19.1v84.1l-11.4-13.4l-2.5-26.9
				c-0.1-1-0.2-1.9-0.3-2.9l-0.3,2.9l-2,21l-8.1-9.5c0,0,0,0,0,0l0,0l-7-8.2l0.2-0.4l-1.9-16.3c-0.2,0-0.4,0-0.6,0l-2.6,11.1
				l-12.9-15.1c-1.5-1.6-4.4-4.8-4.4-4.8l3.3,5.5l13,19.9l0.6,1.5l0.6,0.3l4.8,7.3l-10.4,7.5l0.3,0.5l12.8-4l28.7,43.8V355
				c0,7.1-3,13.9-8.3,18.9c-7.9,7.6-18.7,17.9-18.7,17.9h97L509.3,374c-5.3-5.1-8.2-11.9-8.2-18.9V165.6l10.1-14.3l20.1-4.9
				c0-0.2-0.1-0.4-0.1-0.5l-16.4,0.4l14.3-20.4l28.1-13.7c0.9-0.5,1.8-0.9,2.7-1.4l-3,0.9l-22.6,6.7l17-24.2
				c1.2-1.8,2.3-3.6,3.5-5.4l-4.5,4.6l-29,32.1l-1.9-19.5c-0.1-1-0.2-1.9-0.3-2.9l-0.3,2.9l-2.5,25.1L501,147.9V44.3l16.8-28.9
				l22.4-4.3l0-0.5c-6.3-0.3-12.7-1.1-19-1.1l7.4-12.7L530.7-7z"/>
			<path class="st2" d="M657,78.8l-26.1,26.5l0.3-17.8l-0.6-0.1l-5.7,24l-16.2,16.5V0h-43v69.9l-19-44.7l0.8-0.9L552.9,0h-3.1l-7,16
				L536,0h-3.4l10.5,36.6l-29.8-15.6c-0.2,0.3-0.4,0.6-0.7,0.8l16.1,13.6l-19.5,4.7l24.9-0.1L546,50l1.1,0.5l18.6,64.6v113.4
				L554,212l0.4-0.7l-0.3-17.3l-0.6-0.1l-3.8,12l16,42V362c0,7.1-3,13.9-8.3,18.9l-18.7,17.9h97L617,381c-5.3-5.1-8.3-11.9-8.3-18.9
				V201.3l0.1,0l2.2-1.4l39.9-48.5l4.1-5c-1.7,1.4-3.3,2.8-5,4.2c0,0-25.4,21.3-25.4,21.3l2.6-11.1l-0.6-0.2l-8.3,16.5l-9.5,7.9
				v-41.1l16.4-20.2l21.2,1.3l0.1-0.6l-18-4.8L657,84.4V78.8z M565,405.3l-0.7,0.6h0.7V405.3z"/>
			<path class="st3" d="M77.5,29.6V0H26.3l8.2,12.7v113.6l-9.8-33.7l0.3-0.3l4.1-16.9l-0.6-0.2l-6,9.8l-3.9-13.4l7.4-9.1l3.8-5.2
				c-1.6,1.4-3.2,2.9-4.8,4.4L17.8,69l-6.8-23.3c3.6-7.8,5.8-16.1,8.7-24.2l1-2.7c-0.5,0.9-1,1.7-1.5,2.5L8.9,38L2.8,17.1L0,9v6.2
				l0.3,2.4l4.6,26.9l-0.1,0.2l-0.1,2.2l0.7,0.7l1,5.8L0,48.6v4.3l7.6,8.1l2.7,15.7L0,87.1v7.3l11-13.5l23.1,136.7l0.4,0.7v31.2
				l-12.3-7.2l-5.9-23.8c-0.2,0-0.4,0.1-0.6,0.1l0.6,20.3L0,229.2v4.3L34.5,261v101c0,7.1-3,13.9-8.3,18.9
				c-7.9,7.6-18.7,17.9-18.7,17.9h97L85.8,381c-5.3-5.1-8.3-11.9-8.3-18.9V149.2l8.5-18.4l17.3-5.9l-0.1-0.6L88.7,125l15.7-34.1
				l2.4-5.9c-1.2,1.8-2.4,3.5-3.6,5.3l-25.7,41V49.3L99.9,0h-3.4L77.5,29.6z M0,153.7l2-2.5l4.1-5c-1.7,1.4-3.4,2.8-5,4.2l-1,0.9
				V153.7z"/>
			<path class="st4" d="M17.8,0v69.9l19-44.7l-0.8-0.9L30.6,0h3.1l7,16l6.8-16h3.4L40.3,36.6l29.8-15.6c0.2,0.3,0.4,0.6,0.6,0.8
				L54.7,35.4l19.6,4.2l-0.1,0.6l-25-0.1L37.5,50l-1.1,0.5l-18.6,64.6v113.4L29.5,212l-0.4-0.7l0.3-17.3l0.6-0.1l3.8,12l11.8-16.6
				l3.8-5.2c-0.9,1.9-1.8,3.8-2.7,5.8l-28.9,58V362c0,7.1,3,13.9,8.2,18.9l18.8,17.9H0V0H17.8z M167.3,0h-0.6l-2.6,3.1l-12.4,14.5
				l-0.2,0.1l-0.1,0.3l-3.1,3.6l-2-21.5h-0.8l-2.6,27.9l-5.2,6.2V0h-43v75l-6-4.4L86,50.5h-0.6l-2.2,16.1L69.1,56.3l-1,0.9
				l17.4,21.7L71.2,85l0.2,0.6l17.7-2.4l5.6,6.9v28.7l-6.1-2.2L80.7,98l-0.6,0.1l2,16.2l-17.1-6.2l-0.6,1.1l30.2,19.1v84.1
				l-11.4-13.4l-2.5-26.9c-0.1-1-0.2-1.9-0.3-2.9l-0.3,2.9l-1.9,21l-8.1-9.5l0,0l0,0l-7-8.2l0.2-0.4l-1.9-16.3c-0.2,0-0.4,0-0.6,0
				l-2.6,11.1l-12.9-15.1c-1.5-1.6-4.4-4.8-4.4-4.8l3.3,5.5l13,19.9l0.6,1.5l0.6,0.3l4.8,7.3L52.8,192l0.3,0.5l12.8-4l28.7,43.8V362
				c0,7.1-3,13.9-8.3,18.9c-7.9,7.6-18.7,17.9-18.7,17.9h97L145.9,381c-5.3-5.1-8.2-11.9-8.2-18.9V172.6l10.1-14.3l20.1-4.9
				c0-0.2-0.1-0.4-0.1-0.5l-16.5,0.4l14.4-20.4l28.1-13.7c0.9-0.5,1.8-0.9,2.7-1.4l-3,0.9l-22.6,6.7l17-24.2
				c1.2-1.8,2.3-3.6,3.5-5.4l-4.5,4.6l-29,32.1L156,113c-0.1-1-0.2-1.9-0.3-2.9l-0.3,2.9l-2.5,25.1l-15.3,16.9V51.3l16.8-28.9
				l22.4-4.3l-0.1-0.5c-6.3-0.3-12.6-1.1-19-1.1l7.4-12.7L167.3,0z"/>
			<path class="st5" d="M676,26.6V-3h51.2L719,9.7v113.6l9.8-33.7l-0.3-0.3l-4.1-16.9l0.6-0.2l6,9.8l3.9-13.4l-7.4-9.1l-3.8-5.2
				c1.6,1.4,3.2,2.9,4.8,4.4l7.2,7.3l6.8-23.3c-3.6-7.8-5.8-16.1-8.7-24.2l-1-2.7c0.5,0.9,1,1.7,1.6,2.5L744.6,35l6.1-20.9l3.9-11.6
				c-0.5,4-1,8.1-1.5,12.1l-4.6,26.9l0.1,0.2l0.1,2.2l-0.7,0.7l-1,5.8l17.5-13.3l2.4-1.8c-0.7,0.7-1.3,1.5-2,2.2l-19.2,20.4
				l-2.7,15.7l28.2,28.7l-0.3-17.8l0.6-0.1l5.7,24l16.2,16.5V-3H827v398.9h-60.4l18.7-17.9c5.3-5.1,8.3-11.9,8.3-18.9V198.3l-0.1,0
				l-2.2-1.4l-39.9-48.5l-4.1-5c1.7,1.4,3.3,2.8,5,4.2l25.4,21.3l-2.6-11.1l0.6-0.2l8.3,16.5l9.5,7.9v-41.1l-16.4-20.2l-21.2,1.3
				l-0.1-0.6l18-4.8l-31.4-38.7l-23.2,136.7l-0.3,0.7v31.2l12.3-7.2l5.9-23.8c0.2,0,0.4,0.1,0.6,0.1l-0.6,20.3l28.7-16.9l5.8-3.2
				c-1.7,1.4-3.3,2.8-5,4.2L719,258v101c0,7.1,3,13.9,8.2,18.9c8,7.6,18.8,17.9,18.8,17.9h-97l18.7-17.9c5.3-5.1,8.2-11.9,8.2-18.9
				V146.2l-8.5-18.4l-17.3-5.9l0.1-0.6l14.5,0.7l-15.7-34.1l-2.4-5.9c1.2,1.8,2.4,3.5,3.6,5.3l25.7,41V46.3L653.6-3h3.4L676,26.6z"
				/>
		</g>
		<g>
			<path class="st6" d="M443.9,226L443.9,226c3.1-0.5,6.3,2.7,7.1,5c0.8,2.3,1.4,4.5,1,4c-0.3-0.3-1-0.7-1.5-0.8
				c0.2,2.2-0.1,4.4-0.5,5.8c-1.1,4.1-1.8,3.7-1.4,5c0.4,1.3,8.2-2.1,10.4,2c2.2,4.1,2,11,2,11l7,12c0,0,1.8,1.2,2,3
				c0.2,1.7,4,34,4,34s-2,9.8-7,11c-5,1.2-7,2-7,2s-2.4,16-4,19c-1.6,3,0.9,7.4,1,13c0.1,5.6-1.7,25-2,28c-0.3,3-0.3,9.5,0,11
				c0.3,1.4,0,3,0,3s-1.4,2.2-5,2c-3.6-0.2-5-1-5-1s-0.6-3.9,0-5c0.7-1.1-1.6-4-1-5s1.9-1.2,1-3c-0.9-1.8-2.9-6.6-2-12
				c0.9-5.4,2.2-10,1-14c-1.2-4-2.7-4.4-2.4-7s0-10,0-10l-1.6-9c0,0-1.8,2-2,5c-0.2,3,1.2,5.7,0,8c-1.2,2.3-2,10.9-2,15
				c0,4.1,0.5,8.1,0,13c-0.5,4.9-2.6,7.3-1,10c1.6,2.7,1,3.1,1,5c0,1.9,0,6,0,6s-4,1.2-7,2c-3,0.8-14,2-14,2s-0.7-2.1,3-5
				c3.7-2.9,3.2-4.8,5-7c1.8-2.2-1.1-3.4,0-7c1.2-3.6-0.9-4.3,0-8c1-3.7,1-10.5,0-16c-1-5.5-3.2-6.8-3-12s3-35,3-35s-1.2-2.5,0-7
				c1.2-4.5,2-6,2-6s-1.4-1.8,0-5c1.4-3.1,4-15,4-15s-5.8,11.2-7,15s-0.7,6-3,9c-2.4,3-4.3,4.1-5,6c-0.7,1.9-2,6-2,6l-2,3
				c0,0-0.8,1.2-1,3c-0.2,1.7-0.7,2.3,0,3c0.7,0.7,0.9,1.6-1,1c-1.9-0.6-3.7-2.6-4-5c-0.3-2.4,2-7,2-7s-0.3-0.8,0-4
				c0.3-3.2,0.3-5.7,2-7c1.7-1.3,2-2,2-2s8-24.2,10-28c2-3.9,3.9-9.6,5-11c1.1-1.4,6.2-3.4,8-5c1.8-1.6,2-2,2-2l1-3v-1
				c0,0-0.1-1.3-0.3-2.9l-0.7-1c0,0-0.5-2.9,0-7c0,0-0.1-7,8-7C443.3,226,443.6,226,443.9,226L443.9,226z"/>
			<rect x="0" y="392" class="st7" width="854" height="108"/>
		</g>
		<g>
			<path class="st6" d="M160.9,416h-9.2c0,0,2.4-7.9,3.7-12.2c0.1-0.4,0.5-0.6,0.8-0.6c0.4,0,0.7,0.3,0.8,0.6l1.9,6.4l1.1-2.4
				c0.1-0.3,0.5-0.5,0.8-0.5c0.3,0,0.7,0.2,0.8,0.5l1.2,2.7l1.7-5c0.1-0.3,0.5-0.6,0.8-0.6s0.7,0.2,0.8,0.6l3.7,10.6H160.9
				L160.9,416z"/>
			<path class="st6" d="M255.3,441.8h9.2c0,0-2.4-7.9-3.7-12.2c-0.1-0.4-0.4-0.6-0.8-0.6c-0.4,0-0.7,0.3-0.8,0.6l-1.9,6.4l-1.1-2.4
				c-0.1-0.3-0.4-0.5-0.8-0.5c-0.4,0-0.7,0.2-0.8,0.5l-1.2,2.7l-1.7-5c-0.1-0.3-0.5-0.6-0.8-0.6s-0.7,0.3-0.8,0.6l-3.7,10.6H255.3
				L255.3,441.8z"/>
			<path class="st6" d="M408.4,412.4h9.2c0,0-2.4-7.9-3.7-12.2c-0.1-0.4-0.5-0.6-0.9-0.6c-0.4,0-0.7,0.2-0.8,0.6l-1.9,6.4l-1.1-2.4
				c-0.1-0.3-0.5-0.5-0.8-0.5c-0.3,0-0.7,0.2-0.8,0.5l-1.2,2.7l-1.8-5c-0.1-0.4-0.5-0.6-0.8-0.6c-0.4,0-0.7,0.2-0.8,0.6l-3.7,10.6
				H408.4L408.4,412.4z"/>
			<path class="st6" d="M355,475.3h9.2c0,0-2.4-7.9-3.7-12.2c-0.1-0.4-0.5-0.6-0.8-0.6c-0.4,0-0.7,0.3-0.9,0.6l-1.9,6.4l-1.1-2.4
				c-0.1-0.3-0.5-0.5-0.8-0.5c-0.3,0-0.7,0.2-0.8,0.5l-1.2,2.7l-1.8-5.1c-0.1-0.3-0.5-0.6-0.8-0.6c-0.4,0-0.7,0.2-0.8,0.6l-3.7,10.7
				H355L355,475.3z"/>
			<path class="st6" d="M508.9,427.5h9.2c0,0-2.4-7.9-3.7-12.2c-0.1-0.4-0.5-0.6-0.9-0.6c-0.4,0-0.7,0.3-0.8,0.6l-1.9,6.4l-1.1-2.4
				c-0.1-0.3-0.5-0.5-0.8-0.5s-0.7,0.2-0.8,0.5l-1.2,2.7l-1.8-5c-0.1-0.4-0.5-0.6-0.8-0.6s-0.7,0.2-0.8,0.6l-3.7,10.6H508.9
				L508.9,427.5z"/>
			<path class="st6" d="M308,430.1h9.2c0,0-2.4-7.9-3.7-12.2c-0.1-0.4-0.5-0.6-0.9-0.6c-0.4,0-0.7,0.3-0.8,0.6l-1.9,6.4l-1.1-2.4
				c-0.1-0.3-0.5-0.5-0.8-0.5s-0.7,0.2-0.8,0.5l-1.2,2.7l-1.8-5c-0.1-0.4-0.5-0.6-0.8-0.6s-0.7,0.2-0.8,0.6l-3.7,10.6H308L308,430.1
				z"/>
			<path class="st6" d="M217.3,423h9.2c0,0-2.4-7.9-3.7-12.2c-0.1-0.4-0.5-0.6-0.9-0.6c-0.4,0-0.7,0.3-0.8,0.6l-1.9,6.4l-1.1-2.4
				c-0.1-0.3-0.5-0.5-0.8-0.5c-0.3,0-0.7,0.2-0.8,0.5l-1.2,2.7l-1.8-5.1c-0.1-0.3-0.5-0.6-0.8-0.6s-0.7,0.2-0.8,0.6l-3.7,10.7H217.3
				L217.3,423z"/>
		</g>
		<g>
			<path class="st6" d="M809.7,497.6l6.4-2c0,0,14-68.5-40.6-124.7c-0.6-0.6-1.6-0.7-2.2-0.1c-0.7,0.5-0.9,1.5-0.4,2.2
				c9.2,15.1,21.9,42.9,22.8,81.4c-8.8-17.5-22.5-36.1-43.7-52c-0.7-0.5-1.6-0.4-2.2,0.2c-0.6,0.6-0.6,1.6-0.1,2.2
				c9.2,11,22.1,29.8,30.3,56.7c-13.4-13-31.2-25.2-54.4-33.4c-0.8-0.3-1.7,0.1-2,0.9c-0.4,0.8-0.1,1.7,0.6,2.2
				c13.8,8.7,35.2,25.8,52.6,55.1c-13-12-29.9-23.1-51.6-30.7c-0.8-0.3-1.7,0.1-2.1,0.9c-0.4,0.8-0.1,1.7,0.7,2.2
				c11.5,7.3,28.3,20.3,43.6,41.4H810C809.9,499.2,809.8,498.4,809.7,497.6L809.7,497.6z M761.8,500c-8.7-5.3-18.5-10.1-29.5-14
				c-0.8-0.3-1.7,0.1-2,0.9c-0.4,0.8-0.1,1.7,0.6,2.2c4.4,2.7,9.5,6.4,15.1,10.9H761.8z"/>
			<path class="st6" d="M814.9,44V0H854v500h-50l1.3-1.4c6.2-6.5,9.6-15.3,9.6-24.5V198.8L805,175l-20.1-7.6l0.1-0.7l16.9,0.9
				l-18.3-44.1l-2.9-7.6c1.4,2.3,2.8,4.6,4.2,6.9l30,53.1V69.5L786.5,0h3L814.9,44z"/>
			<path class="st6" d="M49.1,497.6l-6.4-2c0,0-14-68.5,40.6-124.7c0.6-0.6,1.6-0.7,2.2-0.1c0.7,0.5,0.8,1.5,0.4,2.2
				C76.8,388,64,415.8,63.1,454.3c8.8-17.5,22.5-36.1,43.7-52c0.7-0.5,1.6-0.4,2.2,0.2c0.6,0.6,0.6,1.6,0.1,2.2
				c-9.2,11-22.1,29.8-30.3,56.7c13.4-13,31.2-25.2,54.4-33.4c0.8-0.3,1.7,0.1,2.1,0.9c0.4,0.8,0.1,1.7-0.7,2.2
				c-13.8,8.7-35.2,25.8-52.6,55.1c13-12,29.9-23.1,51.6-30.7c0.8-0.3,1.7,0.1,2.1,0.9c0.4,0.8,0.1,1.7-0.6,2.2
				c-11.5,7.3-28.3,20.3-43.6,41.4H48.7C48.8,499.2,48.9,498.4,49.1,497.6L49.1,497.6z M96.9,500c8.7-5.3,18.5-10.1,29.5-14
				c0.8-0.3,1.7,0.1,2.1,0.9c0.4,0.8,0.1,1.7-0.7,2.2c-4.4,2.7-9.5,6.4-15.1,10.9H96.9z"/>
			<path class="st6" d="M44.8,0v96.2L67,38.4l-1-1.2L58.6,0h2.4l10.5,26.4L81.7,0h3.3L71.1,53.1L106,32.9c0.3,0.3,0.5,0.7,0.8,1.1
				L87.9,51.6l22.8,5.4l-0.1,0.7l-29.1-0.1L67.8,70.4L66.5,71l-21.7,83.6v146.7L58.5,280l-0.5-0.8l0.3-22.3l0.7-0.1l4.5,15.5
				l13.7-21.4l4.5-6.7c-1,2.5-2.1,5-3.2,7.5l-33.7,75v147.6c0,9.2,3.5,17.9,9.6,24.5l1.3,1.4H0V0H44.8z"/>
		</g>
		<path class="st6" d="M439.2,461h9.2c0,0-2.4-7.9-3.7-12.2c-0.1-0.4-0.5-0.6-0.9-0.6c-0.4,0-0.7,0.3-0.8,0.6l-1.9,6.4l-1.1-2.4
			c-0.1-0.3-0.5-0.5-0.8-0.5s-0.7,0.2-0.8,0.5l-1.2,2.7l-1.8-5c-0.1-0.4-0.5-0.6-0.8-0.6s-0.7,0.2-0.8,0.6l-3.7,10.6H439.2
			L439.2,461z"/>
		<path class="st6" d="M165.2,482h9.2c0,0-2.4-7.9-3.7-12.2c-0.1-0.4-0.5-0.6-0.9-0.6c-0.4,0-0.7,0.3-0.8,0.6l-1.9,6.4l-1.1-2.4
			c-0.1-0.3-0.5-0.5-0.8-0.5c-0.3,0-0.7,0.2-0.8,0.5l-1.2,2.7l-1.8-5c-0.1-0.4-0.5-0.6-0.8-0.6c-0.4,0-0.7,0.2-0.8,0.6l-3.7,10.6
			H165.2L165.2,482z"/>
		<path class="st6" d="M539.2,488h9.2c0,0-2.4-7.9-3.7-12.2c-0.1-0.4-0.5-0.6-0.9-0.6c-0.4,0-0.7,0.3-0.8,0.6l-1.9,6.4l-1.1-2.4
			c-0.1-0.3-0.5-0.5-0.8-0.5s-0.7,0.2-0.8,0.5l-1.2,2.7l-1.8-5c-0.1-0.4-0.5-0.6-0.8-0.6s-0.7,0.2-0.8,0.6l-3.7,10.6H539.2
			L539.2,488z"/>
		<path class="st6" d="M614.2,436h9.2c0,0-2.4-7.9-3.7-12.2c-0.1-0.4-0.5-0.6-0.9-0.6c-0.4,0-0.7,0.3-0.8,0.6l-1.9,6.4l-1.1-2.4
			c-0.1-0.3-0.5-0.5-0.8-0.5s-0.7,0.2-0.8,0.5l-1.2,2.7l-1.8-5c-0.1-0.4-0.5-0.6-0.8-0.6s-0.7,0.2-0.8,0.6l-3.7,10.6H614.2
			L614.2,436z"/>
		<path class="st6" d="M693.2,423h9.2c0,0-2.4-7.9-3.7-12.2c-0.1-0.4-0.5-0.6-0.9-0.6c-0.4,0-0.7,0.3-0.8,0.6l-1.9,6.4l-1.1-2.4
			c-0.1-0.3-0.5-0.5-0.8-0.5s-0.7,0.2-0.8,0.5l-1.2,2.7l-1.8-5c-0.1-0.4-0.5-0.6-0.8-0.6s-0.7,0.2-0.8,0.6l-3.7,10.6H693.2
			L693.2,423z"/>
		<path class="st6" d="M677.2,482h9.2c0,0-2.4-7.9-3.7-12.2c-0.1-0.4-0.5-0.6-0.9-0.6c-0.4,0-0.7,0.3-0.8,0.6l-1.9,6.4l-1.1-2.4
			c-0.1-0.3-0.5-0.5-0.8-0.5s-0.7,0.2-0.8,0.5l-1.2,2.7l-1.8-5c-0.1-0.4-0.5-0.6-0.8-0.6s-0.7,0.2-0.8,0.6l-3.7,10.6H677.2
			L677.2,482z"/>
	</g>
	<g>
		<path class="st6" d="M596.2,161.4l-317.2,28.6c-8.4,0.8-15.8-5.4-16.5-13.8L254,84.1c-0.8-8.4,5.4-15.8,13.8-16.5l317.2-28.6
			c8.4-0.8,15.8,5.4,16.5,13.8l8.3,92.2C610.7,153.3,604.5,160.7,596.2,161.4z"/>
		<g>
			<g>
				<g>
					<path class="st8" d="M286.1,95.8V76.3c0-1.6,0.5-2.8,1.4-3.8c0.9-0.9,2.2-1.4,3.8-1.4c0.9,0,1.7,0.1,2.5,0.2
						c0.8,0.1,1.4,0.2,1.8,0.3v24.1H286.1z M295.6,80.2v24.1c-0.4,0.1-1,0.2-1.8,0.3s-1.6,0.2-2.5,0.2c-1.6,0-2.9-0.5-3.8-1.4
						c-0.9-0.9-1.4-2.2-1.4-3.8V80.2H295.6z M291.3,71.2h18.4c0.3,0.4,0.5,0.9,0.7,1.5c0.2,0.6,0.3,1.3,0.3,2.1c0,1.4-0.3,2.4-0.9,3
						c-0.6,0.6-1.4,0.9-2.5,0.9h-16.1V71.2z M291.3,83.9h16.9c0.3,0.4,0.5,0.9,0.7,1.5c0.2,0.6,0.3,1.3,0.3,2.1c0,1.4-0.3,2.4-0.9,3
						c-0.6,0.6-1.4,0.9-2.5,0.9h-14.5V83.9z M291.3,97.2H310c0.3,0.4,0.5,0.9,0.7,1.6c0.2,0.7,0.3,1.4,0.3,2.2c0,1.4-0.3,2.4-0.9,3
						s-1.4,0.9-2.5,0.9h-16.3V97.2z"/>
					<path class="st8" d="M316.7,93.8V74.3c0-0.8,0.2-1.4,0.7-1.8c0.4-0.4,1-0.8,1.7-1c1.3-0.4,2.7-0.8,4.4-1
						c1.7-0.2,3.5-0.3,5.4-0.3c5.1,0,9,1.1,11.6,3.2c2.6,2.2,3.9,5,3.9,8.7c0,2.2-0.6,4.3-1.9,6c-1.3,1.8-3,3.2-5.1,4.2
						c-2.1,1-4.5,1.5-7.2,1.5H316.7z M326.5,90.1v14.5c-0.4,0.1-1,0.2-1.9,0.3c-0.9,0.1-1.7,0.2-2.6,0.2c-1.9,0-3.3-0.3-4.1-1
						c-0.8-0.7-1.2-1.9-1.2-3.6V90.1H326.5z M329.2,86.5c1.6,0,2.8-0.4,3.9-1.1c1-0.7,1.5-1.8,1.5-3.2c0-1.4-0.5-2.5-1.4-3.2
						c-0.9-0.7-2.4-1.1-4.3-1.1c-0.5,0-0.9,0-1.3,0.1c-0.4,0-0.8,0.1-1.2,0.2v8.3H329.2z M337,89.9c0.8,1.1,1.7,2.2,2.5,3.3
						c0.9,1.1,1.7,2.1,2.4,3.1c0.8,1,1.5,1.9,2.1,2.8c0.6,0.8,1.1,1.6,1.5,2.2c-0.4,1.3-1.1,2.2-2,2.9c-1,0.7-2.1,1.1-3.3,1.1
						c-1.6,0-2.8-0.4-3.7-1.1c-0.8-0.7-1.6-1.6-2.3-2.8l-6.1-9.7L337,89.9z"/>
					<path class="st8" d="M350.7,93.8V74.3c0-0.8,0.2-1.4,0.7-1.8c0.4-0.4,1-0.8,1.7-1c1.3-0.4,2.7-0.8,4.4-1
						c1.7-0.2,3.5-0.3,5.4-0.3c5.1,0,9,1.1,11.6,3.2c2.6,2.2,3.9,5,3.9,8.7c0,2.2-0.6,4.3-1.9,6c-1.3,1.8-3,3.2-5.1,4.2
						c-2.1,1-4.5,1.5-7.2,1.5H350.7z M360.5,90.1v14.5c-0.4,0.1-1,0.2-1.9,0.3c-0.9,0.1-1.7,0.2-2.6,0.2c-1.9,0-3.3-0.3-4.1-1
						c-0.8-0.7-1.2-1.9-1.2-3.6V90.1H360.5z M363.2,86.5c1.6,0,2.8-0.4,3.9-1.1c1-0.7,1.5-1.8,1.5-3.2c0-1.4-0.5-2.5-1.4-3.2
						c-0.9-0.7-2.4-1.1-4.3-1.1c-0.5,0-0.9,0-1.3,0.1c-0.4,0-0.8,0.1-1.2,0.2v8.3H363.2z M371,89.9c0.8,1.1,1.7,2.2,2.5,3.3
						c0.9,1.1,1.7,2.1,2.4,3.1c0.8,1,1.5,1.9,2.1,2.8c0.6,0.8,1.1,1.6,1.5,2.2c-0.4,1.3-1.1,2.2-2,2.9c-1,0.7-2.1,1.1-3.3,1.1
						c-1.6,0-2.8-0.4-3.7-1.1c-0.8-0.7-1.6-1.6-2.3-2.8l-6.1-9.7L371,89.9z"/>
					<path class="st8" d="M418.4,87.9c0,3.8-0.8,7.1-2.3,9.7c-1.5,2.7-3.7,4.7-6.3,6c-2.7,1.4-5.7,2-9.1,2c-3.4,0-6.4-0.7-9.1-2
						c-2.7-1.4-4.8-3.4-6.3-6c-1.5-2.7-2.3-5.9-2.3-9.7c0-3.8,0.8-7.1,2.3-9.7c1.6-2.6,3.7-4.6,6.3-6c2.7-1.4,5.7-2,9-2
						c3.3,0,6.3,0.7,9,2c2.7,1.4,4.8,3.4,6.4,6C417.7,80.8,418.4,84,418.4,87.9z M408.4,87.9c0-3.3-0.7-5.8-2.1-7.4
						c-1.4-1.7-3.2-2.5-5.6-2.5c-2.3,0-4.1,0.8-5.5,2.5c-1.4,1.7-2.1,4.1-2.1,7.5c0,3.4,0.7,5.9,2.1,7.5s3.2,2.5,5.6,2.5
						c2.3,0,4.2-0.8,5.5-2.5C407.7,93.7,408.4,91.2,408.4,87.9z"/>
					<path class="st8" d="M424,93.8V74.3c0-0.8,0.2-1.4,0.7-1.8c0.4-0.4,1-0.8,1.7-1c1.3-0.4,2.7-0.8,4.4-1c1.7-0.2,3.5-0.3,5.4-0.3
						c5.1,0,9,1.1,11.6,3.2c2.6,2.2,3.9,5,3.9,8.7c0,2.2-0.6,4.3-1.9,6c-1.3,1.8-3,3.2-5.1,4.2c-2.1,1-4.5,1.5-7.2,1.5H424z
						 M433.8,90.1v14.5c-0.4,0.1-1,0.2-1.9,0.3c-0.9,0.1-1.7,0.2-2.6,0.2c-1.9,0-3.3-0.3-4.1-1c-0.8-0.7-1.2-1.9-1.2-3.6V90.1H433.8
						z M436.5,86.5c1.6,0,2.8-0.4,3.9-1.1c1-0.7,1.5-1.8,1.5-3.2c0-1.4-0.5-2.5-1.4-3.2c-0.9-0.7-2.4-1.1-4.3-1.1
						c-0.5,0-0.9,0-1.3,0.1c-0.4,0-0.8,0.1-1.2,0.2v8.3H436.5z M444.3,89.9c0.8,1.1,1.7,2.2,2.5,3.3c0.9,1.1,1.7,2.1,2.4,3.1
						c0.8,1,1.5,1.9,2.1,2.8c0.6,0.8,1.1,1.6,1.5,2.2c-0.4,1.3-1.1,2.2-2,2.9c-1,0.7-2.1,1.1-3.3,1.1c-1.6,0-2.8-0.4-3.7-1.1
						c-0.8-0.7-1.6-1.6-2.3-2.8l-6.1-9.7L444.3,89.9z"/>
					<path class="st8" d="M481.3,71.4c0.7-0.2,1.5-0.4,2.5-0.6c0.9-0.1,1.8-0.2,2.5-0.2c1.2,0,2.2,0.1,3.2,0.4
						c1,0.3,1.8,0.8,2.5,1.5c0.7,0.7,1,1.8,1,3.2v14.7h4.4c0.2,0.4,0.4,0.9,0.7,1.6c0.2,0.7,0.3,1.4,0.3,2.1c0,1.4-0.3,2.4-1,3
						c-0.6,0.6-1.4,0.9-2.4,0.9H493v6.5c-0.4,0.1-1,0.2-1.8,0.3c-0.8,0.1-1.6,0.2-2.4,0.2c-1.6,0-2.8-0.2-3.7-0.6
						c-0.9-0.4-1.3-1.5-1.3-3.3v-3.1h-13.2c-0.9-0.4-1.6-1.1-2.2-2c-0.6-0.9-0.9-1.9-0.9-3.2c0-0.7,0.1-1.5,0.3-2.4
						c0.2-0.9,0.5-1.6,1-2.2L481.3,71.4z M484.2,80.1H484l-6.9,10.4h7.1V80.1z"/>
					<path class="st8" d="M516.1,105.6c-2.9,0-5.5-0.7-7.8-2c-2.3-1.3-4-3.3-5.3-5.9c-1.3-2.6-1.9-5.9-1.9-9.8c0-3.8,0.6-7,1.9-9.6
						c1.3-2.6,3-4.6,5.3-6c2.3-1.4,4.8-2,7.8-2c2.9,0,5.5,0.7,7.7,2c2.3,1.4,4,3.4,5.3,6c1.3,2.6,1.9,5.8,1.9,9.6
						c0,3.9-0.6,7.2-1.9,9.8c-1.3,2.6-3.1,4.6-5.3,5.9C521.6,104.9,519,105.6,516.1,105.6z M521.5,87.9c0-2.2-0.2-4-0.6-5.5
						c-0.4-1.5-1.1-2.7-1.9-3.5c-0.8-0.8-1.8-1.2-3-1.2s-2.1,0.4-2.9,1.2c-0.8,0.8-1.4,1.9-1.8,3.5c-0.4,1.5-0.6,3.4-0.6,5.5
						c0,3.5,0.5,6,1.4,7.7c0.9,1.7,2.3,2.5,4,2.5c1.8,0,3.1-0.8,4-2.5C521.1,93.9,521.5,91.3,521.5,87.9z"/>
					<path class="st8" d="M548.8,71.4c0.7-0.2,1.5-0.4,2.5-0.6c0.9-0.1,1.8-0.2,2.5-0.2c1.2,0,2.2,0.1,3.2,0.4
						c1,0.3,1.8,0.8,2.5,1.5c0.7,0.7,1,1.8,1,3.2v14.7h4.4c0.2,0.4,0.4,0.9,0.7,1.6c0.2,0.7,0.3,1.4,0.3,2.1c0,1.4-0.3,2.4-1,3
						c-0.6,0.6-1.4,0.9-2.4,0.9h-2.1v6.5c-0.4,0.1-1,0.2-1.8,0.3c-0.8,0.1-1.6,0.2-2.4,0.2c-1.6,0-2.8-0.2-3.7-0.6
						c-0.9-0.4-1.3-1.5-1.3-3.3v-3.1h-13.2c-0.9-0.4-1.6-1.1-2.2-2c-0.6-0.9-0.9-1.9-0.9-3.2c0-0.7,0.1-1.5,0.3-2.4
						c0.2-0.9,0.5-1.6,1-2.2L548.8,71.4z M551.7,80.1h-0.2l-6.9,10.4h7.1V80.1z"/>
				</g>
			</g>
		</g>
		<g>
			<g>
				<path class="st8" d="M381.6,124.5c0.1-0.1,0.4-0.1,0.7-0.2c0.3-0.1,0.6-0.1,1-0.1c0.6,0,1,0.1,1.4,0.3s0.6,0.4,0.7,0.7
					c0.2,0.7,0.4,1.4,0.5,2c0.2,0.6,0.3,1.2,0.5,1.7c0.2,0.6,0.3,1.2,0.5,1.8h0.1c0.2-1.1,0.3-2.1,0.4-3.1c0.1-1,0.2-1.9,0.3-2.9
					c0.1-0.9,0.2-1.9,0.3-2.8c0.5-0.3,1-0.4,1.6-0.4c0.5,0,0.9,0.1,1.3,0.3s0.5,0.6,0.5,1.1c0,0.3,0,0.7-0.1,1.2
					c-0.1,0.5-0.1,1.1-0.2,1.8c-0.1,0.7-0.2,1.4-0.4,2.1s-0.3,1.4-0.4,2.1c-0.1,0.7-0.3,1.3-0.5,1.8c-0.2,0.5-0.3,1-0.4,1.2
					c-0.2,0.2-0.5,0.3-1,0.5s-0.9,0.2-1.4,0.2c-0.6,0-1.1-0.1-1.6-0.3c-0.4-0.2-0.7-0.4-0.8-0.7c-0.1-0.4-0.2-0.8-0.4-1.2
					c-0.1-0.4-0.3-0.9-0.4-1.5c-0.1-0.5-0.3-1.1-0.4-1.7c-0.1,0.6-0.2,1.1-0.4,1.7c-0.1,0.6-0.3,1.1-0.4,1.6
					c-0.1,0.5-0.2,0.9-0.4,1.3c-0.2,0.2-0.5,0.3-0.9,0.5s-0.8,0.2-1.3,0.2c-0.6,0-1.1-0.1-1.6-0.3c-0.5-0.2-0.8-0.4-1-0.7
					c-0.1-0.3-0.3-0.7-0.5-1.4c-0.2-0.6-0.4-1.3-0.5-2.1s-0.4-1.6-0.5-2.5c-0.2-0.9-0.3-1.7-0.5-2.5c-0.1-0.8-0.2-1.6-0.3-2.2
					c0.2-0.2,0.4-0.3,0.8-0.5c0.3-0.1,0.7-0.2,1.1-0.2c0.5,0,0.9,0.1,1.3,0.3s0.5,0.6,0.6,1.1c0.2,1.4,0.4,2.5,0.5,3.4
					c0.1,0.9,0.2,1.7,0.3,2.2s0.1,1,0.2,1.4c0,0.3,0.1,0.6,0.1,0.8h0.1c0.1-0.5,0.2-1,0.3-1.5c0.1-0.5,0.2-0.9,0.3-1.4
					c0.1-0.5,0.2-1,0.4-1.5C381.4,125.8,381.5,125.2,381.6,124.5z"/>
				<path class="st8" d="M393.1,130.2v-9.6c0.1,0,0.4-0.1,0.6-0.1s0.6-0.1,0.9-0.1c0.7,0,1.2,0.1,1.4,0.3c0.3,0.2,0.4,0.6,0.4,1.3
					v8.1H393.1z M396.5,128.4v5.3c-0.1,0-0.4,0.1-0.6,0.1c-0.3,0-0.6,0.1-0.9,0.1c-0.7,0-1.1-0.1-1.4-0.3s-0.5-0.6-0.5-1.3v-3.9
					H396.5z M399.3,129.6v-1.8c0-0.5-0.1-0.9-0.4-1.2s-0.6-0.3-1-0.3c-0.4,0-0.8,0.1-1.1,0.2c-0.3,0.1-0.6,0.3-0.8,0.5v-2.7
					c0.3-0.2,0.7-0.3,1.1-0.4c0.4-0.1,0.9-0.2,1.4-0.2c1.3,0,2.3,0.3,3.1,1c0.7,0.7,1.1,1.6,1.1,3v2H399.3z M402.7,128.4v5.3
					c-0.1,0-0.4,0.1-0.6,0.1c-0.3,0-0.6,0.1-0.9,0.1c-0.7,0-1.1-0.1-1.4-0.3s-0.5-0.6-0.5-1.3v-3.9H402.7z"/>
				<path class="st8" d="M414.9,128.8c0,1.1-0.2,2-0.7,2.8c-0.4,0.8-1,1.4-1.8,1.8c-0.8,0.4-1.7,0.6-2.8,0.6c-1.1,0-2-0.2-2.8-0.6
					c-0.8-0.4-1.4-1-1.8-1.8c-0.4-0.8-0.7-1.7-0.7-2.8c0-1.1,0.2-2,0.7-2.7s1.1-1.4,1.8-1.8c0.8-0.4,1.7-0.6,2.8-0.6
					c1.1,0,2,0.2,2.8,0.6c0.8,0.4,1.4,1,1.8,1.8S414.9,127.8,414.9,128.8z M409.6,126.3c-0.5,0-1,0.2-1.3,0.7
					c-0.3,0.4-0.5,1.1-0.5,1.9c0,0.8,0.2,1.5,0.5,1.9c0.3,0.4,0.7,0.6,1.3,0.6c0.6,0,1-0.2,1.3-0.7c0.3-0.4,0.5-1.1,0.5-1.9
					c0-0.8-0.2-1.4-0.5-1.8C410.6,126.6,410.2,126.3,409.6,126.3z"/>
				<path class="st8" d="M426.7,128.8c0,1.1-0.2,2-0.7,2.8c-0.4,0.8-1,1.4-1.8,1.8c-0.8,0.4-1.7,0.6-2.8,0.6c-1.1,0-2-0.2-2.8-0.6
					c-0.8-0.4-1.4-1-1.8-1.8c-0.4-0.8-0.7-1.7-0.7-2.8c0-1.1,0.2-2,0.7-2.7s1.1-1.4,1.8-1.8c0.8-0.4,1.7-0.6,2.8-0.6
					c1.1,0,2,0.2,2.8,0.6c0.8,0.4,1.4,1,1.8,1.8S426.7,127.8,426.7,128.8z M421.4,126.3c-0.5,0-1,0.2-1.3,0.7
					c-0.3,0.4-0.5,1.1-0.5,1.9c0,0.8,0.2,1.5,0.5,1.9c0.3,0.4,0.7,0.6,1.3,0.6c0.6,0,1-0.2,1.3-0.7c0.3-0.4,0.5-1.1,0.5-1.9
					c0-0.8-0.2-1.4-0.5-1.8C422.4,126.6,421.9,126.3,421.4,126.3z"/>
				<path class="st8" d="M432.1,133.9c-0.4-0.1-0.7-0.2-1-0.4v-2.9c0.2,0.2,0.5,0.3,0.8,0.5c0.3,0.1,0.6,0.2,1,0.2
					c0.7,0,1.2-0.2,1.5-0.7c0.4-0.4,0.5-1.1,0.5-1.9c0-0.6-0.1-1-0.2-1.4c-0.1-0.4-0.4-0.6-0.7-0.8c-0.3-0.2-0.6-0.3-1.1-0.3
					c-0.3,0-0.5,0-0.7,0.1c-0.2,0.1-0.4,0.1-0.5,0.2v6h-3.4v-6.5c0-0.4,0.1-0.7,0.2-0.9c0.2-0.2,0.4-0.4,0.6-0.6
					c0.4-0.3,1-0.5,1.6-0.7c0.7-0.2,1.4-0.3,2.2-0.3c1.1,0,2,0.2,2.8,0.5c0.8,0.4,1.5,0.9,1.9,1.7c0.5,0.8,0.7,1.7,0.7,2.9
					c0,1.1-0.2,2.1-0.7,2.9c-0.4,0.8-1,1.4-1.8,1.8c-0.8,0.4-1.6,0.6-2.6,0.6C432.9,134,432.5,134,432.1,133.9z M431.7,131.8v5.5
					c-0.1,0-0.4,0.1-0.6,0.1s-0.6,0.1-0.9,0.1c-0.7,0-1.1-0.1-1.4-0.3c-0.3-0.2-0.5-0.6-0.5-1.3v-4.1H431.7z"/>
				<path class="st8" d="M448.3,130.8c0,1-0.4,1.8-1.2,2.4s-1.9,0.9-3.4,0.9c-1.1,0-2.1-0.2-2.8-0.5c-0.7-0.3-1.1-0.8-1.1-1.5
					c0-0.3,0.1-0.6,0.2-0.8s0.3-0.4,0.5-0.5c0.4,0.2,0.8,0.4,1.3,0.6s1.1,0.3,1.7,0.3c0.9,0,1.3-0.2,1.3-0.7c0-0.2-0.1-0.3-0.2-0.4
					c-0.2-0.1-0.4-0.2-0.8-0.3l-0.6-0.1c-1.2-0.2-2-0.6-2.6-1.1c-0.6-0.5-0.9-1.2-0.9-2.1c0-1,0.4-1.8,1.2-2.3
					c0.8-0.6,1.9-0.8,3.2-0.8c0.7,0,1.3,0.1,1.8,0.2s1,0.3,1.3,0.6c0.3,0.3,0.5,0.6,0.5,1.1c0,0.3-0.1,0.6-0.2,0.8
					c-0.1,0.2-0.3,0.4-0.4,0.6c-0.1-0.1-0.4-0.2-0.7-0.3c-0.3-0.1-0.7-0.2-1-0.2s-0.7-0.1-1-0.1c-0.4,0-0.8,0.1-1,0.2
					c-0.2,0.1-0.4,0.3-0.4,0.5c0,0.1,0.1,0.3,0.2,0.4s0.4,0.2,0.8,0.3l0.6,0.1c1.3,0.3,2.2,0.7,2.7,1.2
					C448,129.3,448.3,130,448.3,130.8z"/>
				<path class="st8" d="M449.3,132.1c0-0.5,0.2-1,0.5-1.4s0.8-0.6,1.4-0.6c0.6,0,1.1,0.2,1.4,0.6c0.4,0.4,0.5,0.8,0.5,1.4
					s-0.2,1-0.5,1.4c-0.4,0.4-0.8,0.6-1.4,0.6c-0.6,0-1.1-0.2-1.4-0.6S449.3,132.6,449.3,132.1z"/>
				<path class="st8" d="M454.1,132.1c0-0.5,0.2-1,0.5-1.4s0.8-0.6,1.4-0.6c0.6,0,1.1,0.2,1.4,0.6c0.4,0.4,0.5,0.8,0.5,1.4
					s-0.2,1-0.5,1.4c-0.4,0.4-0.8,0.6-1.4,0.6c-0.6,0-1.1-0.2-1.4-0.6S454.1,132.6,454.1,132.1z"/>
				<path class="st8" d="M458.9,132.1c0-0.5,0.2-1,0.5-1.4s0.8-0.6,1.4-0.6c0.6,0,1.1,0.2,1.4,0.6c0.4,0.4,0.5,0.8,0.5,1.4
					s-0.2,1-0.5,1.4c-0.4,0.4-0.8,0.6-1.4,0.6c-0.6,0-1.1-0.2-1.4-0.6S458.9,132.6,458.9,132.1z"/>
			</g>
		</g>
		<g>
			<g>
				<path class="st8" d="M299,157.2v-8c0.2,0,0.4-0.1,0.7-0.1c0.3,0,0.6-0.1,0.9-0.1c0.7,0,1.2,0.1,1.4,0.3c0.3,0.2,0.4,0.7,0.4,1.3
					v6.5H299z M302.5,152.5v8.8l-1.6,0.2c-0.6,0-1-0.2-1.4-0.5c-0.3-0.3-0.5-0.8-0.5-1.4v-7.1H302.5z M300.9,158.6h6.2
					c0.1,0.1,0.2,0.3,0.3,0.6c0.1,0.2,0.1,0.5,0.1,0.8c0,0.5-0.1,0.9-0.3,1.1c-0.2,0.2-0.5,0.4-0.9,0.4h-5.4V158.6z"/>
				<path class="st8" d="M319.1,156.5c0,1.1-0.2,2-0.7,2.8c-0.4,0.8-1,1.4-1.8,1.8c-0.8,0.4-1.7,0.6-2.8,0.6c-1.1,0-2-0.2-2.8-0.6
					c-0.8-0.4-1.4-1-1.8-1.8c-0.4-0.8-0.7-1.7-0.7-2.8c0-1.1,0.2-2,0.7-2.7c0.4-0.8,1.1-1.4,1.8-1.8c0.8-0.4,1.7-0.6,2.8-0.6
					c1.1,0,2,0.2,2.8,0.6c0.8,0.4,1.4,1,1.8,1.8S319.1,155.5,319.1,156.5z M313.9,154c-0.5,0-1,0.2-1.3,0.7
					c-0.3,0.4-0.5,1.1-0.5,1.9c0,0.8,0.2,1.5,0.5,1.9s0.7,0.6,1.3,0.6c0.6,0,1-0.2,1.3-0.7c0.3-0.4,0.5-1.1,0.5-1.9
					c0-0.8-0.2-1.4-0.5-1.8C314.9,154.2,314.4,154,313.9,154z"/>
				<path class="st8" d="M330.9,156.5c0,1.1-0.2,2-0.7,2.8c-0.4,0.8-1,1.4-1.8,1.8c-0.8,0.4-1.7,0.6-2.8,0.6c-1.1,0-2-0.2-2.8-0.6
					s-1.4-1-1.8-1.8c-0.4-0.8-0.7-1.7-0.7-2.8c0-1.1,0.2-2,0.7-2.7s1.1-1.4,1.8-1.8c0.8-0.4,1.7-0.6,2.7-0.6c1.1,0,2,0.2,2.8,0.6
					c0.8,0.4,1.4,1,1.8,1.8S330.9,155.5,330.9,156.5z M325.7,154c-0.5,0-1,0.2-1.3,0.7c-0.3,0.4-0.5,1.1-0.5,1.9
					c0,0.8,0.2,1.5,0.5,1.9c0.3,0.4,0.7,0.6,1.3,0.6c0.6,0,1-0.2,1.3-0.7c0.3-0.4,0.5-1.1,0.5-1.9c0-0.8-0.2-1.4-0.5-1.8
					C326.6,154.2,326.2,154,325.7,154z"/>
				<path class="st8" d="M332.6,157.9v-9.6c0.1,0,0.4-0.1,0.6-0.1s0.6-0.1,0.9-0.1c0.7,0,1.2,0.1,1.4,0.3s0.4,0.6,0.4,1.3v8.1H332.6
					z M336,156.1v5.3c-0.1,0-0.4,0.1-0.6,0.1c-0.3,0-0.6,0.1-0.9,0.1c-0.7,0-1.1-0.1-1.4-0.3s-0.5-0.6-0.5-1.3v-3.9H336z M335,156.1
					l4.5-4.6c0.7,0,1.3,0.2,1.7,0.5c0.4,0.3,0.6,0.7,0.6,1.2c0,0.4-0.1,0.8-0.4,1.1c-0.3,0.3-0.7,0.7-1.3,1.2l-2.6,2.2L335,156.1z
					 M337.9,155.4l4.2,4.2c-0.1,0.6-0.2,1.1-0.5,1.4c-0.3,0.3-0.8,0.5-1.3,0.5c-0.4,0-0.8-0.1-1.1-0.3c-0.3-0.2-0.7-0.6-1.1-1.1
					l-2.9-3.6L337.9,155.4z"/>
				<path class="st8" d="M351.9,158.5c0,1-0.4,1.8-1.2,2.4s-1.9,0.9-3.4,0.9c-1.1,0-2.1-0.2-2.8-0.5c-0.7-0.3-1.1-0.8-1.1-1.5
					c0-0.3,0.1-0.6,0.2-0.8s0.3-0.4,0.5-0.5c0.4,0.2,0.8,0.4,1.3,0.6s1.1,0.3,1.7,0.3c0.9,0,1.3-0.2,1.3-0.7c0-0.2-0.1-0.3-0.2-0.4
					c-0.2-0.1-0.4-0.2-0.8-0.3l-0.6-0.1c-1.2-0.2-2-0.6-2.6-1.1c-0.6-0.5-0.9-1.2-0.9-2.1c0-1,0.4-1.8,1.2-2.3
					c0.8-0.6,1.9-0.8,3.2-0.8c0.7,0,1.3,0.1,1.8,0.2c0.5,0.1,1,0.3,1.3,0.6c0.3,0.3,0.5,0.6,0.5,1.1c0,0.3-0.1,0.6-0.2,0.8
					c-0.1,0.2-0.3,0.4-0.4,0.6c-0.1-0.1-0.4-0.2-0.7-0.3c-0.3-0.1-0.7-0.2-1-0.2s-0.7-0.1-1-0.1c-0.4,0-0.8,0.1-1,0.2
					c-0.2,0.1-0.4,0.3-0.4,0.5c0,0.1,0.1,0.3,0.2,0.4s0.4,0.2,0.8,0.3l0.6,0.1c1.3,0.3,2.2,0.7,2.7,1.2
					C351.7,157,351.9,157.7,351.9,158.5z"/>
				<path class="st8" d="M357.7,157.9v-9.6c0.1,0,0.4-0.1,0.6-0.1c0.3,0,0.6-0.1,0.9-0.1c0.7,0,1.2,0.1,1.4,0.3
					c0.3,0.2,0.4,0.6,0.4,1.3v8.1H357.7z M361.1,156.1v5.3c-0.1,0-0.4,0.1-0.6,0.1c-0.3,0-0.6,0.1-0.9,0.1c-0.7,0-1.1-0.1-1.4-0.3
					c-0.3-0.2-0.5-0.6-0.5-1.3v-3.9H361.1z"/>
				<path class="st8" d="M363.2,148.9c0-0.5,0.2-0.9,0.5-1.3c0.3-0.3,0.8-0.5,1.3-0.5c0.5,0,1,0.2,1.3,0.5c0.3,0.3,0.5,0.8,0.5,1.3
					c0,0.5-0.2,0.9-0.5,1.3c-0.3,0.4-0.8,0.5-1.3,0.5c-0.5,0-1-0.2-1.3-0.5C363.4,149.9,363.2,149.4,363.2,148.9z M363.4,157.9v-6.1
					c0.1,0,0.4-0.1,0.6-0.1s0.6-0.1,0.9-0.1c0.7,0,1.2,0.1,1.4,0.3s0.4,0.6,0.4,1.3v4.7H363.4z M366.8,156.1v5.3
					c-0.1,0-0.4,0.1-0.6,0.1c-0.3,0-0.6,0.1-0.9,0.1c-0.7,0-1.1-0.1-1.4-0.3s-0.5-0.6-0.5-1.3v-3.9H366.8z"/>
				<path class="st8" d="M369,157.9v-9.6c0.1,0,0.4-0.1,0.6-0.1s0.6-0.1,0.9-0.1c0.7,0,1.2,0.1,1.4,0.3c0.3,0.2,0.4,0.6,0.4,1.3v8.1
					H369z M372.4,156.1v5.3c-0.1,0-0.4,0.1-0.6,0.1c-0.3,0-0.6,0.1-0.9,0.1c-0.7,0-1.1-0.1-1.4-0.3c-0.3-0.2-0.5-0.6-0.5-1.3v-3.9
					H372.4z M371.4,156.1l4.5-4.6c0.7,0,1.3,0.2,1.7,0.5c0.4,0.3,0.6,0.7,0.6,1.2c0,0.4-0.1,0.8-0.4,1.1c-0.3,0.3-0.7,0.7-1.3,1.2
					l-2.6,2.2L371.4,156.1z M374.3,155.4l4.2,4.2c-0.1,0.6-0.2,1.1-0.5,1.4s-0.7,0.5-1.3,0.5c-0.4,0-0.8-0.1-1.1-0.3
					c-0.3-0.2-0.7-0.6-1.1-1.1l-2.9-3.6L374.3,155.4z"/>
				<path class="st8" d="M381.6,155.8l4.6-0.8c0-0.3-0.2-0.5-0.4-0.8c-0.2-0.3-0.6-0.4-1.1-0.4c-0.5,0-1,0.2-1.3,0.5
					c-0.4,0.3-0.5,0.8-0.6,1.5l0.1,1.7c0.1,0.6,0.4,1,0.9,1.3c0.5,0.2,1,0.4,1.6,0.4c0.6,0,1.1-0.1,1.6-0.2c0.5-0.1,0.9-0.3,1.2-0.5
					c0.2,0.1,0.4,0.3,0.5,0.6s0.2,0.5,0.2,0.8c0,0.4-0.2,0.8-0.5,1.1c-0.3,0.3-0.8,0.5-1.4,0.6c-0.6,0.1-1.2,0.2-2,0.2
					c-1,0-2-0.2-2.8-0.6c-0.8-0.4-1.5-1-2-1.8c-0.5-0.8-0.7-1.8-0.7-3c0-0.9,0.1-1.6,0.4-2.3c0.3-0.6,0.7-1.2,1.2-1.6
					c0.5-0.4,1-0.7,1.6-0.9c0.6-0.2,1.2-0.3,1.8-0.3c1,0,1.8,0.2,2.5,0.6c0.7,0.4,1.3,0.9,1.7,1.5c0.4,0.6,0.6,1.4,0.6,2.2
					c0,0.5-0.1,0.8-0.4,1c-0.3,0.2-0.6,0.4-1.1,0.5l-6.3,0.9L381.6,155.8z"/>
				<path class="st8" d="M395.2,156.6v-7.2c0.1,0,0.4-0.1,0.6-0.1s0.6-0.1,0.9-0.1c0.7,0,1.1,0.1,1.4,0.3c0.3,0.2,0.4,0.6,0.4,1.3
					v5.8H395.2z M398.5,156.1v1.9c0,0.3,0.1,0.6,0.3,0.7c0.2,0.2,0.5,0.2,0.9,0.2c0.2,0,0.4,0,0.6-0.1c0.2,0,0.4-0.1,0.6-0.1
					c0.1,0.1,0.2,0.3,0.3,0.5c0.1,0.2,0.1,0.4,0.1,0.7c0,0.5-0.2,0.9-0.6,1.2c-0.4,0.3-1.1,0.5-2,0.5c-1.2,0-2.1-0.3-2.7-0.8
					c-0.6-0.5-1-1.4-1-2.6v-2.2H398.5z M397.4,151.9h3.8c0.1,0.1,0.2,0.3,0.2,0.5s0.1,0.5,0.1,0.7c0,0.5-0.1,0.8-0.3,1
					c-0.2,0.2-0.5,0.3-0.8,0.3h-3V151.9z"/>
				<path class="st8" d="M403.1,157.9v-9.6c0.1,0,0.4-0.1,0.6-0.1s0.6-0.1,0.9-0.1c0.7,0,1.2,0.1,1.4,0.3c0.3,0.2,0.4,0.6,0.4,1.3
					v8.1H403.1z M406.6,156.1v5.3c-0.1,0-0.4,0.1-0.6,0.1c-0.3,0-0.6,0.1-0.9,0.1c-0.7,0-1.1-0.1-1.4-0.3s-0.5-0.6-0.5-1.3v-3.9
					H406.6z M409.3,157.3v-1.8c0-0.5-0.1-0.9-0.4-1.2s-0.6-0.3-1-0.3c-0.4,0-0.8,0.1-1.1,0.2c-0.3,0.1-0.6,0.3-0.8,0.5V152
					c0.3-0.2,0.7-0.3,1.1-0.4c0.4-0.1,0.9-0.2,1.4-0.2c1.3,0,2.3,0.3,3.1,1c0.7,0.7,1.1,1.6,1.1,3v2H409.3z M412.7,156.1v5.3
					c-0.1,0-0.4,0.1-0.6,0.1c-0.3,0-0.6,0.1-0.9,0.1c-0.7,0-1.1-0.1-1.4-0.3s-0.5-0.6-0.5-1.3v-3.9H412.7z"/>
				<path class="st8" d="M416.4,155.8l4.6-0.8c0-0.3-0.2-0.5-0.4-0.8c-0.2-0.3-0.6-0.4-1.1-0.4c-0.5,0-1,0.2-1.3,0.5
					c-0.4,0.3-0.5,0.8-0.6,1.5l0.1,1.7c0.1,0.6,0.4,1,0.9,1.3c0.5,0.2,1,0.4,1.6,0.4c0.6,0,1.1-0.1,1.6-0.2c0.5-0.1,0.9-0.3,1.2-0.5
					c0.2,0.1,0.4,0.3,0.5,0.6c0.1,0.2,0.2,0.5,0.2,0.8c0,0.4-0.2,0.8-0.5,1.1s-0.8,0.5-1.4,0.6c-0.6,0.1-1.2,0.2-2,0.2
					c-1,0-2-0.2-2.8-0.6c-0.8-0.4-1.5-1-2-1.8c-0.5-0.8-0.7-1.8-0.7-3c0-0.9,0.1-1.6,0.4-2.3c0.3-0.6,0.7-1.2,1.2-1.6
					c0.5-0.4,1-0.7,1.6-0.9c0.6-0.2,1.2-0.3,1.8-0.3c0.9,0,1.8,0.2,2.5,0.6s1.3,0.9,1.7,1.5c0.4,0.6,0.6,1.4,0.6,2.2
					c0,0.5-0.1,0.8-0.4,1c-0.3,0.2-0.6,0.4-1.1,0.5l-6.3,0.9L416.4,155.8z"/>
				<path class="st8" d="M433.6,161.5c-0.4-0.1-0.7-0.2-1-0.4v-2.9c0.2,0.2,0.5,0.3,0.8,0.5c0.3,0.1,0.6,0.2,1,0.2
					c0.7,0,1.2-0.2,1.5-0.7c0.4-0.4,0.5-1.1,0.5-1.9c0-0.6-0.1-1-0.2-1.4c-0.1-0.4-0.4-0.6-0.7-0.8c-0.3-0.2-0.6-0.3-1.1-0.3
					c-0.3,0-0.5,0-0.7,0.1c-0.2,0.1-0.4,0.1-0.5,0.2v6h-3.4v-6.5c0-0.4,0.1-0.7,0.2-0.9c0.2-0.2,0.4-0.4,0.6-0.6
					c0.4-0.3,1-0.5,1.6-0.7c0.7-0.2,1.4-0.3,2.2-0.3c1.1,0,2,0.2,2.8,0.5c0.8,0.4,1.5,0.9,1.9,1.7c0.5,0.8,0.7,1.7,0.7,2.9
					c0,1.1-0.2,2.1-0.7,2.9c-0.4,0.8-1,1.4-1.8,1.8c-0.8,0.4-1.6,0.6-2.6,0.6C434.4,161.7,434,161.7,433.6,161.5z M433.3,159.5v5.5
					c-0.1,0-0.4,0.1-0.6,0.1s-0.6,0.1-0.9,0.1c-0.7,0-1.1-0.1-1.4-0.3c-0.3-0.2-0.5-0.6-0.5-1.3v-4.1H433.3z"/>
				<path class="st8" d="M445.6,151.4c1.5,0,2.6,0.3,3.5,0.9c0.9,0.6,1.3,1.5,1.3,2.8v4.5c0,0.3-0.1,0.6-0.3,0.9
					c-0.2,0.2-0.4,0.4-0.7,0.6c-0.4,0.3-1,0.4-1.6,0.6c-0.6,0.1-1.3,0.2-2.1,0.2c-1.4,0-2.5-0.3-3.4-0.8s-1.3-1.4-1.3-2.5
					c0-0.9,0.3-1.6,0.8-2.1c0.6-0.5,1.4-0.8,2.5-0.9l2.6-0.3V155c0-0.4-0.2-0.7-0.5-0.8c-0.3-0.2-0.8-0.3-1.5-0.3
					c-0.5,0-1,0.1-1.5,0.2c-0.5,0.1-0.9,0.2-1.3,0.4c-0.2-0.1-0.3-0.3-0.4-0.6s-0.2-0.5-0.2-0.8c0-0.6,0.3-1.1,1-1.4
					c0.4-0.1,0.8-0.3,1.4-0.3C444.7,151.4,445.2,151.4,445.6,151.4z M445.8,159.2c0.2,0,0.5,0,0.8-0.1s0.5-0.1,0.6-0.2v-1.6
					l-1.4,0.1c-0.4,0-0.7,0.1-0.9,0.2c-0.2,0.1-0.4,0.3-0.4,0.6c0,0.3,0.1,0.5,0.3,0.7C444.9,159.2,445.3,159.2,445.8,159.2z"/>
				<path class="st8" d="M456.6,161c-0.8,0-1.5-0.2-2.2-0.5c-0.7-0.3-1.2-0.8-1.6-1.5c-0.4-0.7-0.6-1.6-0.6-2.8c0-1.1,0.2-2,0.6-2.7
					c0.4-0.7,1-1.3,1.8-1.6c0.8-0.4,1.7-0.6,2.7-0.6c0.8,0,1.5,0.1,2.1,0.3c0.6,0.2,1.1,0.4,1.5,0.6c0.3,0.2,0.5,0.4,0.6,0.6
					c0.2,0.2,0.2,0.5,0.2,0.9v6.3h-3.3v-5.9c-0.1-0.1-0.3-0.1-0.4-0.2c-0.2,0-0.4-0.1-0.6-0.1c-0.6,0-1,0.2-1.4,0.5
					c-0.4,0.4-0.5,0.9-0.5,1.7c0,0.8,0.2,1.4,0.5,1.7c0.3,0.3,0.7,0.5,1.2,0.5c0.4,0,0.7-0.1,1-0.2c0.3-0.1,0.5-0.3,0.7-0.5l0.1,2.7
					c-0.3,0.2-0.7,0.3-1.1,0.4C457.6,161,457.1,161,456.6,161z M458.6,159.4h3.2v1.9c0,0.9-0.2,1.7-0.7,2.3
					c-0.5,0.6-1.1,1.1-1.8,1.4s-1.6,0.4-2.6,0.4c-0.7,0-1.3-0.1-1.9-0.2s-1-0.3-1.3-0.5c-0.5-0.3-0.7-0.8-0.7-1.4
					c0-0.3,0.1-0.6,0.2-0.8c0.1-0.3,0.3-0.4,0.4-0.6c0.4,0.2,0.8,0.4,1.3,0.5c0.5,0.1,1,0.2,1.5,0.2c0.7,0,1.3-0.1,1.7-0.4
					c0.4-0.2,0.6-0.6,0.6-1.2V159.4z"/>
				<path class="st8" d="M465.4,155.8l4.6-0.8c0-0.3-0.2-0.5-0.4-0.8c-0.2-0.3-0.6-0.4-1.1-0.4c-0.5,0-1,0.2-1.3,0.5
					c-0.4,0.3-0.5,0.8-0.6,1.5l0.1,1.7c0.1,0.6,0.4,1,0.9,1.3c0.5,0.2,1,0.4,1.6,0.4c0.6,0,1.1-0.1,1.6-0.2c0.5-0.1,0.9-0.3,1.2-0.5
					c0.2,0.1,0.4,0.3,0.5,0.6c0.1,0.2,0.2,0.5,0.2,0.8c0,0.4-0.2,0.8-0.5,1.1s-0.8,0.5-1.4,0.6c-0.6,0.1-1.2,0.2-2,0.2
					c-1,0-2-0.2-2.8-0.6c-0.8-0.4-1.5-1-2-1.8c-0.5-0.8-0.7-1.8-0.7-3c0-0.9,0.1-1.6,0.4-2.3c0.3-0.6,0.7-1.2,1.2-1.6
					c0.5-0.4,1-0.7,1.6-0.9c0.6-0.2,1.2-0.3,1.8-0.3c0.9,0,1.8,0.2,2.5,0.6s1.3,0.9,1.7,1.5c0.4,0.6,0.6,1.4,0.6,2.2
					c0,0.5-0.1,0.8-0.4,1c-0.3,0.2-0.6,0.4-1.1,0.5l-6.3,0.9L465.4,155.8z"/>
				<path class="st8" d="M485.9,155.9c-0.1,0.6-0.3,1.3-0.5,1.9c-0.2,0.7-0.4,1.3-0.6,1.9c-0.2,0.6-0.3,1-0.4,1.3
					c-0.2,0.2-0.4,0.3-0.8,0.4c-0.3,0.1-0.7,0.2-1.2,0.2c-0.5,0-1-0.1-1.4-0.2c-0.4-0.2-0.7-0.4-0.8-0.7c-0.1-0.3-0.3-0.6-0.4-1.1
					c-0.1-0.5-0.3-1.1-0.5-1.7c-0.2-0.6-0.3-1.3-0.5-2c-0.1-0.7-0.3-1.4-0.4-2s-0.2-1.2-0.3-1.8c0.2-0.2,0.4-0.4,0.8-0.5
					c0.3-0.1,0.7-0.2,1-0.2c0.5,0,0.9,0.1,1.2,0.3c0.3,0.2,0.5,0.6,0.6,1.1c0.1,1,0.2,1.9,0.3,2.5c0.1,0.7,0.2,1.2,0.2,1.6
					c0.1,0.4,0.1,0.7,0.1,1c0,0.2,0.1,0.4,0.1,0.5h0.1c0.1-0.3,0.2-0.7,0.3-1.4c0.1-0.6,0.3-1.3,0.5-2.1c0.2-0.8,0.4-1.6,0.6-2.4
					c0.3-0.1,0.5-0.3,0.8-0.3c0.3-0.1,0.6-0.1,1-0.1c0.5,0,0.9,0.1,1.2,0.2c0.3,0.1,0.5,0.4,0.6,0.7c0.2,0.8,0.4,1.5,0.6,2.2
					c0.2,0.7,0.4,1.4,0.5,1.9c0.1,0.5,0.2,1,0.3,1.2h0.1c0.1-1,0.3-2.1,0.4-3.2s0.3-2.2,0.4-3.4c0.5-0.3,1-0.4,1.6-0.4
					c0.5,0,0.9,0.1,1.2,0.3c0.3,0.2,0.5,0.5,0.5,1c0,0.2,0,0.5-0.1,1c-0.1,0.4-0.2,0.9-0.3,1.4c-0.1,0.5-0.2,1.1-0.4,1.7
					s-0.3,1.2-0.4,1.7c-0.1,0.5-0.3,1-0.4,1.5c-0.1,0.4-0.2,0.8-0.3,1c-0.2,0.2-0.5,0.3-0.9,0.4c-0.4,0.1-0.8,0.2-1.3,0.2
					c-1.1,0-1.8-0.3-2-0.8c-0.1-0.3-0.2-0.7-0.4-1.3c-0.2-0.5-0.3-1.1-0.5-1.7C486.2,157.1,486,156.5,485.9,155.9z"/>
				<path class="st8" d="M498.8,151.4c1.5,0,2.6,0.3,3.5,0.9c0.9,0.6,1.3,1.5,1.3,2.8v4.5c0,0.3-0.1,0.6-0.3,0.9
					c-0.2,0.2-0.4,0.4-0.7,0.6c-0.4,0.3-1,0.4-1.6,0.6c-0.6,0.1-1.3,0.2-2.1,0.2c-1.4,0-2.5-0.3-3.4-0.8s-1.3-1.4-1.3-2.5
					c0-0.9,0.3-1.6,0.8-2.1c0.6-0.5,1.4-0.8,2.5-0.9l2.6-0.3V155c0-0.4-0.2-0.7-0.5-0.8c-0.3-0.2-0.8-0.3-1.5-0.3
					c-0.5,0-1,0.1-1.5,0.2c-0.5,0.1-0.9,0.2-1.3,0.4c-0.2-0.1-0.3-0.3-0.4-0.6s-0.2-0.5-0.2-0.8c0-0.6,0.3-1.1,1-1.4
					c0.4-0.1,0.8-0.3,1.4-0.3C497.8,151.4,498.3,151.4,498.8,151.4z M499,159.2c0.2,0,0.5,0,0.8-0.1s0.5-0.1,0.6-0.2v-1.6l-1.4,0.1
					c-0.4,0-0.7,0.1-0.9,0.2c-0.2,0.1-0.4,0.3-0.4,0.6c0,0.3,0.1,0.5,0.3,0.7C498.1,159.2,498.5,159.2,499,159.2z"/>
				<path class="st8" d="M513.9,158.5c0,1-0.4,1.8-1.2,2.4s-1.9,0.9-3.4,0.9c-1.1,0-2.1-0.2-2.8-0.5c-0.7-0.3-1.1-0.8-1.1-1.5
					c0-0.3,0.1-0.6,0.2-0.8s0.3-0.4,0.5-0.5c0.4,0.2,0.8,0.4,1.3,0.6s1.1,0.3,1.7,0.3c0.9,0,1.3-0.2,1.3-0.7c0-0.2-0.1-0.3-0.2-0.4
					c-0.2-0.1-0.4-0.2-0.8-0.3l-0.6-0.1c-1.2-0.2-2-0.6-2.6-1.1c-0.6-0.5-0.9-1.2-0.9-2.1c0-1,0.4-1.8,1.2-2.3
					c0.8-0.6,1.9-0.8,3.2-0.8c0.7,0,1.3,0.1,1.8,0.2s1,0.3,1.3,0.6c0.3,0.3,0.5,0.6,0.5,1.1c0,0.3-0.1,0.6-0.2,0.8
					c-0.1,0.2-0.3,0.4-0.4,0.6c-0.1-0.1-0.4-0.2-0.7-0.3c-0.3-0.1-0.7-0.2-1-0.2s-0.7-0.1-1-0.1c-0.4,0-0.8,0.1-1,0.2
					c-0.2,0.1-0.4,0.3-0.4,0.5c0,0.1,0.1,0.3,0.2,0.4s0.4,0.2,0.8,0.3l0.6,0.1c1.3,0.3,2.2,0.7,2.7,1.2
					C513.7,157,513.9,157.7,513.9,158.5z"/>
				<path class="st8" d="M519.7,157.9v-9.6c0.1,0,0.4-0.1,0.6-0.1c0.3,0,0.6-0.1,0.9-0.1c0.7,0,1.2,0.1,1.4,0.3s0.4,0.6,0.4,1.3v8.1
					H519.7z M523.1,156.1v5.3c-0.1,0-0.4,0.1-0.6,0.1c-0.3,0-0.6,0.1-0.9,0.1c-0.7,0-1.1-0.1-1.4-0.3s-0.5-0.6-0.5-1.3v-3.9H523.1z"
					/>
				<path class="st8" d="M535.4,156.5c0,1.1-0.2,2-0.7,2.8c-0.4,0.8-1,1.4-1.8,1.8c-0.8,0.4-1.7,0.6-2.8,0.6c-1.1,0-2-0.2-2.8-0.6
					c-0.8-0.4-1.4-1-1.8-1.8c-0.4-0.8-0.7-1.7-0.7-2.8c0-1.1,0.2-2,0.7-2.7s1.1-1.4,1.8-1.8c0.8-0.4,1.7-0.6,2.8-0.6
					c1.1,0,2,0.2,2.8,0.6c0.8,0.4,1.4,1,1.8,1.8S535.4,155.5,535.4,156.5z M530.1,154c-0.5,0-1,0.2-1.3,0.7
					c-0.3,0.4-0.5,1.1-0.5,1.9c0,0.8,0.2,1.5,0.5,1.9c0.3,0.4,0.7,0.6,1.3,0.6c0.6,0,1-0.2,1.3-0.7c0.3-0.4,0.5-1.1,0.5-1.9
					c0-0.8-0.2-1.4-0.5-1.8C531.1,154.2,530.7,154,530.1,154z"/>
				<path class="st8" d="M545.3,158.5c0,1-0.4,1.8-1.2,2.4s-1.9,0.9-3.4,0.9c-1.1,0-2.1-0.2-2.8-0.5c-0.7-0.3-1.1-0.8-1.1-1.5
					c0-0.3,0.1-0.6,0.2-0.8s0.3-0.4,0.5-0.5c0.4,0.2,0.8,0.4,1.3,0.6s1.1,0.3,1.7,0.3c0.9,0,1.3-0.2,1.3-0.7c0-0.2-0.1-0.3-0.2-0.4
					c-0.2-0.1-0.4-0.2-0.8-0.3l-0.6-0.1c-1.2-0.2-2-0.6-2.6-1.1c-0.6-0.5-0.9-1.2-0.9-2.1c0-1,0.4-1.8,1.2-2.3
					c0.8-0.6,1.9-0.8,3.2-0.8c0.7,0,1.3,0.1,1.8,0.2s1,0.3,1.3,0.6c0.3,0.3,0.5,0.6,0.5,1.1c0,0.3-0.1,0.6-0.2,0.8
					c-0.1,0.2-0.3,0.4-0.4,0.6c-0.1-0.1-0.4-0.2-0.7-0.3c-0.3-0.1-0.7-0.2-1-0.2s-0.7-0.1-1-0.1c-0.4,0-0.8,0.1-1,0.2
					c-0.2,0.1-0.4,0.3-0.4,0.5c0,0.1,0.1,0.3,0.2,0.4s0.4,0.2,0.8,0.3l0.6,0.1c1.3,0.3,2.2,0.7,2.7,1.2
					C545,157,545.3,157.7,545.3,158.5z"/>
				<path class="st8" d="M547,156.6v-7.2c0.1,0,0.4-0.1,0.6-0.1s0.6-0.1,0.9-0.1c0.7,0,1.1,0.1,1.4,0.3c0.3,0.2,0.4,0.6,0.4,1.3v5.8
					H547z M550.3,156.1v1.9c0,0.3,0.1,0.6,0.3,0.7c0.2,0.2,0.5,0.2,0.9,0.2c0.2,0,0.4,0,0.6-0.1c0.2,0,0.4-0.1,0.6-0.1
					c0.1,0.1,0.2,0.3,0.3,0.5c0.1,0.2,0.1,0.4,0.1,0.7c0,0.5-0.2,0.9-0.6,1.2c-0.4,0.3-1.1,0.5-2,0.5c-1.2,0-2.1-0.3-2.7-0.8
					c-0.6-0.5-1-1.4-1-2.6v-2.2H550.3z M549.2,151.9h3.8c0.1,0.1,0.2,0.3,0.2,0.5s0.1,0.5,0.1,0.7c0,0.5-0.1,0.8-0.3,1
					c-0.2,0.2-0.5,0.3-0.8,0.3h-3V151.9z"/>
			</g>
		</g>
	</g>
</g>
</svg>
