<?xml version="1.0" encoding="utf-8"?>
<!-- Generator: Adobe Illustrator 27.1.1, SVG Export Plug-In . SVG Version: 6.00 Build 0)  -->
<svg version="1.1" id="Layer_1" xmlns="http://www.w3.org/2000/svg" xmlns:xlink="http://www.w3.org/1999/xlink" x="0px" y="0px"
	 viewBox="0 0 500 349" style="enable-background:new 0 0 500 349;" xml:space="preserve">
<style type="text/css">
	.st0{fill:#032442;}
	.st1{fill:#0B6060;}
	.st2{fill:#10949B;}
	.st3{fill:#6D431B;}
	.st4{fill:#B4763B;}
	.st5{opacity:0.38;}
	.st6{fill:#F2F2F2;}
	.st7{enable-background:new    ;}
	.st8{fill:#436BE1;}
	.st9{fill:#17CECE;}
	.st10{fill:#FFF7BB;}
</style>
<g id="OBJECTS">
	<path class="st0" d="M140.9,76.5c0,0-14.2,16.1-15.4,2.8c-1.1-13.3,20.8-14.5,20.8-14.5c-0.6-3.2-10.1-12.5-10.1-12.5
		c-19.8-11.6-22.4,12.3-27.6,22.9c-5.2,10.6-8.1,3.7-8.1,3.7c-8.2-17.4,23.1-32.6,23.1-32.6c-10.5-8.8-18.8-5.3-18.8-5.3
		C71.9,52,92.2,70.9,86,83.2c-6.1,12.4-8.9,3-8.9,3c-5.3-22.7,12.3-43,12.3-43c-10.2-7.1-21-1.3-21-1.3C50,60.7,67.7,90.6,54.8,84.7
		c-12.9-5.8,5.2-38,5.2-38s-8-7.7-18.2,3.4s8,38.9-1.3,34S27.9,58.3,27.9,58.3c-29.6,24.9,10.3,52.5,10.3,52.5l-0.1,0.1
		c0,0-20.6,39.7,19.3,50.7c0,0-8.3-19.9-2.6-27.8c5.6-7.9,4.4,23.7,19.5,29.8c15.1,6.1,18.1-3.9,18.1-3.9S58.8,138,67.1,127.9
		c8.3-10.1,8.7,23.2,35.3,33c0,0,12.8,1,18-9.1c0,0-26.7-11.4-34.2-33.6c0,0-2.7-9.4,9.5-0.7c12.2,8.7,4.3,33.1,39.6,30.3
		c0,0,9.3,0,13.9-11.8c0,0-36.1-1.6-38.2-20.3c0,0-1.1-7.2,9.2,0.2c10.3,7.5,25.6,27.8,36.9,9.9c0,0,3.5-11.8,2.3-14.9
		c0,0-20.2,7.3-26.4-5c-6.2-12.3,15.2-3.3,15.2-3.3s14,13.6,19.7-3.8l4.4-14.8l0.2,0l-12.1-11.6C146,59.1,140.9,76.5,140.9,76.5z"/>
	<g>
		<g>
			<path class="st1" d="M165.1,263.9c-6.8-14.5-36.5-22.6-36.5-22.6c-51.2-15.4-40.3-85.4-40.3-85.4l13.5,5.5l-10.9-8.2l0-7.2
				c3.6-14.9,15.6-7.8,15.6-7.8c11.9-7.2,25.5,10.8,28.1,17.6c2.6,6.8,8.3,8.6,8.3,8.6l3.1,13.9l0-10.8
				c33.8,24.2,21.9,60.8,14.6,68.5c-7.3,7.7,0,17.9,0,17.9L165.1,263.9z"/>
		</g>
		<g>
			<path class="st2" d="M106.4,138.3c14.4,35.8,28.2,73.2,47.7,106.6c3,5.1,7,9,10.7,13.6c3,3.6,7.7,11.6,4.9,16.4
				c-3.1,5.3-9.6-15.9-10.7-18.3c-3.1-6.4-8.4-11.6-10.9-18.3C144.1,227.7,111.3,158.7,106.4,138.3z"/>
		</g>
		<g>
			<path class="st2" d="M111.9,137.7c-0.1,0,0-0.2,0.1-0.1s0,0.2,0,0.3c-1,1.8-2.2,3.5-3.5,5.2"/>
		</g>
		<g>
			<path class="st2" d="M114.4,136.9c-0.2,3.3-1.8,6.5-4.2,8.8"/>
		</g>
		<g>
			<path class="st2" d="M119,138.8c0,5-2.2,9.9-5.8,13.3"/>
		</g>
		<g>
			<path class="st2" d="M123.7,141.5c-0.5,5.7-3.7,10.8-7.8,14.8"/>
		</g>
		<g>
			<path class="st2" d="M128.1,146.2c-0.5,2.5-1.9,4.8-3.4,7c-2.3,3.4-4.8,6.9-8.4,9.1"/>
		</g>
		<g>
			<path class="st2" d="M133.1,152.4c-2.8,6.4-6.8,12.7-13,15.9"/>
		</g>
		<g>
			<path class="st2" d="M136.4,159.9c-2.2,6.6-7.6,12-14.2,14.4"/>
		</g>
		<g>
			<path class="st2" d="M141.2,164c-1.4,3.8-2.9,7.7-5.4,10.9c-2.5,3.2-6.2,5.8-10.3,6.2"/>
		</g>
		<g>
			<path class="st2" d="M143,168.6c-0.7,4.3-2,8.5-4.3,12.1c-2.3,3.6-5.7,6.7-9.8,8.2"/>
		</g>
		<g>
			<path class="st2" d="M146,178.8c0.5,1.7,0.2,3.6-0.5,5.2c-0.7,1.6-1.8,3.1-3,4.5c-3,3.8-6.5,7.7-11.2,9"/>
		</g>
		<g>
			<path class="st2" d="M153,174c0.4,5.7,0.8,11.8-1.7,17c-2.9,6.1-9.1,9.9-14.9,13.3"/>
		</g>
		<g>
			<path class="st2" d="M160,181.6c-0.6,6.8-2.1,13.7-5.4,19.7s-8.6,11.1-15.1,13.4"/>
		</g>
		<g>
			<path class="st2" d="M164.4,188.9c0.7,5.4-1.5,10.8-4.1,15.5c-4,7.3-9.8,14.3-17.9,16.3"/>
		</g>
		<g>
			<path class="st2" d="M168.2,203.4c-1,7.7-6.8,13.9-12.5,19.2c-2.7,2.5-5.5,5-9.1,5.8"/>
		</g>
		<g>
			<path class="st2" d="M167.8,220.9c-3.4,3-6.5,6.4-9.4,9.9c-2,2.6-4.3,5.5-7.6,5.8"/>
		</g>
		<g>
			<path class="st2" d="M107.4,143.4c-1,0.3-2,0.4-3,0.2c-0.5-0.1-1-0.3-1.5-0.5c-2.1-0.9-3.9-2.4-5.2-4.2"/>
		</g>
		<g>
			<path class="st2" d="M108.9,146c-2.8,0.7-5.8,0.6-8.5-0.4c-2.7-1-5.1-2.8-6.7-5.2"/>
		</g>
		<g>
			<path class="st2" d="M111.6,152.9c-1.5-0.3-3,0.1-4.6,0.3c-5.5,0.6-11-2.8-13.9-7.5"/>
		</g>
		<g>
			<path class="st2" d="M113.2,157c-1.9,1.6-4.5,2-7,2c-1.6,0-3.3-0.2-4.6-1"/>
		</g>
		<g>
			<path class="st2" d="M115,162.2c-2.3,0.9-4.9,1-7.4,1c-0.5,0-1.1,0-1.6-0.1c-0.5-0.1-0.9-0.3-1.4-0.6c-0.9-0.4-1.8-0.9-2.7-1.3"
				/>
		</g>
		<g>
			<path class="st2" d="M117.4,169.6c-2.4,0.8-4.9,1.5-7.4,1.5c-1.3,0-2.7-0.2-4-0.4c-2.8-0.5-5.6-0.9-8.2-1.9
				c-2.6-0.9-5.2-2.4-7-4.5"/>
		</g>
		<g>
			<path class="st2" d="M119.8,174.6c-2.6,1.1-5.3,1.9-8.1,2.1c-5.3,0.4-10.6-1.1-15.7-2.7c-2.5-0.7-5.1-1.6-6.6-3.6"/>
		</g>
		<g>
			<path class="st2" d="M122.3,181.1c-4.7,3.2-10.6,3.6-16.2,3.7c-2.8,0-5.5-0.1-8.2-0.8c-2.7-0.7-5.2-2.1-6.9-4.3"/>
		</g>
		<g>
			<path class="st2" d="M126.8,189.8c-5.4,3.8-12,5.9-18.6,5.7c-6.6-0.2-13.1-2.7-17.9-7.3"/>
		</g>
		<g>
			<path class="st2" d="M130.3,197.9c-1.6,1.4-3.2,2.8-5.1,3.9c-1.7,1-3.6,1.6-5.5,2.1c-4.6,1.3-9.5,1.8-14.3,1.3
				c-4.8-0.5-9.5-2.3-13.2-5.3"/>
		</g>
		<g>
			<path class="st2" d="M133.5,206.5c-5.6,4.7-13,6.5-20.3,7.5c-5.1,0.6-10.5,0.9-15-1.5"/>
		</g>
		<g>
			<path class="st2" d="M138.2,215.5c-0.3,0.8-1,1.3-1.6,1.8c-8.7,6.2-20.5,7.3-30.9,4.7"/>
		</g>
		<g>
			<path class="st2" d="M140.8,221.8c-7.4,7.4-19,10.3-29,7.3"/>
		</g>
		<g>
			<path class="st2" d="M144.1,229.2c-4.8,4.9-12,7.3-18.7,6.4"/>
		</g>
		<g>
			<path class="st2" d="M147.2,237.1c-2,2-5,2.9-7.8,3.3c-2.5,0.4-5.1,0.7-7.7,0.6"/>
		</g>
	</g>
	<path class="st0" d="M363,131.7c0,0,5.5-22.9,12.8-10.8s-12.4,24.8-12.4,24.8c2,2.8,15.1,6.6,15.1,6.6
		c23.7,0.7,14.8-23.5,14.6-36.4c-0.2-12.8,5.7-7.8,5.7-7.8c15.7,12.3-6,43.3-6,43.3c13.8,2.9,19.7-4.9,19.7-4.9
		c25.2-27.8-2.2-35.1-2.4-50.2s6.7-7.5,6.7-7.5c15.5,18.9,8.8,47.6,8.8,47.6c12.7,1.4,19.9-9.8,19.9-9.8
		c8.1-27.7-22.1-46.9-7.5-48.1s13,39.1,13,39.1s11,3.2,15.1-12.9c4.1-16-25.6-32.9-14.8-33.1c10.9-0.2,23.7,17.9,23.7,17.9
		c15.5-39.4-34.1-44.8-34.1-44.8l0-0.1c0,0,0.3-48.8-41.5-38.3c0,0,16.9,14.6,15.4,25.2C413.7,42,400,11.1,383.3,13.2
		c-16.7,2.1-14.8,13.2-14.8,13.2s41.1,3.2,38.2,17.2c-2.9,14-18.9-17.6-47.9-12.9c0,0-12.2,5.8-12.3,18.2c0,0,29.8-3.2,47.2,14.1
		c0,0,6.8,7.6-8.4,5.7c-15.2-1.9-19.5-29.4-50.6-8.1c0,0-8.5,4.9-7.2,18.6c0,0,33.9-17.5,44.6-0.8c0,0,4.4,6.3-8.6,4.6
		c-13-1.7-36.5-13.1-38.6,10c0,0,2.3,13.2,4.9,15.5c0,0,15.1-17.6,26.6-9.1c11.4,8.5-12.4,11.2-12.4,11.2s-19.2-5.6-16.3,14
		l2.9,16.4l-0.1,0.1l16.5,4.7C366.4,151,363,131.7,363,131.7z"/>
	<g>
		<g>
			<polygon class="st3" points="272.6,264.2 266.4,263.6 278.2,100.4 284.4,101 			"/>
		</g>
		<g>
			<g>
				<polygon class="st3" points="199,107.7 202,109.7 363.3,117.9 360.5,114.6 				"/>
			</g>
			<g>
				<polygon class="st3" points="360.6,72.6 362.4,74.4 361.8,96 353.9,97.6 360,94.2 				"/>
			</g>
			<g>
				<polygon class="st3" points="359.9,97.9 361.7,98 361.4,109.2 357.5,109 361.2,115.9 359.3,115.8 349.2,107.9 353.7,103.4 				
					"/>
			</g>
			<g>
				<polygon class="st4" points="200.2,64.5 203.4,71.8 199.9,74 199.7,82.7 201.3,85.5 199.5,87.8 199,107.7 359.3,115.8 
					354.6,107.1 359.6,108.4 359.9,97.9 353.9,97.6 360,94.2 360.6,72.6 				"/>
			</g>
			<g class="st5">
				<g>
					<path class="st3" d="M227.8,65.4c-0.2,1.2-0.7,2.4-1.5,3.5c-0.4,0.5-0.9,1-1.6,1.4c-0.6,0.4-1.4,0.6-2.1,0.6
						c-1.4,0-2.5-0.7-3.7-0.8c-1.2-0.2-2.2,0.2-3.1,0.9c-0.9,0.7-1.8,1.5-3.1,2.1c-1.3,0.6-2.8,0.7-4,0.5c-1.3-0.2-2.4-0.5-3.5-0.8
						c-1.2-0.4-2.3-0.7-3.4-1.3l0-0.2c2.4-0.4,4.9-0.3,7.2-0.2c1.1,0.1,2.1,0.1,3-0.1c1-0.3,2.1-0.8,3.3-1.1
						c1.2-0.4,2.5-0.6,3.8-0.5c1.2,0,2.5-0.1,3.4-0.4c0.5-0.1,0.9-0.3,1.3-0.5c0.4-0.2,0.8-0.5,1.2-0.8c0.8-0.7,1.6-1.5,2.6-2.3
						L227.8,65.4z"/>
				</g>
				<g>
					<path class="st3" d="M239.6,66.7c-0.9,1.8-2.5,3.2-4.5,3.9c-1,0.4-2.1,0.5-3.1,0.5c-1,0-1.8-0.1-2.6,0.1
						c-0.7,0.1-1.4,0.4-1.7,1c-0.2,0.3-0.3,0.6-0.2,1.1c0,0.4,0.2,1,0.1,1.5c-0.1,0.6-0.5,1.1-1,1.4c-0.5,0.3-1.1,0.4-1.6,0.3
						c-1.1-0.1-2-0.7-2.8-0.9c-1.7-0.4-3.4,0-5.1,0.5c-1.7,0.5-3.5,1.3-5.5,1.7c-4,0.8-8.2,0-11.4-2.2l0.1-0.2
						c3.7,0.8,7.4,0.8,10.8,0c1.7-0.4,3.5-1,5.5-1.4c1-0.2,2-0.3,3-0.3c1,0,2.1,0.3,3,0.8c0.9,0.5,1.6,1.1,2.4,1.3
						c0.8,0.2,1.7-0.3,1.7-1c0-0.4-0.1-0.8-0.3-1.2c-0.2-0.5-0.2-1.1,0-1.7c0.4-1.2,1.3-2.1,2.5-2.4c1.1-0.4,2.2-0.3,3.1-0.2
						c0.9,0,1.7,0,2.5-0.2c1.7-0.3,3.3-1.1,4.8-2.3L239.6,66.7z"/>
				</g>
				<g>
					<path class="st3" d="M252.4,66.9c0.7-0.1,1.2,0.5,1.4,1.1c0.2,0.6,0.3,1.3,0,2c-0.3,0.6-0.8,1.1-1.3,1.4
						c-0.5,0.3-1.1,0.6-1.6,0.7c-0.5,0.2-1,0.3-1.3,0.6c-0.4,0.2-0.6,0.4-0.8,0.7c-0.2,0.2-0.3,0.5-0.7,0.8
						c-0.2,0.1-0.5,0.3-0.7,0.4c-0.3,0.1-0.5,0.1-0.6,0.1c-0.3,0-0.3,0-0.3,0c0,0-0.1,0.1-0.3,0.2c-0.3,0.3-0.5,0.8-0.9,1.3
						c-0.4,0.5-0.9,0.9-1.4,1.2c-1,0.6-2.1,1-3.2,1.3c-2.2,0.5-4.4,0.3-6.5,0.3l-6.3-0.1c-2.1,0-4.2,0.1-6.3,0.1
						c-4.2,0.1-8.4,0.3-12.7,0.4l0-0.2c4-1.6,8.3-2.4,12.7-2.7c2.2-0.1,4.3,0,6.5,0.2c2.2,0.2,4.3,0.5,6.4,1
						c2.1,0.5,4.2,0.9,6.2,0.3c1-0.3,1.9-0.8,2.5-1.5c0.3-0.4,0.6-0.7,0.8-1.1c0.2-0.4,0.3-0.9,0.7-1.5c0.2-0.3,0.5-0.6,0.9-0.9
						c0.2-0.1,0.5-0.2,0.7-0.2c0.2,0,0.4,0,0.5,0c0.3,0,0.1,0,0.1,0c0,0,0.2-0.2,0.3-0.4c0.4-0.5,1-1,1.6-1.3
						c0.6-0.3,1.2-0.4,1.7-0.5c1-0.2,1.9-0.4,2.4-1c0.4-0.5,0.6-1.8-0.3-2.2L252.4,66.9z"/>
				</g>
				<g>
					<path class="st3" d="M260.2,67.7c0.7,0.3,1.1,1.1,1.1,1.9c0,0.8-0.3,1.5-0.7,2.1c-0.2,0.3-0.6,0.6-0.9,0.8
						c-0.3,0.2-0.7,0.4-1,0.5c-0.7,0.3-1.3,0.5-1.9,0.7c-0.6,0.2-1,0.5-1.4,0.8c-0.4,0.4-0.8,0.9-1.4,1.4c-1.1,1.1-2.5,1.7-3.7,2.1
						c-2.6,0.9-5.3,1.3-7.9,1.7c-2.6,0.4-5.2,0.9-7.9,1.5c-1.3,0.3-2.7,0.6-4.1,0.6c-1.5,0-2.8-0.4-4.1-0.6c-2.5-0.5-5-0.5-7.5-0.3
						c-2.6,0.2-5.2,0.6-7.9,0.7c-2.7,0.1-5.5-0.1-8.1-1l0.1-0.2c5.3,0.3,10.3-1.3,15.7-1.9c1.4-0.1,2.8-0.2,4.1-0.1
						c1.4,0.1,2.8,0.3,4.1,0.7c1.3,0.4,2.5,0.7,3.7,0.9c1.2,0.2,2.5,0.1,3.8,0.1c2.7-0.2,5.3-0.4,7.9-1c2.6-0.6,5-1.7,7.3-2.8
						c1.2-0.6,2.2-1.1,3.1-1.9c0.4-0.4,0.8-0.9,1.4-1.4c0.6-0.5,1.4-0.9,2.1-1.1c0.7-0.2,1.4-0.3,1.9-0.5c0.3-0.1,0.6-0.2,0.8-0.3
						c0.2-0.1,0.4-0.2,0.6-0.4c0.4-0.4,0.7-0.9,0.9-1.4c0.1-0.5,0.1-1.1-0.4-1.6L260.2,67.7z"/>
				</g>
				<g>
					<path class="st3" d="M269.8,68.2c0.6,0.6,0.9,1.6,0.7,2.5c-0.2,0.9-0.6,1.7-1.2,2.4c-0.3,0.3-0.6,0.6-1,0.9
						c-0.4,0.3-0.8,0.4-1.2,0.6c-0.8,0.3-1.5,0.6-2.2,1c-0.7,0.3-1.2,0.7-1.6,1.2c-0.4,0.4-0.6,1.1-1.2,2c-0.3,0.4-0.8,0.9-1.4,1.1
						c-0.5,0.2-1,0.3-1.5,0.3c-0.9,0.1-1.6,0-2.4,0c-1.5,0.1-3.1,0.3-4.5,0.8c-1.5,0.5-2.9,1.2-4.4,1.9c-2.9,1.5-6.3,2.1-9.6,1.9
						c-3.3-0.1-6.5-0.8-9.7-1.4c-3.1-0.5-6.2-0.6-9.3-0.3c-6.2,0.5-12.4,2.3-18.7,3.8l-0.1-0.2c5.8-2.9,11.9-5.3,18.6-6
						c3.3-0.3,6.7-0.1,10,0.7c3.2,0.7,6.3,1.7,9.4,2.3c1.6,0.2,3.1,0.4,4.7,0.2c1.6-0.2,3.1-0.7,4.5-1.5c1.4-0.8,2.7-1.7,4.2-2.5
						c1.5-0.7,3.1-1.3,4.8-1.5c0.8-0.1,1.8-0.2,2.4-0.2c0.7-0.1,1.1-0.2,1.4-0.6c0.3-0.4,0.6-1.3,1.4-2.1c0.7-0.7,1.6-1.2,2.4-1.5
						c1.6-0.7,3.2-0.8,4.2-1.7c0.5-0.5,1-1,1.3-1.7c0.3-0.7,0.3-1.4-0.1-2.1L269.8,68.2z"/>
				</g>
				<g>
					<path class="st3" d="M293.2,69.1c1,0.6,1.3,1.9,1.1,3c-0.2,1.2-1.1,2.1-2.1,2.7c-1,0.6-2,0.9-3,1.2c-1,0.3-2,0.5-3.1,0.7
						c-4.1,0.8-8.1,1.4-11.5,3.1c-0.4,0.2-0.8,0.4-1.3,0.7c-0.5,0.3-1.1,0.5-1.7,0.6c-1.3,0.2-2.2-0.1-2.9,0.2
						c-0.8,0.3-1.6,1.1-2.5,1.6c-0.9,0.5-1.9,1-2.9,1.3c-4,1.4-8.2,1.6-12.4,1.7c-4.1,0.1-8.2,0-12.3,0.3c-4,0.3-8,1.1-12,1.9
						c-4,0.7-8.2,1.5-12.4,1.7c-2.1,0.1-4.2,0-6.3-0.3c-2.1-0.3-4.1-0.9-6-1.7l0.1-0.2c2,0.4,4,0.7,6.1,0.7c2,0,4-0.1,6-0.4
						c4-0.5,8-1.4,12-2.3c4-0.8,8.2-1.5,12.4-1.6c4.2-0.2,8.3,0.2,12.4,0.6c4.1,0.3,8.3,0.5,12-1.1c0.9-0.4,1.8-0.9,2.6-1.4
						c0.4-0.3,0.8-0.6,1.2-1c0.4-0.3,0.8-0.7,1.3-1c1.2-0.6,2.4-0.4,3.2-0.7c0.7-0.2,1.4-0.9,2.4-1.4c1.9-1.1,4-1.8,6-2.3
						c2.1-0.5,4.1-0.7,6.2-1c2-0.3,4.1-0.5,5.8-1.2c0.8-0.4,1.6-0.9,1.9-1.8c0.3-0.8,0.3-1.9-0.5-2.6L293.2,69.1z"/>
				</g>
				<g>
					<path class="st3" d="M355.8,77c-6.7-0.9-13.4-1.6-20.1-2c-6.7-0.4-13.4-0.5-20.1-0.4c-6.7,0.1-13.4,0.4-20.1,1.4
						c-3.3,0.6-6.6,1.5-9.1,3.7c-0.6,0.5-1.2,1.1-1.6,1.8c-0.5,0.7-0.9,1.4-1.4,2.1c-0.9,1.4-2.3,2.8-3.9,3.5
						c-1.6,0.8-3.4,1.2-5.1,1.4c-1.7,0.2-3.4,0.3-5.1,0.5c-3.4,0.2-6.7,0.4-10.1,0.5c-6.7,0.2-13.6,0.2-20.3,0
						c-3.3-0.1-6.6,0-9.8,0.6c-3.3,0.5-6.5,1.4-9.9,1.9c-3.4,0.6-6.9,0.7-10.3,0c-1.7-0.3-3.3-0.7-4.9-0.6c-1.6,0.1-3.2,0.9-3.9,2.4
						l-0.2-0.1c0.6-1.7,2.3-2.8,4-3.1c1.8-0.3,3.5,0,5.2,0.2c3.3,0.5,6.5,0,9.8-0.7c3.2-0.7,6.5-1.6,9.9-2.3
						c3.4-0.7,6.9-0.9,10.3-0.8c6.8,0.2,13.4,0.3,20.2,0.3c3.4,0,6.7-0.1,10.1-0.2c3.4-0.2,6.8,0.1,9.7-1.2c1.5-0.6,2.6-1.6,3.6-3
						c1-1.3,2-2.8,3.4-3.9c2.7-2.2,6.1-3.2,9.4-3.8c6.7-1.2,13.4-2.2,20.1-2.6c6.8-0.4,13.6-0.2,20.3,0.5c6.7,0.7,13.4,1.9,20,3.6
						L355.8,77z"/>
				</g>
				<g>
					<path class="st3" d="M198.1,95.4c1.7-1.1,3.6-1.8,5.6-2.4c1.9-0.6,3.9-1,5.9-1.4c3.9-0.7,7.9-1.4,11.9-1.9c8-1,16-1.5,24-1.6
						c8-0.1,16,0.1,24.1,0.3c8,0.2,16,0.8,24,1.6c8,0.8,15.9,2,23.8,3.5c4,0.8,7.9,1.7,11.8,3c1,0.4,1.9,0.7,2.9,1.1
						c0.5,0.2,0.9,0.4,1.5,0.7c0.5,0.3,1.1,0.7,1.6,1.4c0.4,0.7,0.6,1.6,0.4,2.4c-0.2,0.8-0.7,1.4-1.2,1.9c-1,0.9-2.1,1.4-3.3,1.6
						c-8.3,1.5-16.3-0.2-24.2-0.2c-2,0-3.9,0-5.9,0.3c-1,0.1-1.9,0.3-2.9,0.5c-0.5,0.1-0.9,0.3-1.4,0.4c-0.5,0.1-1,0.3-1.3,0.4
						c-0.8,0.4-1.5,1-1.5,1.7c0,0.3,0.2,0.8,0.3,1.4c0.1,0.6-0.1,1.3-0.5,1.7c-0.8,0.9-2.1,1.1-3.1,0.9c-1-0.1-2-0.4-2.9-0.1
						l-0.1-0.2c1-0.4,2.1-0.2,3-0.2c1,0.1,1.9-0.2,2.4-0.9c0.3-0.3,0.3-0.7,0.3-1.1c-0.1-0.4-0.4-0.8-0.4-1.5
						c-0.1-0.6,0.2-1.3,0.6-1.7c0.4-0.4,0.9-0.8,1.4-1c0.5-0.3,1-0.4,1.5-0.6c0.5-0.2,1-0.4,1.5-0.5c1-0.3,2-0.6,3-0.7
						c2-0.4,4.1-0.6,6.1-0.6c8.1-0.2,16.1,1.1,23.7-0.4c0.7-0.2,1.5-0.5,2-1c0.2-0.2,0.4-0.5,0.4-0.6c0-0.1,0-0.3-0.1-0.5
						c-0.2-0.3-0.9-0.7-1.9-1.1c-0.9-0.4-1.8-0.8-2.7-1.1c-3.7-1.4-7.5-2.3-11.4-3.2c-7.8-1.6-15.7-3.1-23.5-4.4
						c-7.9-1.3-15.9-2.1-23.8-2.2c-4-0.1-8,0.1-12,0.3c-4,0.2-8,0.4-12,0.6c-8,0.4-16,0.7-23.9,1.4c-4,0.4-7.9,0.7-11.9,1.3
						c-3.9,0.5-7.9,1.1-11.5,2.7L198.1,95.4z"/>
				</g>
				<g>
					<path class="st3" d="M228.5,104.3c-2.4,0.5-4.8,0.8-7.3,1.1c-0.7,0-1.4,0-2.2-0.4c-0.8-0.4-1.4-1.3-1.5-2.1
						c-0.1-0.9,0-1.7,0.4-2.4c0.2-0.4,0.4-0.7,0.7-1c0.3-0.3,0.6-0.5,0.9-0.7c0.7-0.4,1.3-0.6,2-0.7c0.6-0.1,1.2-0.2,1.9-0.3
						c1.2-0.2,2.5-0.2,3.7-0.3c2.5-0.1,4.9-0.3,7.3-0.6l7.3-0.8c2.4-0.3,4.9-0.3,7.3-0.4c2.4-0.1,5-0.2,7.5,0.4
						c1.3,0.3,2.5,0.7,3.7,1.4c1.2,0.7,2.2,1.6,3,2.7l0.6,0.9l-0.9,0.5c-1.4,0.8-2.9,1.5-4.5,1.9c-1.6,0.5-3.2,0.7-4.8,0.7l0-0.2
						c1.5-0.4,3-1,4.3-1.7c1.4-0.7,2.7-1.5,3.9-2.4l-0.2,1.4c-1.4-1.6-3.5-2.5-5.7-2.9c-1.1-0.2-2.2-0.4-3.4-0.4
						c-1.2-0.1-2.3-0.1-3.6-0.1c-2.4,0-4.8-0.1-7.3-0.2c-2.4-0.1-4.9-0.2-7.3-0.1c-2.4,0.1-4.8,0.4-7.2,1c-1.2,0.3-2.3,0.6-3.5,0.9
						c-1.2,0.3-2.3,0.6-3.1,1c-0.2,0.1-0.4,0.2-0.5,0.4c-0.1,0.1-0.3,0.3-0.4,0.4c-0.2,0.3-0.3,0.8-0.3,1.1c0,0.3,0.2,0.6,0.4,0.8
						c0.3,0.2,0.8,0.3,1.3,0.3c2.4,0.1,4.8,0.1,7.3,0.4L228.5,104.3z"/>
				</g>
				<g>
					<path class="st3" d="M255.3,105.7c1.7,0.2,3.5,0.5,5.2,0.4c1.7-0.1,3.3-0.7,4.5-1.7c0.6-0.5,1-1.1,1.4-1.8
						c0.2-0.4,0.4-0.8,0.8-1.3c0.4-0.4,1-0.8,1.5-0.9c1.2-0.3,2.1,0,3,0.2c0.9,0.2,1.7,0.4,2.5,0.6c3.3,0.7,6.7,1,10.1,0.7
						c1.6-0.1,3-0.6,3.5-1.8c0.3-0.6,0.3-1.2,0-1.7c-0.3-0.5-0.9-0.8-1.2-0.7l-4.5,2.1l3.6-3.3l1.8-1.7l0.4,1.1
						c-8-1.3-16.1-2.1-24.1-2.5c-4-0.2-8.1-0.3-12.1-0.5c-4-0.1-8.1-0.4-12.1-0.3c-8,0.1-15.8,1.7-23.7,3.5l-5.9,1.4
						c-1.8,0.4-3.7,1.3-3.2,2.7c0.2,0.7,0.9,1.3,1.7,1.9c0.8,0.6,1.7,1.1,2.5,1.6c1.7,1,3.6,1.7,5.6,2.2l0,0.2c-2-0.3-4-0.8-5.9-1.6
						c-1-0.4-1.9-0.9-2.8-1.4c-0.9-0.5-1.9-1.2-2.4-2.4c-0.2-0.6-0.3-1.3-0.1-2c0.2-0.7,0.7-1.2,1.1-1.6c0.9-0.8,2-1.2,3-1.5
						c1.9-0.6,3.9-1.1,5.9-1.7c7.8-2.1,16-3.9,24.2-3.7c4.1,0.1,8.2,0.4,12.2,0.7c4,0.3,8.1,0.8,12.1,1.3c8.1,1,16.1,1.8,24.2,2.4
						l1.3,0.1l-0.9,1l-1.7,1.8l-0.9-1.2c0.6-0.3,1.4-0.3,1.9,0c0.6,0.3,1,0.6,1.3,1.1c0.3,0.5,0.5,1.1,0.6,1.7
						c0,0.6-0.1,1.1-0.3,1.7c-0.4,1-1.2,1.9-2.2,2.3c-1,0.5-2,0.7-2.9,0.8c-3.6,0.3-7.2-0.1-10.7-0.9c-1.7-0.4-3.5-1.3-4.7-1
						c-0.6,0.1-0.9,0.5-1.4,1.2c-0.4,0.8-1.1,1.6-1.9,2.2c-1.6,1.1-3.5,1.6-5.3,1.5c-1.8-0.1-3.5-0.5-5.2-1L255.3,105.7z"/>
				</g>
				<g>
					<path class="st3" d="M200.1,104.4c1.1,0.2,1.9,0.3,2.9,0.4c1,0.1,2,0.1,3,0.4c1,0.3,1.9,0.8,2.9,1.1c1,0.2,2,0.2,3,0.1
						c1-0.1,2-0.2,3-0.2c1,0,2-0.1,3-0.1c2,0,3.9,0.1,6.1,0.3l0.1,0.2c-1.8,1.2-3.9,1.8-6,2c-1.1,0.1-2.1,0-3.1-0.2
						c-1-0.1-2.1-0.4-3.1-0.7c-1-0.3-2-0.6-3-0.6c-1-0.1-2.1,0.1-3.1,0.1c-1,0-2-0.3-3-0.6c-1-0.4-2.1-1-2.7-2L200.1,104.4z"/>
				</g>
				<g>
					<path class="st3" d="M356.8,91.4c-1.7,0-3.4,0-5,0.2c-1.7,0.1-3.3,0.3-4.9,0.5c-1.6,0.3-3.3,0.4-4.7,0.9
						c-0.7,0.3-1.3,0.6-1.8,1.1c-0.4,0.4-0.6,0.9-0.6,1.5l-0.8-1c0.9,0.2,1.8,0.4,2.7,0.6l1.2,0.3l-0.5,1.1
						c-0.3,0.6-0.8,1.1-1.4,1.4c-0.6,0.3-1.4,0.3-2,0l1.3-1c0,0.3,0.1,0.5,0.3,0.8c0.2,0.3,0.6,0.5,1,0.7c0.8,0.4,1.8,0.6,2.8,1.1
						c1,0.4,1.9,1,2.8,1.5c0.4,0.3,0.8,0.6,1.3,0.9c0.4,0.3,0.8,0.7,1.1,1.3c0.3,0.6,0.2,1.3-0.1,1.8c-0.3,0.5-0.8,0.9-1.3,1.1
						c-0.5,0.2-1,0.4-1.5,0.5l-1.5,0.3c-2,0.4-4,0.9-6,1.3c-4,0.8-8.1,1.4-12.2,1.8c-2,0.2-4.1,0.3-6.1,0.5c-1,0.1-2.1,0.1-3,0.1
						c-0.4,0-0.8,0.1-1.1,0.2c-0.3,0.1-0.3,0.2-0.4,0.3l-0.8-1.7c1.9,0.5,3.9,1,5.8,1.5c1.9,0.5,3.9,0.9,5.8,1.4
						c3.9,0.9,7.8,1.6,11.8,2.4l0,0.2c-4,0-8.1-0.3-12.1-0.8c-2-0.3-4-0.6-6-1c-2-0.4-4-0.8-5.9-1.3l-1.4-0.3l0.6-1.4
						c0.3-0.8,1.1-1.4,1.8-1.7c0.7-0.2,1.3-0.3,1.9-0.3l3.1-0.1c2,0,4-0.1,6.1-0.2c4-0.3,8.1-0.5,12.1-0.9c2-0.2,4-0.4,6.1-0.7
						c1-0.2,2-0.2,2.9-0.7c0.4-0.2,0.8-0.5,1-0.8c0.2-0.3,0.2-0.8,0-1.1c-0.4-0.7-1.3-1.3-2.1-1.8c-0.9-0.5-1.8-0.9-2.7-1.2
						c-0.9-0.3-1.9-0.4-3-0.8c-0.5-0.2-1.1-0.5-1.6-0.9c-0.5-0.4-0.9-1.1-1-1.9l-0.2-1.3l1.5,0.3c0.1,0,0.3,0,0.4-0.1
						c0.2-0.1,0.3-0.2,0.3-0.4l0.7,1.4c-0.9-0.2-1.8-0.4-2.7-0.6l-0.8-0.2l0-0.8c0-0.6,0.1-1.1,0.3-1.7c0.2-0.5,0.6-1,1-1.3
						c0.8-0.7,1.7-1.2,2.5-1.5c0.9-0.3,1.8-0.4,2.7-0.5c0.8-0.1,1.7-0.2,2.6-0.2c1.7-0.1,3.4,0,5.1,0.1c1.7,0.2,3.4,0.3,5,0.7
						L356.8,91.4z"/>
				</g>
				<g>
					<path class="st3" d="M348.7,83.1c-0.6-1.1-1.8-1.4-3-1.6l-3.7-0.8c-2.5-0.5-4.9-0.9-7.4-1.3c-2.5-0.5-5-1-7.5-1.1
						c-1.3,0-2.5,0-3.8,0.1c-1.2,0.1-2.5,0.4-3.5,1c-0.5,0.3-0.8,0.7-0.9,1c-0.1,0.4-0.1,0.8,0.1,1.2c0.4,0.9,1.1,1.4,2.2,1.6
						c1,0.3,2.4,0.4,3.6,0.5l3.7,0.4c5,0.5,10,0.8,15.1,1.1l0,0.2c-5,1.2-10.2,1.5-15.4,1.2c-1.3-0.1-2.6-0.2-3.8-0.4
						c-1.3-0.2-2.5-0.4-3.9-0.8c-0.7-0.2-1.4-0.6-2-1.1c-0.6-0.6-1.1-1.3-1.3-2.1c-0.2-0.8-0.2-1.7,0.3-2.5c0.5-0.8,1.2-1.2,1.8-1.5
						c1.3-0.5,2.7-0.5,4-0.6l3.8-0.1c2.6-0.1,5.2-0.3,7.7-0.1c2.6,0.2,5.1,0.8,7.6,1.5c1.2,0.4,2.4,0.8,3.6,1.3
						c0.6,0.2,1.2,0.6,1.8,1c0.5,0.4,1,1.1,1.1,1.8L348.7,83.1z"/>
				</g>
				<g>
					<path class="st3" d="M353.4,80.3c-5.5-1.7-11.1-2.9-16.7-3.6c-2.8-0.3-5.7-0.4-8.5-0.5c-2.8,0-5.7,0-8.5,0.3
						c-2.8,0.3-5.7,0.7-8.6,0.9c-0.7,0-1.5,0.1-2.2,0.1c-0.7,0-1.5-0.1-2.1,0c-0.7,0-1.4,0.1-1.9,0.5c-0.5,0.3-0.8,0.9-0.9,1.5
						c-0.1,0.6,0.1,1.3,0.3,1.8c0.3,0.6,0.7,1,1.2,1.4c1,0.8,2.4,1.2,3.7,1.7c2.7,1,5.4,2,8.1,3l1.1,0.4l-0.6,1l-0.8,1.5l0-1
						c0.1,0.1,0.1,0.1,0.4,0.2c0.3,0.1,0.7,0,1.1,0l2.9-0.3l5.7-0.5c3.8-0.3,7.7-0.5,11.5-0.7c3.8-0.2,7.7-0.3,11.5-0.5
						c3.8-0.3,7.5-0.9,11.1-2.2l0.1,0.2c-1.7,1-3.5,1.7-5.3,2.3c-1.9,0.6-3.8,1-5.7,1.3c-3.9,0.6-7.7,0.9-11.5,1.3
						c-3.8,0.3-7.7,0.7-11.5,0.9l-5.8,0.3l-2.9,0.2c-0.5,0-1.1,0.1-1.7-0.1c-0.6-0.1-1.5-0.5-1.9-1.3l-0.3-0.6l0.3-0.5l0.9-1.4
						l0.5,1.5c-2.6-1.2-5.2-2.4-7.8-3.6c-1.3-0.6-2.7-1.2-3.9-2.2c-1.2-1-1.9-2.7-1.7-4.3c0.1-0.8,0.6-1.6,1.3-2
						c0.7-0.4,1.5-0.5,2.3-0.6c1.5,0,2.9,0,4.3-0.1c2.8-0.3,5.6-1.1,8.5-1.6c2.9-0.5,5.8-0.9,8.7-0.9c2.9,0,5.9,0.2,8.7,0.6
						c5.8,0.9,11.4,2.6,16.6,5.3L353.4,80.3z"/>
				</g>
			</g>
		</g>
		<g>
			<path class="st6" d="M240,86.2c-0.1,3.9-0.8,6.8-2,8.9c-1.3,2-3,3-5.3,2.9c-2.3-0.1-4.1-1.2-5.4-3.4c-1.3-2.2-1.9-5.2-1.8-9.1
				c0.1-3.9,0.8-6.9,2.2-9.1c1.4-2.2,3.2-3.2,5.6-3.1c1.4,0.1,2.6,0.5,3.6,1.3c1,0.8,1.7,1.9,2.1,3.3
				C239.7,80.3,240.1,83.1,240,86.2z M238.8,85.6c0.1-3.3-0.4-5.9-1.3-7.9c-1-2-2.4-3-4.3-3.1c-1.9-0.1-3.4,0.8-4.6,2.7
				c-1.2,1.9-1.8,4.6-1.9,8.2c-0.1,4.2,0.7,7.3,2.4,9.3c1,1.1,2.1,1.7,3.3,1.8c1.3,0.1,2.3-0.2,3.1-0.8c0.8-0.6,1.5-1.4,1.9-2.4
				C238.3,91.4,238.8,88.8,238.8,85.6z"/>
			<path class="st6" d="M258.2,89.7c0,1.6-0.2,3-0.5,4.2c-0.3,1.2-0.7,2.1-1.1,2.7c-0.4,0.6-1,1.1-1.6,1.5c-1.5,1-3.1,1.1-4.9,0.4
				c-0.6-0.2-1.2-0.6-1.9-1.2c-0.7-0.6-1.2-1.5-1.6-2.7c-0.4-1.2-0.6-2.7-0.5-4.4c0.1-2.8,0.6-5.1,1.7-6.8c1.1-1.7,2.6-2.5,4.6-2.4
				c2,0.1,3.4,1,4.4,2.7C257.7,85.3,258.2,87.3,258.2,89.7z M251.6,97.6l0.4,0.1l0.4,0c3-0.2,4.5-2.8,4.6-7.8c0-2.1-0.3-3.8-1-5.3
				c-0.7-1.4-2-2.2-3.7-2.3c-1.1,0-2,0.3-2.8,1.1c-1.3,1.4-2,3.6-2.1,6.7l0,0.3c0,1.9,0.3,3.6,1,4.9C249,96.6,250.1,97.4,251.6,97.6
				z"/>
			<path class="st6" d="M276.1,90.5c0,1.6-0.2,3-0.5,4.2c-0.3,1.2-0.7,2.1-1.1,2.7c-0.4,0.6-1,1.1-1.6,1.5c-1.5,1-3.1,1.1-4.9,0.4
				c-0.6-0.2-1.2-0.6-1.9-1.2c-0.7-0.6-1.2-1.5-1.6-2.7c-0.4-1.2-0.6-2.7-0.5-4.4c0.1-2.8,0.6-5.1,1.7-6.8c1.1-1.7,2.6-2.5,4.6-2.4
				c2,0.1,3.4,1,4.4,2.7C275.7,86.1,276.1,88.1,276.1,90.5z M269.5,98.4l0.4,0.1l0.4,0c3-0.2,4.5-2.8,4.6-7.8c0-2.1-0.3-3.8-1-5.3
				c-0.7-1.4-2-2.2-3.7-2.3c-1.1,0-2,0.3-2.8,1.1c-1.3,1.4-2,3.6-2.1,6.7l0,0.3c0,1.9,0.3,3.6,1,4.9C267,97.4,268.1,98.2,269.5,98.4
				z"/>
			<path class="st6" d="M283.6,109l-1.2-0.1l0.6-26.3l1.2,0.1l-0.1,2.1c1.5-1.6,3-2.4,4.6-2.3c0.9,0,1.8,0.4,2.7,1.2
				c1.9,1.6,2.8,4.1,2.7,7.7c-0.1,4.2-1.6,6.8-4.5,8c-1.5,0.6-3.4,0.9-5.8,0.9L283.6,109z M292.2,95.3c0.5-1.1,0.7-2.5,0.8-4.2
				c0-1.7-0.4-3.4-1.2-4.9c-0.8-1.5-1.9-2.3-3.2-2.4c-0.8,0-1.6,0.2-2.3,0.7c-0.7,0.5-1.4,1.2-2.2,2.1L283.8,99
				C288.2,99.2,291,97.9,292.2,95.3z"/>
			<path class="st6" d="M306.2,99.5c1.3-0.3,2.2-0.8,2.8-1.3c0.5-0.6,0.8-1.3,0.8-2.3s-0.3-1.8-1-2.4c-0.7-0.6-1.5-1-2.5-1.2
				c-1-0.2-2-0.4-2.9-0.7c-1-0.2-1.8-0.7-2.5-1.4c-0.7-0.7-1-1.7-1-3c0.1-2.7,2-4,6-3.8c1.4,0.1,3.1,0.3,5,0.7l0,1.4
				c-1.9-0.5-3.6-0.7-4.9-0.8c-1.3-0.1-2.4,0.1-3.4,0.5c-0.9,0.4-1.4,1-1.4,2c0,1,0.3,1.7,1,2.3c0.7,0.6,1.5,1,2.5,1.2
				c1,0.2,2,0.5,3,0.8c1,0.3,1.8,0.8,2.5,1.6c0.7,0.8,1,1.9,1,3.3c0,1.7-0.7,2.9-1.9,3.6c-0.6,0.3-1.2,0.6-1.8,0.8
				c-0.6,0.2-1.3,0.3-2.3,0.3c-1.5,0.1-2.9,0.1-4.2,0l-0.8,0l0-1.3C302.8,99.9,304.9,99.8,306.2,99.5z"/>
			<path class="st6" d="M319.4,101.9l-2.5-0.1l0.1-3.3l2.5,0.1L319.4,101.9z"/>
			<path class="st6" d="M328.6,102.3l-2.5-0.1l0.1-3.3l2.5,0.1L328.6,102.3z"/>
			<path class="st6" d="M337.7,102.7l-2.5-0.1l0.1-3.3l2.5,0.1L337.7,102.7z"/>
		</g>
	</g>
	<path class="st0" d="M135.7,263.3c0,0-22.9,1-13.5-8.9c9.4-10,26.6,4.7,26.6,4.7c2.1-2.6,2.1-15.7,2.1-15.7
		c-5.7-22-26.1-7.3-38-3.7c-12,3.7-8.9-3.1-8.9-3.1c7.3-17.8,42.2-6.2,42.2-6.2c-1-13.5-9.9-16.9-9.9-16.9
		c-32.8-15.7-32.3,11.5-46.4,15.7S81,225,81,225c13.5-19.4,42.2-21,42.2-21c-2.1-12.1-14.6-15.7-14.6-15.7
		c-28.1,0-38,33.1-43.1,19.9c-5-13.1,33.2-22.6,33.2-22.6s0-11-16.2-10.5c-16.2,0.5-24,32.5-27.1,22.6c-3.1-10,10.4-26.8,10.4-26.8
		c-41.2-3.7-32.8,43.6-32.8,43.6l-0.1,0c0,0-45.9,12.9-24.8,48.7c0,0,9.2-19.6,19.4-21.1c10.3-1.5-15,19.5-8.5,34.4
		c6.5,14.9,16.4,10.1,16.4,10.1s-8.1-38.8,5.8-39.9s-11.4,22.2,0.8,47.7c0,0,8.7,9.8,20.4,6.4c0,0-11-26.7,0.5-47.4
		c0,0,5.3-8.4,7.6,6.2c2.3,14.6-22.3,25.9,6,48.9c0,0,6.9,6.6,19.4,1.7c0,0-25.6-26.6-12.8-41c0,0,4.8-5.8,6.7,6.7
		s-2.4,37.3,19.8,32.9c0,0,11.7-5.7,13.2-8.7c0,0-20.6-9.2-15.7-22.1c4.9-12.8,13.9,8.4,13.9,8.4s-0.1,19.2,17.5,11.3l14.6-7.1
		l0.2,0.1v-16.5C152.9,254.9,135.7,263.3,135.7,263.3z"/>
	<path class="st0" d="M358.5,305.5c0,0,16.8-18.3,17.3-3.5c0.5,14.8-24,16.6-24,16.6c0.4,3.6,10.6,13.7,10.6,13.7
		c21.4,12.5,25.7-14.2,32-26.1c6.4-11.9,9.2-4.3,9.2-4.3c8.2,19.2-27.6,36.9-27.6,36.9c11.2,9.6,20.7,5.4,20.7,5.4
		c37.4-12.9,15.9-33.5,23.4-47.4s10-3.5,10-3.5c4.6,25.2-16.2,48.2-16.2,48.2c10.9,7.7,23.4,1,23.4,1c21.6-21.4,3.6-54.3,17.6-48.1
		c14,6.2-8,42.6-8,42.6s8.5,8.5,20.5-4.2c12-12.7-6.8-43.2,3.3-37.9c10.1,5.3,12.7,28.5,12.7,28.5c34.4-28.5-8.5-58.4-8.5-58.4
		l0.1-0.1c0,0,25.2-44.8-18.6-56.2c0,0,8.1,22,1.4,31c-6.7,9-3.6-26.4-20.1-32.8c-16.5-6.5-20.4,4.7-20.4,4.7s36.2,23.6,26.4,35
		c-9.8,11.5-8.4-25.7-37.5-36c0,0-14.2-0.9-20.6,10.6c0,0,29.1,12.1,36.3,36.7c0,0,2.4,10.4-10.6,1c-13.1-9.4-2.9-36.9-42.4-33
		c0,0-10.4,0.2-16.2,13.5c0,0,40.2,1,41.5,21.7c0,0,0.8,8.1-10.3-0.1c-11.1-8.1-26.9-30.5-40.6-10.2c0,0-4.6,13.3-3.4,16.7
		c0,0,22.9-8.6,29.1,4.9c6.2,13.5-17.1,4.1-17.1,4.1s-14.8-14.8-22.2,4.7l-5.8,16.6l-0.2,0l12.8,12.7
		C351.8,325.1,358.5,305.5,358.5,305.5z"/>
	<g class="st7">
		<path class="st8" d="M109.3,310.3v-6c0.6,0,1.1-0.1,1.5-0.4c0.4-0.3,0.6-0.6,0.6-1.2c0-0.4-0.2-0.8-0.5-1.2
			c-0.3-0.3-0.7-0.5-1.1-0.5c-0.5,0-0.9,0.2-1.1,0.6s-0.4,0.8-0.4,1.3v15.2h-6.9v-14.7c0-1.3,0.1-2.4,0.4-3.1c0.4-1.1,1-2.1,1.9-2.9
			c0.8-0.9,1.8-1.5,2.9-2s2.2-0.7,3.4-0.7c1.1,0,2.2,0.2,3.2,0.6c1.1,0.4,2,1,2.8,1.7c0.8,0.7,1.5,1.6,2,2.6c0.5,1,0.7,2.1,0.7,3.2
			c0,1.2-0.2,2.3-0.7,3.3c-0.5,1-1.2,1.9-2.1,2.6c-0.8,0.6-1.6,1-2.4,1.2c-0.8,0.2-1.8,0.3-2.9,0.3H109.3z"/>
		<path class="st8" d="M132.6,306.7v6h-1.9v5.5h-7v-14.8c0-1.7,0.4-3.3,1.1-4.6s1.7-2.3,3-3c1.3-0.7,2.8-1.1,4.6-1.1
			c1.6,0,3,0.4,4.3,1.2c1.2,0.8,2.2,1.8,2.9,3.2c0.7,1.3,1,2.8,1,4.4v14.8h-7v-14.8c0-0.5-0.1-0.9-0.3-1.3c-0.2-0.4-0.6-0.5-1-0.6
			c-0.5,0-0.9,0.2-1.1,0.5c-0.3,0.4-0.4,0.8-0.4,1.3v3.3H132.6z"/>
		<path class="st8" d="M157.7,305.4h6.5c1.4,1.7,2.1,3.5,2.1,5.3c0,1.5-0.4,2.9-1.1,4.2c-0.8,1.2-1.8,2.2-3.1,2.9
			c-1.3,0.7-2.7,1-4.3,1c-2.2,0-4.1-0.6-5.8-1.8s-3.1-2.7-4-4.7c-0.9-1.9-1.4-3.9-1.4-6.1c0-2.1,0.5-4,1.6-5.8s2.5-3.2,4.3-4.2
			s3.7-1.6,5.8-1.6c1.1,0,2.4,0.2,3.8,0.7v6.8c-1.1-0.5-2-0.8-2.9-0.8c-0.9,0-1.8,0.2-2.6,0.7c-0.8,0.5-1.4,1.1-1.9,1.9
			c-0.5,0.8-0.8,1.7-0.8,2.6c0,1,0.2,2,0.6,2.8c0.4,0.9,1,1.5,1.8,2c0.8,0.5,1.7,0.8,2.7,0.8c1,0,1.5-0.3,1.5-0.9
			c0-0.5-0.4-0.8-1.1-0.8h-1.6V305.4z"/>
		<path class="st8" d="M184.5,304.2v5.1H180c-0.5,0-1,0.1-1.2,0.2c-0.3,0.1-0.4,0.4-0.4,0.9c0,0.5,0.2,0.8,0.5,1
			c0.4,0.1,0.8,0.2,1.5,0.2h4.6v6.6h-5.6c-2.3,0-4.1-0.6-5.4-1.7c-1.5-1.3-2.2-2.9-2.2-4.8v-10.1c0-1.1,0.3-2.1,0.9-3.1
			s1.4-1.7,2.5-2.3c1-0.6,2.1-0.8,3.2-0.8h6.6v6.6h-4.6c-1,0-1.6,0.4-1.6,1.1c0,0.8,0.6,1.2,1.7,1.2H184.5z"/>
		<path class="st8" d="M203.7,318.2v-15.1c0-1.5,0.4-2.9,1.1-4.2c0.7-1.3,1.7-2.3,2.9-3.1s2.6-1.1,4.1-1.1c1.6,0,3,0.4,4.3,1.1
			s2.3,1.7,3.1,3c0.7,1.3,1.1,2.7,1.1,4.3v15.1h-6.9v-14.8c0-0.5-0.1-0.8-0.4-1.2c-0.3-0.3-0.6-0.5-1.1-0.5c-0.5,0-0.8,0.2-1.1,0.5
			c-0.3,0.3-0.4,0.7-0.4,1.1v14.8H203.7z"/>
		<path class="st8" d="M226.2,306.4c0-1.6,0.3-3.1,1-4.5c0.6-1.4,1.5-2.7,2.6-3.7c1.1-1.1,2.4-1.9,3.9-2.5c1.5-0.6,3-0.9,4.6-0.9
			c1.6,0,3.1,0.3,4.6,0.9s2.8,1.4,3.9,2.5s2,2.3,2.7,3.7c0.6,1.4,1,2.9,1,4.5c0,2.2-0.5,4.2-1.6,6.2c-1.1,1.9-2.5,3.4-4.4,4.6
			c-1.9,1.1-3.9,1.7-6.1,1.7c-2.2,0-4.2-0.6-6.1-1.7s-3.3-2.7-4.4-4.6C226.8,310.6,226.2,308.5,226.2,306.4z M233,306.5
			c0,1,0.2,1.9,0.7,2.7c0.5,0.9,1.1,1.6,1.9,2.1s1.7,0.8,2.7,0.8c1,0,1.9-0.3,2.7-0.8c0.8-0.5,1.5-1.2,2-2.1
			c0.5-0.9,0.7-1.8,0.7-2.8c0-0.9-0.2-1.8-0.8-2.6c-0.5-0.8-1.2-1.4-2-1.8c-0.8-0.4-1.7-0.7-2.6-0.7c-0.9,0-1.8,0.2-2.6,0.7
			c-0.8,0.5-1.5,1.1-2,1.9C233.2,304.7,233,305.5,233,306.5z"/>
		<path class="st8" d="M266.8,301.8v16.4h-6.9v-16.4h-5.3v-6.5H272v6.5H266.8z"/>
		<path class="st8" d="M296.1,306v6.1h-2.3v6H287v-14.7c0-1.2,0.2-2.3,0.7-3.3c0.5-1.1,1.1-2,1.9-2.8s1.8-1.5,2.8-1.9
			s2.2-0.7,3.4-0.7c1.4,0,2.7,0.3,3.9,0.9c1.2,0.6,2.2,1.5,3.1,2.6l-5.6,4.1c-0.3-0.9-0.8-1.3-1.5-1.3c-0.6,0-1,0.2-1.3,0.5
			c-0.3,0.4-0.5,0.8-0.5,1.4v3.1H296.1z"/>
		<path class="st8" d="M304.7,306.4c0-1.6,0.3-3.1,1-4.5c0.6-1.4,1.5-2.7,2.6-3.7c1.1-1.1,2.4-1.9,3.9-2.5c1.5-0.6,3-0.9,4.6-0.9
			c1.6,0,3.1,0.3,4.6,0.9s2.8,1.4,3.9,2.5s2,2.3,2.7,3.7c0.6,1.4,1,2.9,1,4.5c0,2.2-0.5,4.2-1.6,6.2c-1.1,1.9-2.5,3.4-4.4,4.6
			c-1.9,1.1-3.9,1.7-6.1,1.7c-2.2,0-4.2-0.6-6.1-1.7s-3.3-2.7-4.4-4.6C305.3,310.6,304.7,308.5,304.7,306.4z M311.5,306.5
			c0,1,0.2,1.9,0.7,2.7c0.5,0.9,1.1,1.6,1.9,2.1s1.7,0.8,2.7,0.8c1,0,1.9-0.3,2.7-0.8c0.8-0.5,1.5-1.2,2-2.1
			c0.5-0.9,0.7-1.8,0.7-2.8c0-0.9-0.2-1.8-0.8-2.6c-0.5-0.8-1.2-1.4-2-1.8c-0.8-0.4-1.7-0.7-2.6-0.7c-0.9,0-1.8,0.2-2.6,0.7
			c-0.8,0.5-1.5,1.1-2,1.9C311.7,304.7,311.5,305.5,311.5,306.5z"/>
		<path class="st8" d="M351.2,295.3v15.1c0,1.1-0.2,2.2-0.6,3.2c-0.4,1-1,1.9-1.7,2.7s-1.6,1.4-2.6,1.8c-1,0.4-2.1,0.7-3.2,0.7
			c-1.6,0-3-0.4-4.3-1.1c-1.3-0.7-2.3-1.7-3.1-3c-0.8-1.3-1.1-2.7-1.1-4.3v-15.1h6.9v14.9c0,0.5,0.1,0.8,0.4,1.1
			c0.3,0.3,0.6,0.5,1.1,0.5c0.4,0,0.8-0.2,1.1-0.5c0.3-0.3,0.4-0.7,0.4-1.1v-14.9H351.2z"/>
		<path class="st8" d="M357.7,318.2v-15.1c0-1.5,0.4-2.9,1.1-4.2c0.7-1.3,1.7-2.3,2.9-3.1s2.6-1.1,4.1-1.1c1.6,0,3,0.4,4.3,1.1
			s2.3,1.7,3.1,3c0.7,1.3,1.1,2.7,1.1,4.3v15.1h-6.9v-14.8c0-0.5-0.1-0.8-0.4-1.2c-0.3-0.3-0.6-0.5-1.1-0.5c-0.5,0-0.8,0.2-1.1,0.5
			c-0.3,0.3-0.4,0.7-0.4,1.1v14.8H357.7z"/>
		<path class="st8" d="M388.1,302.1v16.1h-6.9v-22.9h10.3c1.6,0,2.9,0.2,4,0.6c1.5,0.5,2.8,1.3,4,2.4c1.2,1.1,2.1,2.3,2.8,3.7
			c0.7,1.4,1,2.9,1,4.4c0,1.7-0.3,3.3-0.9,4.7c-0.6,1.5-1.4,2.7-2.5,3.8c-1.1,1.1-2.4,1.9-3.8,2.5c-1.5,0.6-3,0.9-4.7,0.9
			c-0.5,0-1.2,0-2.1-0.1v-6.7h1.8c1.5,0,2.8-0.4,3.8-1.3c1-0.8,1.6-2,1.6-3.5c0-0.9-0.2-1.6-0.7-2.4c-0.4-0.7-1-1.3-1.8-1.7
			c-0.7-0.4-1.5-0.6-2.4-0.6H388.1z"/>
	</g>
	<g>
		<g>
			<path class="st1" d="M371.4,264.4c3.7-12.9,27.3-23.8,27.3-23.8c40.5-19.7,21.7-76.4,21.7-76.4l-10.5,6.4l7.9-8.3l-1-6
				c-5.1-11.9-14-4.3-14-4.3c-10.9-4.4-19.7,12.4-20.9,18.4s-5.7,8.3-5.7,8.3l-0.7,12l-1.5-9c-24.8,24.7-9.8,53.5-2.7,58.9
				s2.4,14.9,2.4,14.9L371.4,264.4z"/>
		</g>
		<g>
			<path class="st2" d="M402.9,152c-7.1,31.7-13.4,64.7-24.9,95.1c-1.8,4.7-4.6,8.5-7.1,12.8c-2,3.4-4.8,10.7-1.8,14.3
				c3.3,4,5.8-14.5,6.4-16.6c1.7-5.8,5.4-10.8,6.5-16.7C383.9,231.5,401.6,169.7,402.9,152z"/>
		</g>
		<g>
			<path class="st2" d="M398.3,152.3C398.3,152.3,398.2,152.2,398.3,152.3c-0.1,0-0.1,0.1,0,0.1c1.1,1.4,2.3,2.6,3.6,3.8"/>
		</g>
		<g>
			<path class="st2" d="M396,152c0.6,2.7,2.4,5.2,4.7,6.7"/>
		</g>
		<g>
			<path class="st2" d="M392.5,154.2c0.7,4.1,3.2,7.9,6.7,10.2"/>
		</g>
		<g>
			<path class="st2" d="M389,157.1c1.2,4.6,4.6,8.4,8.5,11.2"/>
		</g>
		<g>
			<path class="st2" d="M385.9,161.5c0.8,2,2.3,3.7,3.8,5.3c2.4,2.6,5,5.1,8.3,6.4"/>
		</g>
		<g>
			<path class="st2" d="M382.6,167.4c3.2,4.9,7.4,9.7,13,11.4"/>
		</g>
		<g>
			<path class="st2" d="M380.9,174.1c2.7,5.2,8,9,13.7,10"/>
		</g>
		<g>
			<path class="st2" d="M377.5,178.1c1.7,3,3.5,6,6,8.3c2.5,2.3,5.9,3.9,9.4,3.7"/>
		</g>
		<g>
			<path class="st2" d="M376.6,182.2c1.1,3.5,2.8,6.8,5.3,9.5c2.4,2.7,5.7,4.8,9.3,5.5"/>
		</g>
		<g>
			<path class="st2" d="M375.5,191.1c-0.2,1.5,0.3,3,1.1,4.3c0.8,1.3,2,2.3,3.1,3.3c3,2.7,6.4,5.5,10.5,6"/>
		</g>
		<g>
			<path class="st2" d="M369.1,188c0.4,4.8,1,9.9,3.7,13.9c3.2,4.7,8.9,7,14.2,9.1"/>
		</g>
		<g>
			<path class="st2" d="M364.3,195.4c1.4,5.6,3.6,11.1,7.2,15.6c3.6,4.5,8.7,8.1,14.4,9.1"/>
		</g>
		<g>
			<path class="st2" d="M361.6,202c0.1,4.6,2.7,8.7,5.6,12.4c4.4,5.5,10.1,10.6,17.1,11.1"/>
		</g>
		<g>
			<path class="st2" d="M360.5,214.6c1.9,6.3,7.5,10.6,13,14.3c2.6,1.7,5.3,3.4,8.4,3.6"/>
		</g>
		<g>
			<path class="st2" d="M363.2,229.1c3.2,2.1,6.3,4.4,9.1,7c2,1.9,4.3,4,7.1,3.8"/>
		</g>
		<g>
			<path class="st2" d="M402.7,156.4c0.8,0.2,1.7,0.1,2.5-0.3c0.4-0.2,0.8-0.4,1.2-0.6c1.6-1.1,2.9-2.5,3.7-4.2"/>
		</g>
		<g>
			<path class="st2" d="M401.9,158.8c2.4,0.2,4.9-0.3,7-1.5c2.1-1.2,3.8-3.1,4.8-5.3"/>
		</g>
		<g>
			<path class="st2" d="M400.6,164.9c1.2-0.5,2.5-0.3,3.8-0.4c4.7-0.3,8.7-3.8,10.6-8.1"/>
		</g>
		<g>
			<path class="st2" d="M399.8,168.5c1.8,1.1,4,1.1,6.1,0.8c1.3-0.2,2.7-0.6,3.7-1.5"/>
		</g>
		<g>
			<path class="st2" d="M399,173.1c2.1,0.4,4.2,0.1,6.3-0.2c0.4-0.1,0.9-0.2,1.3-0.3c0.4-0.2,0.7-0.4,1.1-0.7c0.7-0.5,1.4-1,2-1.5"
				/>
		</g>
		<g>
			<path class="st2" d="M398.1,179.6c2.1,0.3,4.3,0.6,6.4,0.3c1.1-0.2,2.2-0.5,3.3-0.9c2.2-0.8,4.5-1.5,6.6-2.7
				c2.1-1.1,4-2.7,5.2-4.7"/>
		</g>
		<g>
			<path class="st2" d="M396.8,184c2.3,0.6,4.7,0.9,7.1,0.7c4.5-0.4,8.6-2.4,12.7-4.4c1.9-0.9,4-2,5-3.9"/>
		</g>
		<g>
			<path class="st2" d="M395.5,189.8c4.3,2,9.3,1.6,14,0.8c2.3-0.4,4.6-0.8,6.7-1.7c2.1-0.9,4.1-2.4,5.2-4.5"/>
		</g>
		<g>
			<path class="st2" d="M393,197.7c5,2.4,10.8,3.3,16.2,2.2c5.5-1,10.6-4.1,13.9-8.5"/>
		</g>
		<g>
			<path class="st2" d="M391.2,204.9c1.5,1,3.1,1.9,4.8,2.5c1.6,0.6,3.2,0.8,4.9,1c4,0.4,8.2,0.2,12.1-0.9c3.9-1.1,7.6-3.2,10.3-6.2
				"/>
		</g>
		<g>
			<path class="st2" d="M389.7,212.4c5.3,3.2,11.7,3.7,17.9,3.4c4.3-0.1,8.8-0.7,12.2-3.3"/>
		</g>
		<g>
			<path class="st2" d="M387.1,220.6c0.4,0.6,1,0.9,1.6,1.3c8.1,4,18,3.3,26.3-0.3"/>
		</g>
		<g>
			<path class="st2" d="M385.8,226.2c7.2,5.1,17.2,6,25.2,2.1"/>
		</g>
		<g>
			<path class="st2" d="M384,232.8c4.6,3.4,11,4.5,16.5,2.8"/>
		</g>
		<g>
			<path class="st2" d="M382.5,239.7c2,1.4,4.5,1.7,6.9,1.7c2.2,0,4.3-0.2,6.5-0.5"/>
		</g>
	</g>
	<g>
		<path class="st9" d="M255.7,260.4c0,0,19.2,32.6,54.9,4.8c0,0-33.4,19.3-51.1-7.3L255.7,260.4z"/>
		<g>
			<g>
				<path class="st1" d="M263.8,273.8c4.9-2,13.9,2.6,13.9,2.6c15.8,7.6,28.8-11.8,28.8-11.8L302,263l4.5,0.4l1.6-1.7
					c2.5-4.4-2-5.3-2-5.3c-1.3-4.4-8.6-3-10.7-1.9c-2.1,1.1-3.9,0.3-3.9,0.3l-3.9,2.7l2.4-2.6c-13.6-1.6-18.9,9.9-18.9,13.3
					c0,3.5-4,4.3-4,4.3L263.8,273.8z"/>
			</g>
			<g>
				<path class="st2" d="M306.1,256.4c-11.5,5.5-23.2,11.5-35.4,15.3c-1.9,0.6-3.7,0.6-5.6,0.9c-1.5,0.2-4.5,1.1-4.9,2.9
					c-0.4,2,5.9-1.7,6.7-2.1c2.2-0.9,4.6-1,6.7-2C277,269.7,300.3,260.2,306.1,256.4z"/>
			</g>
			<g>
				<path class="st2" d="M304.9,255C304.9,255,304.9,255,304.9,255C304.9,255,304.8,255,304.9,255c-0.2,0.7-0.3,1.4-0.4,2"/>
			</g>
			<g>
				<path class="st2" d="M304.5,254.3c-0.7,0.8-1,2-0.9,3"/>
			</g>
			<g>
				<path class="st2" d="M302.9,253.7c-1.1,1.2-1.7,2.9-1.6,4.5"/>
			</g>
			<g>
				<path class="st2" d="M301.2,253.3c-1.1,1.5-1.5,3.4-1.4,5.3"/>
			</g>
			<g>
				<path class="st2" d="M299.1,253.5c-0.4,0.7-0.6,1.6-0.7,2.4c-0.2,1.3-0.4,2.7,0,4"/>
			</g>
			<g>
				<path class="st2" d="M296.5,253.9c-0.7,2.2-1.2,4.6-0.4,6.7"/>
			</g>
			<g>
				<path class="st2" d="M294,255c-0.9,2.1-0.9,4.6,0.2,6.6"/>
			</g>
			<g>
				<path class="st2" d="M291.9,254.9c-0.5,1.2-1,2.5-1.1,3.8c-0.1,1.3,0.2,2.7,1.1,3.7"/>
			</g>
			<g>
				<path class="st2" d="M290.5,255.6c-0.8,1.2-1.4,2.5-1.7,3.9s-0.1,2.9,0.5,4.1"/>
			</g>
			<g>
				<path class="st2" d="M287.4,257.4c-0.5,0.3-0.9,0.8-1,1.4s-0.2,1.1-0.3,1.7c-0.1,1.6-0.1,3.3,0.7,4.6"/>
			</g>
			<g>
				<path class="st2" d="M286.8,254.7c-1.4,1.3-2.8,2.7-3.4,4.5c-0.7,2.1,0,4.4,0.6,6.5"/>
			</g>
			<g>
				<path class="st2" d="M283.4,255c-1.4,1.8-2.6,3.8-3.1,6s-0.4,4.6,0.7,6.6"/>
			</g>
			<g>
				<path class="st2" d="M280.8,255.8c-1.4,1.1-2,2.9-2.5,4.7c-0.6,2.6-0.8,5.6,0.7,7.9"/>
			</g>
			<g>
				<path class="st2" d="M276.6,258.5c-1.5,2.1-1.5,4.8-1.3,7.4c0.1,1.2,0.2,2.4,0.9,3.4"/>
			</g>
			<g>
				<path class="st2" d="M272.7,262.8c0.1,1.5,0.2,3,0,4.5c-0.1,1.1-0.2,2.3,0.5,3.1"/>
			</g>
			<g>
				<path class="st2" d="M304.7,257.4c0.2,0.3,0.4,0.5,0.7,0.7c0.2,0.1,0.3,0.2,0.5,0.2c0.7,0.2,1.5,0.3,2.2,0.1"/>
			</g>
			<g>
				<path class="st2" d="M303.8,257.7c0.5,0.8,1.3,1.4,2.1,1.8c0.9,0.4,1.9,0.4,2.8,0.2"/>
			</g>
			<g>
				<path class="st2" d="M301.6,258.7c0.4,0.2,0.7,0.7,1,1.1c1.2,1.4,3.3,1.7,5,1.3"/>
			</g>
			<g>
				<path class="st2" d="M300.3,259.4c0.1,0.8,0.6,1.5,1.2,2c0.4,0.4,0.8,0.7,1.3,0.8"/>
			</g>
			<g>
				<path class="st2" d="M298.7,260.2c0.4,0.7,1,1.3,1.6,1.9c0.1,0.1,0.3,0.2,0.4,0.3c0.1,0.1,0.3,0.1,0.5,0.2
					c0.3,0.1,0.6,0.2,0.9,0.3"/>
			</g>
			<g>
				<path class="st2" d="M296.4,261.5c0.4,0.7,0.8,1.5,1.5,2c0.3,0.3,0.7,0.5,1.1,0.8c0.8,0.5,1.6,1,2.4,1.4
					c0.8,0.4,1.8,0.6,2.7,0.5"/>
			</g>
			<g>
				<path class="st2" d="M294.7,262.2c0.4,0.8,0.9,1.6,1.5,2.3c1.2,1.3,2.8,2.1,4.4,2.8c0.8,0.4,1.6,0.7,2.4,0.6"/>
			</g>
			<g>
				<path class="st2" d="M292.6,263.2c0.4,1.8,1.8,3.2,3.1,4.5c0.7,0.6,1.4,1.2,2.2,1.6c0.8,0.4,1.7,0.7,2.6,0.5"/>
			</g>
			<g>
				<path class="st2" d="M289.6,264.3c0.5,2.1,1.6,4.1,3.2,5.5c1.6,1.4,3.8,2.2,6,2.2"/>
			</g>
			<g>
				<path class="st2" d="M287,265.5c0.1,0.7,0.1,1.4,0.4,2.1c0.2,0.6,0.5,1.2,0.9,1.7c0.8,1.3,1.9,2.5,3.2,3.5
					c1.3,0.9,2.8,1.5,4.4,1.6"/>
			</g>
			<g>
				<path class="st2" d="M284.3,266.9c0.3,2.4,1.7,4.5,3.2,6.3c1.1,1.3,2.3,2.5,4,2.9"/>
			</g>
			<g>
				<path class="st2" d="M281.1,268c-0.1,0.3-0.1,0.5,0,0.8c0.7,3.4,3.3,6.3,6.4,7.9"/>
			</g>
			<g>
				<path class="st2" d="M279.1,269c0.1,3.4,2.3,6.7,5.4,8.2"/>
			</g>
			<g>
				<path class="st2" d="M276.6,270c0.1,2.2,1.3,4.4,3.1,5.7"/>
			</g>
			<g>
				<path class="st2" d="M274.1,271.2c0,0.9,0.6,1.8,1.1,2.5c0.5,0.7,1.1,1.3,1.7,1.9"/>
			</g>
		</g>
	</g>
	<g class="st7">
		<path class="st8" d="M178.6,241.2c-3,0-5.8-0.2-8.5-0.7c-1,7.2-1.5,13.6-1.5,19.1c-5.7,2.9-16.4,4.4-32.1,4.4h-2.2
			c0-6,1.5-15.9,4.4-29.8c-4.4-0.6-9.6-0.8-15.4-0.8c-5.8,0-10.7,0.6-14.8,1.7c-4,1.1-6.2,1.7-6.4,1.7c-1.7,0-3.7-1.3-6-3.8
			c-2.3-2.5-3.4-4.7-3.5-6.5c-0.1-1.8,0.6-3.7,2-5.6c25.3-35.2,43.5-60.3,54.8-75.1c8.9-1.6,20.3-2.5,34.3-2.9
			c1.7,2.3,2.6,5.5,2.6,9.7c0,4.2-0.5,9.2-1.6,15.1c-1.1,5.9-2.8,14-5.2,24.3c-2.4,10.3-4.2,18.4-5.3,24.1c2.7,0.2,5.3,0.3,7.8,0.3
			c2.4,0,4.2-0.8,5.4-2.5l2.7-4.6l8.9,3.2c-2.2,11.5-4.7,19.1-7.5,22.7C188.3,239.2,184,241.2,178.6,241.2z M120.5,213.1
			c1.3-0.1,3.4-0.2,6.6-0.2c3.1,0,8.4,0.2,16,0.7c6.9-26.8,10.5-43.9,10.6-51.3C143.7,174.3,132.7,191.3,120.5,213.1z"/>
		<path class="st8" d="M299.6,185.8c0,16.2-3,30.7-8.9,43.5c-3.2,7-7.1,13.1-11.7,18.4c-4.6,5.3-10.4,9.5-17.3,12.7
			c-6.9,3.2-14.7,4.8-23.2,4.8c-11.4,0-20.2-4.2-26.4-12.7c-6.2-8.5-9.3-19.3-9.3-32.4c0-23.5,5.6-42.2,16.7-56.3
			c11.2-14,26.1-21,44.7-21c11.5,0,20.3,4.2,26.3,12.5C296.6,163.8,299.6,173.9,299.6,185.8z M244.6,252.2c4.2,0,8.1-4.6,11.6-13.7
			c3.5-9.1,6.1-19.6,7.9-31.3c1.7-11.7,2.6-22.7,2.6-32.9c0-12.3-2.6-18.5-7.7-18.5c-3.6,0-7,2.4-10.1,7.3
			c-3.1,4.9-5.5,10.9-7.2,18.1c-3.6,15.6-5.5,31.3-5.5,47.2C236.3,244.3,239,252.2,244.6,252.2z"/>
		<path class="st8" d="M385.8,241.2c-3,0-5.8-0.2-8.5-0.7c-1,7.2-1.5,13.6-1.5,19.1c-5.7,2.9-16.4,4.4-32.1,4.4h-2.2
			c0-6,1.5-15.9,4.4-29.8c-4.4-0.6-9.6-0.8-15.4-0.8c-5.8,0-10.7,0.6-14.8,1.7c-4,1.1-6.2,1.7-6.4,1.7c-1.7,0-3.7-1.3-6-3.8
			c-2.3-2.5-3.4-4.7-3.5-6.5c-0.1-1.8,0.6-3.7,2-5.6c25.3-35.2,43.5-60.3,54.8-75.1c8.9-1.6,20.3-2.5,34.3-2.9
			c1.7,2.3,2.6,5.5,2.6,9.7c0,4.2-0.5,9.2-1.6,15.1c-1.1,5.9-2.8,14-5.2,24.3c-2.4,10.3-4.2,18.4-5.3,24.1c2.7,0.2,5.3,0.3,7.8,0.3
			c2.4,0,4.2-0.8,5.4-2.5l2.7-4.6l8.9,3.2c-2.2,11.5-4.7,19.1-7.5,22.7C395.5,239.2,391.3,241.2,385.8,241.2z M327.7,213.1
			c1.3-0.1,3.4-0.2,6.6-0.2c3.1,0,8.5,0.2,16,0.7c6.9-26.8,10.5-43.9,10.6-51.3C351,174.3,339.9,191.3,327.7,213.1z"/>
	</g>
	<g>
		<path class="st9" d="M361.5,274.2c0,0,1.1-40,46-31.8c0,0-38.7-1.4-41.3,32.2L361.5,274.2z"/>
		<path class="st9" d="M371.9,267.3c0,0,21.1-34.1,55.8-4.8c0,0-32.8-20.4-52,7.5L371.9,267.3z"/>
		<path class="st2" d="M357.5,275.6c0,0,29.2-20.2,40-5.3C397.5,270.3,400.8,280,357.5,275.6z"/>
		<path class="st1" d="M358.5,276.3c0,0-8-19.7,2.3-24C360.8,252.3,367,251.7,358.5,276.3z"/>
	</g>
	<g>
		<path class="st9" d="M166.2,273.3c0,0-1.5-53.4-61.3-42.4c0,0,51.6-1.9,55.1,43L166.2,273.3z"/>
		<path class="st2" d="M170.2,275c0,0-29.2-20.2-40-5.3C130.2,269.7,126.9,279.4,170.2,275z"/>
	</g>
	<g>
		<path class="st10" d="M156.8,19.9c0,1.3-1.1,2.4-2.4,2.4s-2.4-1.1-2.4-2.4c0-1.3,1.1-2.4,2.4-2.4
			C155.7,17.5,156.8,18.6,156.8,19.9z"/>
		<path class="st10" d="M170.8,40.8c0,0.9-0.7,1.6-1.6,1.6c-0.9,0-1.6-0.7-1.6-1.6c0-0.9,0.7-1.6,1.6-1.6
			C170.1,39.2,170.8,39.9,170.8,40.8z"/>
		<ellipse class="st10" cx="323.6" cy="351.4" rx="2.4" ry="2.4"/>
		<ellipse class="st10" cx="134.8" cy="362.6" rx="2.4" ry="2.4"/>
		<path class="st10" d="M434.9,278c0,1.3-1.1,2.4-2.4,2.4s-2.4-1.1-2.4-2.4s1.1-2.4,2.4-2.4C433.9,275.6,434.9,276.7,434.9,278z"/>
		<path class="st10" d="M466,77.5c0,1.3-1.1,2.4-2.4,2.4s-2.4-1.1-2.4-2.4c0-1.3,1.1-2.4,2.4-2.4C464.9,75.1,466,76.2,466,77.5z"/>
		<path class="st10" d="M300.8,2.4c0,1.3-1.1,2.4-2.4,2.4S296,3.7,296,2.4s1.1-2.4,2.4-2.4C299.7,0,300.8,1.1,300.8,2.4z"/>
		<path class="st10" d="M153.1,140.8c0,1.3-1.1,2.4-2.4,2.4s-2.4-1.1-2.4-2.4c0-1.3,1.1-2.4,2.4-2.4
			C152.1,138.5,153.1,139.5,153.1,140.8z"/>
		<path class="st10" d="M342.4,118.8c0,1.3-1.1,2.4-2.4,2.4s-2.4-1.1-2.4-2.4c0-1.3,1.1-2.4,2.4-2.4
			C341.3,116.4,342.4,117.5,342.4,118.8z"/>
		<path class="st10" d="M150.6,260.2c0,0.9-0.7,1.6-1.6,1.6c-0.9,0-1.6-0.7-1.6-1.6s0.7-1.6,1.6-1.6
			C149.9,258.6,150.6,259.3,150.6,260.2z"/>
		<path class="st10" d="M351.4,325.5c0,0.9-0.7,1.6-1.6,1.6s-1.6-0.7-1.6-1.6s0.7-1.6,1.6-1.6S351.4,324.6,351.4,325.5z"/>
		<path class="st10" d="M336.7,360.3c0,0.9-0.7,1.6-1.6,1.6c-0.9,0-1.6-0.7-1.6-1.6s0.7-1.6,1.6-1.6
			C335.9,358.7,336.7,359.4,336.7,360.3z"/>
		<path class="st10" d="M172.1,328.6c0,0.9-0.7,1.6-1.6,1.6s-1.6-0.7-1.6-1.6c0-0.9,0.7-1.6,1.6-1.6S172.1,327.8,172.1,328.6z"/>
		<path class="st10" d="M448.9,139.2c0,0.9-0.7,1.6-1.6,1.6c-0.9,0-1.6-0.7-1.6-1.6c0-0.9,0.7-1.6,1.6-1.6
			C448.2,137.6,448.9,138.4,448.9,139.2z"/>
	</g>
</g>
</svg>
