<?xml version="1.0" encoding="utf-8"?>
<!-- Generator: Adobe Illustrator 27.1.1, SVG Export Plug-In . SVG Version: 6.00 Build 0)  -->
<svg version="1.1" id="Layer_1" xmlns="http://www.w3.org/2000/svg" xmlns:xlink="http://www.w3.org/1999/xlink" x="0px" y="0px"
	 viewBox="0 0 100 100" style="enable-background:new 0 0 100 100;" xml:space="preserve">
<style type="text/css">
	.st0{fill:#4169E1;}
	.st1{fill:#456CE2;}
</style>
<g>
	<path class="st0" d="M59.38,64.21c-3.63-0.25-6.73-2.79-7.53-6.33c-0.64-2.83,0.18-5.29,2.2-7.38c1.78-1.85,3.98-2.54,6.47-2.54
		c12.64,0,25.28,0.01,37.92-0.01c0.51,0,0.61,0.13,0.61,0.62c-0.01,2.28,0.03,4.57-0.22,6.84c-0.4,3.56-1.12,7.05-2.3,10.45
		c-1.73,5-4.16,9.63-7.37,13.84c-5.69,7.47-12.91,12.9-21.67,16.27c-4.66,1.79-9.49,2.74-14.47,3c-9.32,0.49-18.14-1.31-26.36-5.81
		c-6.28-3.44-11.55-8.05-15.8-13.81c-3.41-4.62-5.92-9.7-7.57-15.2c-0.76-2.54-1.28-5.13-1.61-7.76c-0.35-2.8-0.48-5.62-0.37-8.44
		c0.11-2.68,0.39-5.35,0.92-7.99c2.03-10.1,6.96-18.56,14.48-25.52c6.78-6.28,14.75-10.37,23.8-12.24
		C51.34-0.04,61.77,1.33,71.76,6.1C77.29,8.74,82,12.48,86.13,16.97c0.97,1.05,1.87,2.17,2.81,3.25c0.41,0.48,0.38,1.06,0.47,1.6
		c0.52,3.12,1,6.25,1.5,9.38c0.09,0.56,0.19,1.12,0.29,1.68c0.04,0.25,0,0.37-0.31,0.39c-2.31,0.15-4.06,1.17-5.08,3.3
		c-0.16,0.33-0.32,0.09-0.46,0.02c-2.07-1.07-4.13-2.15-6.19-3.23c-2.27-1.18-4.53-2.37-6.8-3.54c-0.46-0.24-0.83-0.55-1.18-0.92
		c-2.53-2.68-5.42-4.88-8.75-6.46c-4.37-2.07-8.96-3.07-13.79-2.75c-8.05,0.53-14.72,3.92-20.09,9.9c-2.48,2.77-4.34,5.93-5.67,9.39
		c-1.02,2.63-1.61,5.37-1.84,8.19c-0.22,2.67-0.19,5.34,0.22,7.99c0.75,4.84,2.6,9.24,5.5,13.17c4.06,5.51,9.37,9.35,16.01,11.04
		c10.7,2.73,20.03,0.06,27.84-7.75c2.13-2.13,3.81-4.61,5.24-7.25c-0.15-0.24-0.29-0.18-0.41-0.18c-4.91-0.01-9.81-0.01-14.72-0.01
		C60.26,64.19,59.82,64.2,59.38,64.21z M84.37,60.19c0-0.15-0.24-0.2-0.36-0.2c-3.09-0.01-6.19-0.01-9.28-0.01
		c-0.15,0-0.33-0.08-0.44,0.1c-0.22,0.41-0.44,0.82-0.69,1.27c3.01,0,5.97,0,8.98,0c-0.16,0.45-0.3,0.87-0.46,1.27
		c-1.84,4.61-4.49,8.7-8.1,12.11c-7.18,6.79-15.73,9.98-25.61,9.53c-4.18-0.19-8.18-1.15-11.98-2.88C28.7,77.89,23,72.3,19.36,64.65
		c-1.56-3.27-2.51-6.71-2.96-10.3c-0.37-3.03-0.35-6.05,0.07-9.06c0.44-3.16,1.32-6.22,2.64-9.14c2.7-5.96,6.74-10.81,12.19-14.43
		c7.31-4.86,15.34-6.64,24.03-5.4c5.85,0.83,11.09,3.1,15.78,6.69c0.66,0.51,0.64,0.5,1.13-0.18c0.22-0.31,0.24-0.47-0.09-0.72
		c-9.16-6.87-19.36-9.1-30.47-6.39c-9.89,2.42-17.34,8.28-22.4,17.11c-2.77,4.84-4.2,10.09-4.46,15.65
		c-0.19,3.91,0.27,7.76,1.36,11.53c1.36,4.69,3.55,8.94,6.69,12.67c6.51,7.73,14.81,12.05,24.91,12.84
		c5.42,0.42,10.66-0.39,15.7-2.42c7.29-2.94,13-7.77,17.14-14.45C82.25,66.02,83.5,63.19,84.37,60.19z M69.48,63.59
		c2.95-1.64,4.62-4.12,4.54-7.52c-0.08-3.39-1.85-5.83-4.81-7.43c-0.17-0.09-0.34-0.1-0.52-0.1c-2.62,0-5.25-0.01-7.87,0
		c-2.16,0.01-4.1,0.56-5.78,2.04c-2.21,1.95-3.16,5.19-2.16,7.93c1.11,3.04,3.85,4.99,7.18,5.1 M75.15,56.75
		c0.25,0.12,0.36,0.1,0.55,0.1c3.91,0.01,7.81,0,11.72,0.01c0.57,0,1.14,0.01,1.71,0.02c-0.22,1.16-0.46,2.32-0.76,3.47
		c-1.22,4.59-3.2,8.81-5.95,12.67c-3.96,5.57-9.02,9.85-15.18,12.8c-6.76,3.24-13.88,4.42-21.33,3.63
		c-3.75-0.39-7.37-1.31-10.84-2.76c-6.37-2.66-11.69-6.7-15.96-12.13c-4.5-5.73-7.2-12.23-8.12-19.45
		c-0.44-3.47-0.4-6.95,0.07-10.42c0.45-3.27,1.27-6.43,2.52-9.47c2.39-5.83,5.95-10.86,10.75-14.96c7.87-6.72,16.99-9.93,27.34-9.62
		c4.6,0.14,9.03,1.1,13.3,2.82c3.68,1.48,7.06,3.48,10.14,5.99c0.13,0.1,0.23,0.28,0.45,0.12c0.31-0.22,0.64-0.41,0.99-0.63
		c-0.1-0.09-0.17-0.16-0.24-0.22c-9.6-7.73-20.51-10.69-32.68-8.87c-5.68,0.85-10.93,2.92-15.73,6.07
		c-7.15,4.7-12.38,11.01-15.61,18.96c-1.68,4.13-2.63,8.42-2.88,12.87c-0.21,3.69,0.04,7.35,0.81,10.97
		c0.99,4.67,2.75,9.03,5.29,13.07c3.97,6.3,9.24,11.2,15.86,14.63c7.05,3.65,14.54,5.1,22.45,4.43c3.64-0.31,7.17-1.09,10.59-2.37
		c8.66-3.26,15.48-8.81,20.44-16.6c3.08-4.85,5-10.14,5.83-15.84c0.07-0.49-0.03-0.55-0.47-0.55c-4.6,0.01-9.2,0.01-13.8,0.01
		C75.1,55.47,75.1,55.47,75.15,56.75z M48.23,96.3c0.8,0.06,1.49,0.08,2.23,0.08c0.64-0.01,1.23-0.03,1.89-0.08
		c1.89-0.07,3.77-0.28,5.63-0.59c6.85-1.15,13.12-3.72,18.81-7.7c5.3-3.71,9.63-8.33,13.01-13.85c2.59-4.24,4.43-8.78,5.56-13.6
		c0.66-2.82,1.03-5.69,1.13-8.59c0.02-0.4,0.04-0.76,0.05-1.15c0.02-0.49-0.07-0.63-0.57-0.63c-7.5,0.02-14.99,0.01-22.49,0.01
		c-0.13,0-0.26-0.01-0.39,0.02c-0.11,0.03-0.09,0.11-0.02,0.18c0.31,0.36,0.57,0.75,0.8,1.16c0.17,0.2,0.4,0.11,0.59,0.11
		c6.88,0.01,13.75,0.01,20.63,0.01c0.02,2.02-0.24,4.02-0.58,6.01c-0.87,5.23-2.62,10.13-5.26,14.73
		c-3.84,6.69-9.04,12.05-15.62,16.08c-5.85,3.58-12.21,5.7-19.04,6.35c-4.41,0.42-8.79,0.23-13.13-0.65
		c-7.45-1.51-14.11-4.69-19.94-9.56C15.59,79.65,11.21,73.53,8.4,66.31c-1.76-4.52-2.71-9.21-2.94-14.05c0-1.41,0-2.82,0-4.23
		c0.1-2.13,0.32-4.25,0.73-6.34c0.75-3.84,1.95-7.54,3.66-11.06c3.14-6.46,7.54-11.88,13.25-16.22c7.22-5.49,15.38-8.51,24.43-9.1
		c3.19-0.21,6.38-0.05,9.55,0.43c5.25,0.8,10.2,2.48,14.85,5.04c3.17,1.74,6.08,3.84,8.74,6.29c0.17,0.16,0.31,0.42,0.58,0.41
		c0.53-0.02,1.05-0.07,1.73-0.12c-0.23-0.18-0.36-0.28-0.48-0.39c-1.72-1.67-3.55-3.21-5.52-4.58C66.86,5.37,55.66,2.76,43.47,4.44
		C37.6,5.25,32.1,7.23,26.99,10.22c-5.83,3.42-10.7,7.89-14.59,13.42c-2.97,4.23-5.15,8.82-6.58,13.79c-0.8,2.8-1.34,5.66-1.59,8.56
		c-0.26,2.94-0.25,5.89,0.06,8.83c0.35,3.34,1.02,6.6,2.07,9.79c2.12,6.41,5.45,12.12,10.1,17.02
		C25.09,90.73,35.69,95.63,48.23,96.3z M86.77,33.96c-0.08-0.11-0.16-0.23-0.25-0.35c-1.07-1.45-2.14-2.9-3.22-4.35
		c-2-2.71-4-5.41-5.98-8.12c-0.2-0.27-0.31-0.31-0.6-0.1c-0.84,0.59-1.6,1.28-2.28,2.05c-0.24,0.27-0.25,0.42,0.05,0.68
		c3.07,2.67,6.12,5.36,9.17,8.04c0.87,0.76,1.74,1.52,2.61,2.28c0.09,0.08,0.17,0.22,0.32,0.1C86.66,34.13,86.77,34.1,86.77,33.96z
		 M81.97,19.11c-1.05,0.09-2.14,0.39-3.21,0.81c-0.39,0.15-0.39,0.29-0.16,0.6c1.71,2.31,3.41,4.63,5.12,6.94
		c1.36,1.84,2.73,3.68,4.08,5.53c0.15,0.2,0.27,0.3,0.51,0.16c0.28-0.16,0.05-0.32,0-0.45c-0.24-0.59-0.5-1.16-0.76-1.74
		c-1.71-3.86-3.43-7.71-5.14-11.57C82.34,19.23,82.3,19.06,81.97,19.11z M73.4,24.65c-0.72,1.26-0.94,2.57-0.76,3.96
		c0.04,0.31,0.24,0.46,0.5,0.59c3.2,1.66,6.4,3.33,9.6,5c0.82,0.43,1.64,0.86,2.47,1.28c0.1,0.05,0.22,0.17,0.33-0.02
		c0.09-0.15-0.04-0.2-0.12-0.27c-0.07-0.07-0.15-0.13-0.22-0.19c-2.2-1.93-4.4-3.86-6.6-5.79C76.87,27.7,75.15,26.19,73.4,24.65z
		 M83.85,19.13c0.91,2.06,1.79,4.05,2.67,6.04c1.07,2.42,2.14,4.84,3.21,7.26c0.06,0.15,0.1,0.41,0.35,0.31
		c0.22-0.08,0.06-0.29,0.04-0.43c-0.21-1.45-0.43-2.89-0.64-4.34c-0.31-2.09-0.62-4.18-0.95-6.26c-0.05-0.33,0.01-0.72-0.35-0.97
		C86.9,19.86,85.5,19.3,83.85,19.13z"/>
	<path class="st1" d="M92.31,40.24c-1.72-0.9-3.4-1.79-5.09-2.66c-0.29-0.15-0.26-0.29-0.15-0.54c0.74-1.66,2.5-2.52,4.14-2.5
		c0.26,0,0.27,0.14,0.3,0.33c0.25,1.58,0.51,3.17,0.75,4.75C92.29,39.82,92.42,40,92.31,40.24z M91.97,39.8c0-0.16,0.01-0.26,0-0.35
		c-0.2-1.23-0.39-2.46-0.61-3.69c-0.15-0.85-0.17-0.86-1.03-0.73c-1.23,0.19-2.16,0.84-2.76,1.94c-0.15,0.28-0.2,0.48,0.18,0.63
		c0.35,0.13,0.66,0.35,0.99,0.52C89.8,38.67,90.86,39.22,91.97,39.8z"/>
</g>
</svg>
